<svg height="496pt" viewBox="-59 0 495 496" width="496pt" xmlns="http://www.w3.org/2000/svg"><g fill="#57a4ff"><path d="m248.578125 8h-.078125l13.441406 13.441406zm0 0"/><path d="m328.5 88-66.558594-66.558594 66.160156 66.558594zm0 0"/><path d="m328.101562 88-66.160156-66.558594-13.441406-13.441406v80zm0 0"/><path d="m224.5 264v152h144v-152zm0 0"/></g><path d="m328.5 440c-4.417969 0-8 3.582031-8 8v32h-304v-464h224v72c0 4.417969 3.582031 8 8 8h72v136c0 4.417969 3.582031 8 8 8s8-3.582031 8-8v-143.601562c-.019531-.214844-.046875-.425782-.089844-.636719-.027344-2.03125-.835937-3.96875-2.253906-5.417969l-79.902344-80c-.195312-.191406-.472656-.28125-.691406-.457031-.5-.429688-1.054688-.792969-1.648438-1.085938-.289062-.121093-.585937-.230469-.886718-.320312-.648438-.21875-1.324219-.351563-2.007813-.3906252-.175781 0-.34375-.0898438-.519531-.0898438h-240c-4.417969 0-8 3.582031-8 8v480c0 4.417969 3.582031 8 8 8h320c4.417969 0 8-3.582031 8-8v-40c0-4.417969-3.582031-8-8-8zm-72-412.679688 52.367188 52.679688h-52.367188zm0 0" fill="#004fac"/><path d="m368.5 256h-144c-4.417969 0-8 3.582031-8 8v152c0 4.417969 3.582031 8 8 8h144c4.417969 0 8-3.582031 8-8v-152c0-4.417969-3.582031-8-8-8zm-8 152h-128v-136h128zm0 0" fill="#004fac"/><path d="m336.5 392c4.417969 0 8-3.582031 8-8v-88c0-4.417969-3.582031-8-8-8s-8 3.582031-8 8v88c0 4.417969 3.582031 8 8 8zm0 0" fill="#004fac"/><path d="m254.394531 391.71875c4.261719 1.164062 8.65625-1.339844 9.824219-5.597656l4.9375-18.121094h22.6875l4.9375 18.105469c1.160156 4.261719 5.558594 6.777343 9.824219 5.613281 4.261719-1.160156 6.777343-5.558594 5.613281-9.824219l-24-88c-.945312-3.484375-4.109375-5.902343-7.71875-5.902343s-6.773438 2.417968-7.71875 5.902343l-24 88c-1.164062 4.265625 1.351562 8.664063 5.613281 9.824219zm26.105469-65.320312 6.976562 25.601562h-13.953124zm0 0" fill="#004fac"/></svg>