<svg height="496pt" viewBox="-59 0 495 496" width="496pt" xmlns="http://www.w3.org/2000/svg"><path d="m248.578125 8h-.078125l13.441406 13.441406zm0 0" fill="#57a4ff"/><path d="m328.5 88-66.558594-66.558594 66.160156 66.558594zm0 0" fill="#57a4ff"/><path d="m328.101562 88-66.160156-66.558594-13.441406-13.441406v80zm0 0" fill="#57a4ff"/><path d="m176.5 264v152h192v-152zm0 0" fill="#57a4ff"/><g fill="#004fac"><path d="m328.5 440c-4.417969 0-8 3.582031-8 8v32h-304v-464h224v72c0 4.417969 3.582031 8 8 8h72v136c0 4.417969 3.582031 8 8 8s8-3.582031 8-8v-143.601562c-.015625-.214844-.046875-.425782-.089844-.636719-.023437-2.03125-.832031-3.96875-2.253906-5.417969l-79.902344-80c-.226562-.164062-.457031-.316406-.699218-.457031-.484376-.429688-1.019532-.792969-1.597657-1.085938-.292969-.121093-.585937-.230469-.890625-.320312-.648437-.21875-1.324218-.351563-2.007812-.3906252-.214844 0-.382813-.0898438-.558594-.0898438h-240c-4.417969 0-8 3.582031-8 8v480c0 4.417969 3.582031 8 8 8h320c4.417969 0 8-3.582031 8-8v-40c0-4.417969-3.582031-8-8-8zm-72-412.679688 52.375 52.679688h-52.375zm0 0"/><path d="m368.5 256h-192c-4.417969 0-8 3.582031-8 8v152c0 4.417969 3.582031 8 8 8h192c4.417969 0 8-3.582031 8-8v-152c0-4.417969-3.582031-8-8-8zm-8 152h-176v-136h176zm0 0"/><path d="m336.5 392c4.417969 0 8-3.582031 8-8v-88c0-4.417969-3.582031-8-8-8s-8 3.582031-8 8v88c0 4.417969 3.582031 8 8 8zm0 0"/><path d="m288.5 392c3.863281-.003906 7.171875-2.765625 7.863281-6.566406l16-88c.597657-4.25-2.265625-8.214844-6.488281-8.984375-4.222656-.765625-8.296875 1.933593-9.238281 6.117187l-8.136719 44.714844-8.136719-44.714844c-.40625-2.90625-2.375-5.355468-5.125-6.382812s-5.84375-.464844-8.054687 1.464844c-2.214844 1.933593-3.191406 4.917968-2.546875 7.785156l16 88c.691406 3.800781 4 6.5625 7.863281 6.566406zm0 0"/><path d="m206.394531 391.71875c4.261719 1.164062 8.65625-1.339844 9.824219-5.597656l4.9375-18.121094h22.6875l4.9375 18.105469c1.160156 4.261719 5.558594 6.777343 9.824219 5.613281 4.261719-1.160156 6.777343-5.558594 5.613281-9.824219l-24-88c-.945312-3.484375-4.109375-5.902343-7.71875-5.902343s-6.773438 2.417968-7.71875 5.902343l-24 88c-1.164062 4.265625 1.351562 8.664063 5.613281 9.824219zm26.105469-65.320312 6.984375 25.601562h-13.96875zm0 0"/></g></svg>