<svg height="496pt" viewBox="-59 0 495 496" width="496pt" xmlns="http://www.w3.org/2000/svg"><g fill="#57a4ff"><path d="m248.578125 8h-.078125l13.441406 13.441406zm0 0"/><path d="m328.5 88-66.558594-66.558594 66.160156 66.558594zm0 0"/><path d="m328.101562 88-66.160156-66.558594-13.441406-13.441406v80zm0 0"/><path d="m144.5 264v152h224v-152zm128 112c0 4.417969-3.582031 8-8 8h-24v-88h24c4.417969 0 8 3.582031 8 8zm64-40h-32v-40h32zm0 0"/><path d="m272.5 376v-72c0-4.417969-3.582031-8-8-8h-24v88h24c4.417969 0 8-3.582031 8-8zm0 0"/><path d="m336.5 336v-40h-32v40zm0 0"/></g><path d="m328.5 440c-4.417969 0-8 3.582031-8 8v32h-304v-464h224v72c0 4.417969 3.582031 8 8 8h72v136c0 4.417969 3.582031 8 8 8s8-3.582031 8-8v-143.601562c-.019531-.222657-.046875-.441407-.089844-.664063-.035156-2.019531-.839844-3.945313-2.253906-5.390625l-79.902344-80c-.21875-.160156-.449218-.3125-.683594-.449219-.503906-.4375-1.066406-.808593-1.671874-1.101562-.273438-.117188-.558594-.21875-.847657-.304688-.664062-.230469-1.359375-.367187-2.0625-.410156-.167969.0117188-.320312-.078125-.488281-.078125h-240c-4.417969 0-8 3.582031-8 8v480c0 4.417969 3.582031 8 8 8h320c4.417969 0 8-3.582031 8-8v-40c0-4.417969-3.582031-8-8-8zm-72-412.679688 52.367188 52.679688h-52.367188zm0 0" fill="#004fac"/><path d="m368.5 256h-224c-4.417969 0-8 3.582031-8 8v152c0 4.417969 3.582031 8 8 8h224c4.417969 0 8-3.582031 8-8v-152c0-4.417969-3.582031-8-8-8zm-8 152h-208v-136h208zm0 0" fill="#004fac"/><path d="m240.5 392h24c8.835938 0 16-7.164062 16-16v-72c0-8.835938-7.164062-16-16-16h-24c-4.417969 0-8 3.582031-8 8v88c0 4.417969 3.582031 8 8 8zm8-88h16v72h-16zm0 0" fill="#004fac"/><path d="m304.5 392c4.417969 0 8-3.582031 8-8v-40h9.222656l6.890625 41.320312c.644531 3.855469 3.980469 6.679688 7.886719 6.679688.445312 0 .890625-.035156 1.328125-.113281 4.355469-.730469 7.296875-4.851563 6.566406-9.207031l-6.488281-38.960938c3.78125-.632812 6.558594-3.886719 6.59375-7.71875v-40c0-4.417969-3.582031-8-8-8h-32c-4.417969 0-8 3.582031-8 8v88c0 4.417969 3.582031 8 8 8zm24-64h-16v-24h16zm0 0" fill="#004fac"/><path d="m176.5 392h32c4.417969 0 8-3.582031 8-8s-3.582031-8-8-8h-24v-72h24c4.417969 0 8-3.582031 8-8s-3.582031-8-8-8h-32c-4.417969 0-8 3.582031-8 8v88c0 4.417969 3.582031 8 8 8zm0 0" fill="#004fac"/></svg>