<svg height="496pt" viewBox="-59 0 495 496" width="496pt" xmlns="http://www.w3.org/2000/svg"><path d="m248.578125 8h-.078125l13.441406 13.441406zm0 0" fill="#57a4ff"/><path d="m328.101562 88-66.160156-66.558594-13.441406-13.441406v80zm0 0" fill="#57a4ff"/><path d="m328.5 88-66.558594-66.558594 66.160156 66.558594zm0 0" fill="#57a4ff"/><path d="m144.5 264v152h224v-152zm0 0" fill="#57a4ff"/><g fill="#004fac"><path d="m328.5 440c-4.417969 0-8 3.582031-8 8v32h-304v-464h224v72c0 4.417969 3.582031 8 8 8h72v136c0 4.417969 3.582031 8 8 8s8-3.582031 8-8v-143.601562c-.019531-.214844-.046875-.425782-.089844-.636719-.027344-2.03125-.835937-3.96875-2.253906-5.417969l-79.902344-80c-.226562-.167969-.457031-.320312-.699218-.464844-.488282-.421875-1.023438-.785156-1.597657-1.078125-.296875-.125-.601562-.234375-.914062-.320312-.636719-.214844-1.296875-.34375-1.96875-.3906252-.214844.0078124-.390625-.0898438-.574219-.0898438h-240c-4.417969 0-8 3.582031-8 8v480c0 4.417969 3.582031 8 8 8h320c4.417969 0 8-3.582031 8-8v-40c0-4.417969-3.582031-8-8-8zm-72-412.679688 52.367188 52.679688h-52.367188zm0 0"/><path d="m368.5 256h-224c-4.417969 0-8 3.582031-8 8v152c0 4.417969 3.582031 8 8 8h224c4.417969 0 8-3.582031 8-8v-152c0-4.417969-3.582031-8-8-8zm-8 152h-208v-136h208zm0 0"/><path d="m176.5 392h32c4.417969 0 8-3.582031 8-8s-3.582031-8-8-8h-24v-72h24c4.417969 0 8-3.582031 8-8s-3.582031-8-8-8h-32c-4.417969 0-8 3.582031-8 8v88c0 4.417969 3.582031 8 8 8zm0 0"/><path d="m240.5 376c-4.417969 0-8 3.582031-8 8s3.582031 8 8 8h32c4.417969 0 8-3.582031 8-8v-48c0-4.417969-3.582031-8-8-8h-24v-24h24c4.417969 0 8-3.582031 8-8s-3.582031-8-8-8h-32c-4.417969 0-8 3.582031-8 8v40c0 4.417969 3.582031 8 8 8h24v32zm0 0"/><path d="m304.5 376c-4.417969 0-8 3.582031-8 8s3.582031 8 8 8h32c4.417969 0 8-3.582031 8-8v-48c0-4.417969-3.582031-8-8-8h-24v-24h24c4.417969 0 8-3.582031 8-8s-3.582031-8-8-8h-32c-4.417969 0-8 3.582031-8 8v40c0 4.417969 3.582031 8 8 8h24v32zm0 0"/></g></svg>