<svg height="496pt" viewBox="-59 0 495 496" width="496pt" xmlns="http://www.w3.org/2000/svg"><path d="m248.578125 8h-.078125l13.441406 13.441406zm0 0" fill="#57a4ff"/><path d="m328.5 88-66.558594-66.558594 66.160156 66.558594zm0 0" fill="#57a4ff"/><path d="m328.101562 88-66.160156-66.558594-13.441406-13.441406v80zm0 0" fill="#57a4ff"/><path d="m152.5 264v152h216v-152zm0 0" fill="#57a4ff"/><g fill="#004fac"><path d="m328.5 440c-4.417969 0-8 3.582031-8 8v32h-304v-464h224v72c0 4.417969 3.582031 8 8 8h72v136c0 4.417969 3.582031 8 8 8s8-3.582031 8-8v-143.601562c-.019531-.222657-.046875-.441407-.089844-.664063-.035156-2.019531-.839844-3.945313-2.253906-5.390625l-79.902344-80c-.21875-.160156-.441406-.304688-.675781-.441406-.507813-.445313-1.078125-.820313-1.6875-1.117188-.261719-.109375-.527344-.207031-.796875-.289062-.691406-.242188-1.414062-.382813-2.144531-.4257815-.160157.0078125-.296875-.0703125-.449219-.0703125h-240c-4.417969 0-8 3.582031-8 8v480c0 4.417969 3.582031 8 8 8h320c4.417969 0 8-3.582031 8-8v-40c0-4.417969-3.582031-8-8-8zm-72-412.679688 52.375 52.679688h-52.375zm0 0"/><path d="m368.5 256h-216c-4.417969 0-8 3.582031-8 8v152c0 4.417969 3.582031 8 8 8h216c4.417969 0 8-3.582031 8-8v-152c0-4.417969-3.582031-8-8-8zm-8 152h-200v-136h200zm0 0"/><path d="m184.5 392c4.417969 0 8-3.582031 8-8v-40h24c4.417969 0 8-3.582031 8-8s-3.582031-8-8-8h-24v-24h24c4.417969 0 8-3.582031 8-8s-3.582031-8-8-8h-32c-4.417969 0-8 3.582031-8 8v88c0 4.417969 3.582031 8 8 8zm0 0"/><path d="m248.5 392h32c4.417969 0 8-3.582031 8-8s-3.582031-8-8-8h-24v-80c0-4.417969-3.582031-8-8-8s-8 3.582031-8 8v88c0 4.417969 3.582031 8 8 8zm0 0"/><path d="m320.5 392c3.867188 0 7.179688-2.765625 7.871094-6.566406l16-88c.792968-4.347656-2.089844-8.515625-6.4375-9.304688-4.347656-.792968-8.515625 2.089844-9.304688 6.4375l-8.128906 44.714844-8.128906-44.714844c-.789063-4.347656-4.957032-7.230468-9.304688-6.4375-4.347656.789063-7.230468 4.957032-6.4375 9.304688l16 88c.691406 3.800781 4.003906 6.566406 7.871094 6.566406zm0 0"/></g></svg>