<svg height="496pt" viewBox="-59 0 495 496" width="496pt" xmlns="http://www.w3.org/2000/svg"><g fill="#57a4ff"><path d="m248.578125 8h-.078125l13.441406 13.441406zm0 0"/><path d="m328.101562 88-66.160156-66.558594-13.441406-13.441406v80zm0 0"/><path d="m328.5 88-66.558594-66.558594 66.160156 66.558594zm0 0"/><path d="m136.5 264v152h232v-152zm136 72h-32v-40h32zm0 0"/><path d="m240.5 296h32v40h-32zm0 0"/></g><path d="m328.5 440c-4.417969 0-8 3.582031-8 8v32h-304v-464h224v72c0 4.417969 3.582031 8 8 8h72v136c0 4.417969 3.582031 8 8 8s8-3.582031 8-8v-143.601562c-.019531-.214844-.046875-.425782-.089844-.636719-.027344-2.03125-.835937-3.96875-2.253906-5.417969l-79.902344-80c-.226562-.167969-.457031-.320312-.699218-.464844-.488282-.421875-1.023438-.785156-1.597657-1.078125-.296875-.121093-.597656-.230469-.90625-.320312-.644531-.214844-1.3125-.347657-1.992187-.3906252-.207032.0078124-.375-.0898438-.558594-.0898438h-240c-4.417969 0-8 3.582031-8 8v480c0 4.417969 3.582031 8 8 8h320c4.417969 0 8-3.582031 8-8v-40c0-4.417969-3.582031-8-8-8zm-72-412.679688 52.367188 52.679688h-52.367188zm0 0" fill="#004fac"/><path d="m368.5 256h-232c-4.417969 0-8 3.582031-8 8v152c0 4.417969 3.582031 8 8 8h232c4.417969 0 8-3.582031 8-8v-152c0-4.417969-3.582031-8-8-8zm-8 152h-216v-136h216zm0 0" fill="#004fac"/><path d="m240.5 392c4.417969 0 8-3.582031 8-8v-40h24c4.417969 0 8-3.582031 8-8v-40c0-4.417969-3.582031-8-8-8h-32c-4.417969 0-8 3.582031-8 8v88c0 4.417969 3.582031 8 8 8zm24-64h-16v-24h16zm0 0" fill="#004fac"/><path d="m304.5 392h32c4.417969 0 8-3.582031 8-8v-32c0-4.417969-3.582031-8-8-8h-8c-4.417969 0-8 3.582031-8 8s3.582031 8 8 8v16h-16v-72h16v8c0 4.417969 3.582031 8 8 8s8-3.582031 8-8v-16c0-4.417969-3.582031-8-8-8h-32c-4.417969 0-8 3.582031-8 8v88c0 4.417969 3.582031 8 8 8zm0 0" fill="#004fac"/><path d="m168.5 392h32c4.417969 0 8-3.582031 8-8v-88c0-4.417969-3.582031-8-8-8s-8 3.582031-8 8v80h-16v-8c0-4.417969-3.582031-8-8-8s-8 3.582031-8 8v16c0 4.417969 3.582031 8 8 8zm0 0" fill="#004fac"/></svg>