<svg height="496pt" viewBox="-59 0 495 496" width="496pt" xmlns="http://www.w3.org/2000/svg"><g fill="#57a4ff"><path d="m248.578125 8h-.078125l13.441406 13.441406zm0 0"/><path d="m328.101562 88-66.160156-66.558594-13.441406-13.441406v80zm0 0"/><path d="m328.5 88-66.558594-66.558594 66.160156 66.558594zm0 0"/><path d="m128.5 264v152h240v-152zm64 112c0 4.417969-3.582031 8-8 8h-24v-88h24c4.417969 0 8 3.582031 8 8zm0 0"/><path d="m192.5 376v-72c0-4.417969-3.582031-8-8-8h-24v88h24c4.417969 0 8-3.582031 8-8zm0 0"/></g><path d="m328.5 440c-4.417969 0-8 3.582031-8 8v32h-304v-464h224v72c0 4.417969 3.582031 8 8 8h72v136c0 4.417969 3.582031 8 8 8s8-3.582031 8-8v-143.601562c-.019531-.222657-.046875-.441407-.089844-.664063-.035156-2.019531-.839844-3.945313-2.253906-5.390625l-79.902344-80c-.195312-.191406-.472656-.28125-.691406-.457031-.503906-.433594-1.058594-.800781-1.65625-1.09375-.277344-.117188-.5625-.21875-.855469-.304688-.671875-.230469-1.371093-.367187-2.078125-.410156-.160156 0-.3125-.078125-.472656-.078125h-240c-4.417969 0-8 3.582031-8 8v480c0 4.417969 3.582031 8 8 8h320c4.417969 0 8-3.582031 8-8v-40c0-4.417969-3.582031-8-8-8zm-72-412.679688 52.367188 52.679688h-52.367188zm0 0" fill="#004fac"/><path d="m368.5 256h-240c-4.417969 0-8 3.582031-8 8v152c0 4.417969 3.582031 8 8 8h240c4.417969 0 8-3.582031 8-8v-152c0-4.417969-3.582031-8-8-8zm-8 152h-224v-136h224zm0 0" fill="#004fac"/><path d="m160.5 392h24c8.835938 0 16-7.164062 16-16v-72c0-8.835938-7.164062-16-16-16h-24c-4.417969 0-8 3.582031-8 8v88c0 4.417969 3.582031 8 8 8zm8-88h16v72h-16zm0 0" fill="#004fac"/><path d="m304.5 392h32c4.417969 0 8-3.582031 8-8v-32c0-4.417969-3.582031-8-8-8h-8c-4.417969 0-8 3.582031-8 8s3.582031 8 8 8v16h-16v-72h16v8c0 4.417969 3.582031 8 8 8s8-3.582031 8-8v-16c0-4.417969-3.582031-8-8-8h-32c-4.417969 0-8 3.582031-8 8v88c0 4.417969 3.582031 8 8 8zm0 0" fill="#004fac"/><path d="m224.5 392c4.417969 0 8-3.582031 8-8v-80h8v32c0 4.417969 3.582031 8 8 8s8-3.582031 8-8v-32h8v80c0 4.417969 3.582031 8 8 8s8-3.582031 8-8v-88c0-4.417969-3.582031-8-8-8h-48c-4.417969 0-8 3.582031-8 8v88c0 4.417969 3.582031 8 8 8zm0 0" fill="#004fac"/></svg>