<svg height="496pt" viewBox="-59 0 495 496" width="496pt" xmlns="http://www.w3.org/2000/svg"><g fill="#57a4ff"><path d="m248.578125 8h-.078125l13.441406 13.441406zm0 0"/><path d="m328.101562 88-66.160156-66.558594-13.441406-13.441406v80zm0 0"/><path d="m328.5 88-66.558594-66.558594 66.160156 66.558594zm0 0"/><path d="m144.5 264v152h224v-152zm64 120h-32v-88h32zm0 0"/><path d="m176.5 296h32v88h-32zm0 0"/></g><path d="m328.5 440c-4.417969 0-8 3.582031-8 8v32h-304v-464h224v72c0 4.417969 3.582031 8 8 8h72v136c0 4.417969 3.582031 8 8 8s8-3.582031 8-8v-143.601562c-.015625-.214844-.046875-.425782-.089844-.636719-.023437-2.03125-.832031-3.96875-2.253906-5.417969l-79.902344-80c-.222656-.164062-.453125-.316406-.691406-.457031-.5-.429688-1.054688-.796875-1.648438-1.085938-.289062-.125-.585937-.230469-.886718-.320312-.648438-.21875-1.324219-.351563-2.007813-.3906252-.175781 0-.34375-.0898438-.519531-.0898438h-240c-4.417969 0-8 3.582031-8 8v480c0 4.417969 3.582031 8 8 8h320c4.417969 0 8-3.582031 8-8v-40c0-4.417969-3.582031-8-8-8zm-72-412.679688 52.375 52.679688h-52.375zm0 0" fill="#004fac"/><path d="m368.5 256h-224c-4.417969 0-8 3.582031-8 8v152c0 4.417969 3.582031 8 8 8h224c4.417969 0 8-3.582031 8-8v-152c0-4.417969-3.582031-8-8-8zm-8 152h-208v-136h208zm0 0" fill="#004fac"/><path d="m304.5 392c4.417969 0 8-3.582031 8-8v-40h24c4.417969 0 8-3.582031 8-8s-3.582031-8-8-8h-24v-24h24c4.417969 0 8-3.582031 8-8s-3.582031-8-8-8h-32c-4.417969 0-8 3.582031-8 8v88c0 4.417969 3.582031 8 8 8zm0 0" fill="#004fac"/><path d="m240.5 304h8v80c0 4.417969 3.582031 8 8 8s8-3.582031 8-8v-80h8c4.417969 0 8-3.582031 8-8s-3.582031-8-8-8h-32c-4.417969 0-8 3.582031-8 8s3.582031 8 8 8zm0 0" fill="#004fac"/><path d="m176.5 392h32c4.417969 0 8-3.582031 8-8v-88c0-4.417969-3.582031-8-8-8h-32c-4.417969 0-8 3.582031-8 8v88c0 4.417969 3.582031 8 8 8zm8-88h16v72h-16zm0 0" fill="#004fac"/></svg>