<svg height="496pt" viewBox="-59 0 495 496" width="496pt" xmlns="http://www.w3.org/2000/svg"><g fill="#57a4ff"><path d="m248.578125 8h-.078125l13.441406 13.441406zm0 0"/><path d="m328.101562 88-66.160156-66.558594-13.441406-13.441406v80zm0 0"/><path d="m328.5 88-66.558594-66.558594 66.160156 66.558594zm0 0"/><path d="m152.5 264v152h216v-152zm64 72h-32v-40h32zm120 40c0 4.417969-3.582031 8-8 8h-24v-88h24c4.417969 0 8 3.582031 8 8zm0 0"/><path d="m336.5 376v-72c0-4.417969-3.582031-8-8-8h-24v88h24c4.417969 0 8-3.582031 8-8zm0 0"/><path d="m184.5 296h32v40h-32zm0 0"/></g><path d="m328.5 440c-4.417969 0-8 3.582031-8 8v32h-304v-464h224v72c0 4.417969 3.582031 8 8 8h72v136c0 4.417969 3.582031 8 8 8s8-3.582031 8-8v-143.601562c-.019531-.222657-.046875-.441407-.089844-.664063-.035156-2.019531-.839844-3.945313-2.253906-5.390625l-79.902344-80c-.21875-.164062-.445312-.3125-.683594-.449219-.503906-.441406-1.066406-.8125-1.671874-1.101562-.929688-.382813-1.910157-.621094-2.910157-.714844-.167969.0117188-.320312-.078125-.488281-.078125h-240c-4.417969 0-8 3.582031-8 8v480c0 4.417969 3.582031 8 8 8h320c4.417969 0 8-3.582031 8-8v-40c0-4.417969-3.582031-8-8-8zm-72-412.679688 52.367188 52.679688h-52.367188zm0 0" fill="#004fac"/><path d="m368.5 256h-216c-4.417969 0-8 3.582031-8 8v152c0 4.417969 3.582031 8 8 8h216c4.417969 0 8-3.582031 8-8v-152c0-4.417969-3.582031-8-8-8zm-8 152h-200v-136h200zm0 0" fill="#004fac"/><path d="m184.5 392c4.417969 0 8-3.582031 8-8v-40h24c4.417969 0 8-3.582031 8-8v-40c0-4.417969-3.582031-8-8-8h-32c-4.417969 0-8 3.582031-8 8v88c0 4.417969 3.582031 8 8 8zm24-64h-16v-24h16zm0 0" fill="#004fac"/><path d="m304.5 392h24c8.835938 0 16-7.164062 16-16v-72c0-8.835938-7.164062-16-16-16h-24c-4.417969 0-8 3.582031-8 8v88c0 4.417969 3.582031 8 8 8zm8-88h16v72h-16zm0 0" fill="#004fac"/><path d="m248.5 376c-4.417969 0-8 3.582031-8 8s3.582031 8 8 8h24c4.417969 0 8-3.582031 8-8v-48c0-4.417969-3.582031-8-8-8h-16v-24h16c4.417969 0 8-3.582031 8-8s-3.582031-8-8-8h-24c-4.417969 0-8 3.582031-8 8v40c0 4.417969 3.582031 8 8 8h16v32zm0 0" fill="#004fac"/></svg>