<svg height="496pt" viewBox="-59 0 495 496" width="496pt" xmlns="http://www.w3.org/2000/svg"><g fill="#57a4ff"><path d="m248.578125 8h-.078125l13.441406 13.441406zm0 0"/><path d="m328.5 88-66.558594-66.558594 66.160156 66.558594zm0 0"/><path d="m328.101562 88-66.160156-66.558594-13.441406-13.441406v80zm0 0"/><path d="m112.5 264v152h256v-152zm64 72h-32v-40h32zm0 0"/><path d="m176.5 336v-40h-32v40zm0 0"/></g><path d="m328.5 440c-4.417969 0-8 3.582031-8 8v32h-304v-464h224v72c0 4.417969 3.582031 8 8 8h72v136c0 4.417969 3.582031 8 8 8s8-3.582031 8-8v-143.601562c-.019531-.222657-.046875-.441407-.089844-.664063-.035156-2.019531-.839844-3.945313-2.253906-5.390625l-79.902344-80c-.21875-.160156-.449218-.3125-.683594-.449219-.503906-.433593-1.0625-.804687-1.664062-1.101562-.277344-.117188-.5625-.21875-.855469-.304688-.671875-.230469-1.371093-.367187-2.078125-.410156-.160156 0-.3125-.078125-.472656-.078125h-240c-4.417969 0-8 3.582031-8 8v480c0 4.417969 3.582031 8 8 8h320c4.417969 0 8-3.582031 8-8v-40c0-4.417969-3.582031-8-8-8zm-72-412.679688 52.367188 52.679688h-52.367188zm0 0" fill="#004fac"/><path d="m368.5 256h-256c-4.417969 0-8 3.582031-8 8v152c0 4.417969 3.582031 8 8 8h256c4.417969 0 8-3.582031 8-8v-152c0-4.417969-3.582031-8-8-8zm-8 152h-240v-136h240zm0 0" fill="#004fac"/><path d="m144.5 392c4.417969 0 8-3.582031 8-8v-40h9.222656l6.890625 41.320312c.644531 3.855469 3.980469 6.679688 7.886719 6.679688.445312 0 .890625-.035156 1.328125-.113281 4.355469-.730469 7.296875-4.851563 6.566406-9.207031l-6.488281-38.960938c3.78125-.632812 6.558594-3.886719 6.59375-7.71875v-40c0-4.417969-3.582031-8-8-8h-32c-4.417969 0-8 3.582031-8 8v88c0 4.417969 3.582031 8 8 8zm24-64h-16v-24h16zm0 0" fill="#004fac"/><path d="m206.394531 391.71875c4.261719 1.164062 8.65625-1.339844 9.824219-5.597656l4.9375-18.121094h22.6875l4.9375 18.105469c1.160156 4.261719 5.558594 6.777343 9.824219 5.613281 4.261719-1.160156 6.777343-5.558594 5.613281-9.824219l-24-88c-.945312-3.484375-4.109375-5.902343-7.71875-5.902343s-6.773438 2.417968-7.71875 5.902343l-24 88c-1.164062 4.265625 1.351562 8.664063 5.613281 9.824219zm26.105469-65.320312 6.976562 25.601562h-13.953124zm0 0" fill="#004fac"/><path d="m288.5 392h48c4.417969 0 8-3.582031 8-8v-88c0-4.417969-3.582031-8-8-8s-8 3.582031-8 8v80h-8v-32c0-4.417969-3.582031-8-8-8s-8 3.582031-8 8v32h-8v-80c0-4.417969-3.582031-8-8-8s-8 3.582031-8 8v88c0 4.417969 3.582031 8 8 8zm0 0" fill="#004fac"/></svg>