<svg height="496pt" viewBox="-59 0 495 496" width="496pt" xmlns="http://www.w3.org/2000/svg"><path d="m248.578125 8h-.078125l13.441406 13.441406zm0 0" fill="#57a4ff"/><path d="m328.101562 88-66.160156-66.558594-13.441406-13.441406v80zm0 0" fill="#57a4ff"/><path d="m328.5 88-66.558594-66.558594 66.160156 66.558594zm0 0" fill="#57a4ff"/><path d="m152.5 264v152h216v-152zm0 0" fill="#57a4ff"/><g fill="#004fac"><path d="m328.5 440c-4.417969 0-8 3.582031-8 8v32h-304v-464h224v72c0 4.417969 3.582031 8 8 8h72v136c0 4.417969 3.582031 8 8 8s8-3.582031 8-8v-143.601562c-.019531-.214844-.046875-.425782-.089844-.636719-.027344-2.03125-.835937-3.96875-2.253906-5.417969l-79.902344-80c-.226562-.164062-.457031-.316406-.699218-.457031-.484376-.429688-1.019532-.792969-1.597657-1.085938-.292969-.125-.59375-.230469-.898437-.320312-.644532-.21875-1.316406-.351563-2-.3906252-.214844 0-.382813-.0898438-.558594-.0898438h-240c-4.417969 0-8 3.582031-8 8v480c0 4.417969 3.582031 8 8 8h320c4.417969 0 8-3.582031 8-8v-40c0-4.417969-3.582031-8-8-8zm-72-412.679688 52.367188 52.679688h-52.367188zm0 0"/><path d="m368.5 256h-216c-4.417969 0-8 3.582031-8 8v152c0 4.417969 3.582031 8 8 8h216c4.417969 0 8-3.582031 8-8v-152c0-4.417969-3.582031-8-8-8zm-8 152h-200v-136h200zm0 0"/><path d="m184.5 376c-4.417969 0-8 3.582031-8 8s3.582031 8 8 8h24c4.417969 0 8-3.582031 8-8v-48c0-4.417969-3.582031-8-8-8h-16v-24h16c4.417969 0 8-3.582031 8-8s-3.582031-8-8-8h-24c-4.417969 0-8 3.582031-8 8v40c0 4.417969 3.582031 8 8 8h16v32zm0 0"/><path d="m304.5 392h32c4.417969 0 8-3.582031 8-8v-32c0-4.417969-3.582031-8-8-8h-8c-4.417969 0-8 3.582031-8 8s3.582031 8 8 8v16h-16v-72h16v8c0 4.417969 3.582031 8 8 8s8-3.582031 8-8v-16c0-4.417969-3.582031-8-8-8h-32c-4.417969 0-8 3.582031-8 8v88c0 4.417969 3.582031 8 8 8zm0 0"/><path d="m256.5 392c3.863281-.003906 7.171875-2.765625 7.863281-6.566406l16-88c.644531-2.867188-.332031-5.851563-2.546875-7.785156-2.210937-1.929688-5.304687-2.492188-8.054687-1.464844s-4.71875 3.476562-5.125 6.382812l-8.136719 44.714844-8.136719-44.714844c-.40625-2.90625-2.375-5.355468-5.125-6.382812s-5.84375-.464844-8.054687 1.464844c-2.214844 1.933593-3.191406 4.917968-2.546875 7.785156l16 88c.691406 3.800781 4 6.5625 7.863281 6.566406zm0 0"/></g></svg>