<svg height="496pt" viewBox="-59 0 495 496" width="496pt" xmlns="http://www.w3.org/2000/svg"><path d="m248.578125 8h-.078125l13.441406 13.441406zm0 0" fill="#57a4ff"/><path d="m328.101562 88-66.160156-66.558594-13.441406-13.441406v80zm0 0" fill="#57a4ff"/><path d="m328.5 88-66.558594-66.558594 66.160156 66.558594zm0 0" fill="#57a4ff"/><path d="m144.5 264v152h224v-152zm0 0" fill="#57a4ff"/><g fill="#004fac"><path d="m328.5 440c-4.417969 0-8 3.582031-8 8v32h-304v-464h224v72c0 4.417969 3.582031 8 8 8h72v136c0 4.417969 3.582031 8 8 8s8-3.582031 8-8v-143.601562c-.019531-.214844-.046875-.425782-.089844-.636719-.027344-2.03125-.835937-3.96875-2.253906-5.417969l-79.902344-80c-.226562-.167969-.457031-.320312-.699218-.464844-.488282-.421875-1.023438-.785156-1.597657-1.078125-.300781-.121093-.605469-.230469-.914062-.320312-.636719-.214844-1.300781-.34375-1.976563-.3906252-.214844.0078124-.382812-.0898438-.566406-.0898438h-240c-4.417969 0-8 3.582031-8 8v480c0 4.417969 3.582031 8 8 8h320c4.417969 0 8-3.582031 8-8v-40c0-4.417969-3.582031-8-8-8zm-72-412.679688 52.367188 52.679688h-52.367188zm0 0"/><path d="m368.5 256h-224c-4.417969 0-8 3.582031-8 8v152c0 4.417969 3.582031 8 8 8h224c4.417969 0 8-3.582031 8-8v-152c0-4.417969-3.582031-8-8-8zm-8 152h-208v-136h208zm0 0"/><path d="m304.5 304h8v80c0 4.417969 3.582031 8 8 8s8-3.582031 8-8v-80h8c4.417969 0 8-3.582031 8-8s-3.582031-8-8-8h-32c-4.417969 0-8 3.582031-8 8s3.582031 8 8 8zm0 0"/><path d="m176.5 304h8v80c0 4.417969 3.582031 8 8 8s8-3.582031 8-8v-80h8c4.417969 0 8-3.582031 8-8s-3.582031-8-8-8h-32c-4.417969 0-8 3.582031-8 8s3.582031 8 8 8zm0 0"/><path d="m237.765625 391.519531c4.152344 1.507813 8.742187-.644531 10.246094-4.800781l8.488281-23.320312 8.488281 23.335937c.902344 2.785156 3.25 4.855469 6.128907 5.398437 2.875.542969 5.820312-.527343 7.671874-2.792968 1.855469-2.265625 2.324219-5.363282 1.222657-8.074219l-15-41.265625 15-41.265625c1.101562-2.710937.632812-5.808594-1.222657-8.074219-1.851562-2.265625-4.796874-3.335937-7.671874-2.792968-2.878907.542968-5.226563 2.613281-6.128907 5.398437l-8.488281 23.335937-8.488281-23.335937c-.902344-2.785156-3.25-4.855469-6.128907-5.398437-2.875-.542969-5.820312.527343-7.671874 2.792968-1.855469 2.265625-2.324219 5.363282-1.222657 8.074219l15 41.265625-15 41.265625c-1.511719 4.148437.625 8.742187 4.777344 10.253906zm0 0"/></g></svg>