<svg height="496pt" viewBox="-59 0 495 496" width="496pt" xmlns="http://www.w3.org/2000/svg"><path d="m248.578125 8h-.078125l13.441406 13.441406zm0 0" fill="#57a4ff"/><path d="m328.5 88-66.558594-66.558594 66.160156 66.558594zm0 0" fill="#57a4ff"/><path d="m328.101562 88-66.160156-66.558594-13.441406-13.441406v80zm0 0" fill="#57a4ff"/><path d="m128.5 264v152h240v-152zm0 0" fill="#57a4ff"/><g fill="#004fac"><path d="m328.5 440c-4.417969 0-8 3.582031-8 8v32h-304v-464h224v72c0 4.417969 3.582031 8 8 8h72v136c0 4.417969 3.582031 8 8 8s8-3.582031 8-8v-143.601562c-.019531-.222657-.046875-.441407-.089844-.664063-.035156-2.019531-.839844-3.945313-2.253906-5.390625l-79.902344-80c-.214844-.160156-.4375-.304688-.664062-.441406-.515625-.441406-1.085938-.820313-1.699219-1.117188-.257813-.113281-.527344-.207031-.796875-.289062-.691406-.242188-1.414062-.382813-2.144531-.4257815-.160157.0078125-.296875-.0703125-.449219-.0703125h-240c-4.417969 0-8 3.582031-8 8v480c0 4.417969 3.582031 8 8 8h320c4.417969 0 8-3.582031 8-8v-40c0-4.417969-3.582031-8-8-8zm-72-412.679688 52.375 52.679688h-52.375zm0 0"/><path d="m368.5 256h-240c-4.417969 0-8 3.582031-8 8v152c0 4.417969 3.582031 8 8 8h240c4.417969 0 8-3.582031 8-8v-152c0-4.417969-3.582031-8-8-8zm-8 152h-224v-136h224zm0 0"/><path d="m157.765625 391.511719c1.996094.726562 4.199219.628906 6.121094-.273438 1.925781-.898437 3.410156-2.527343 4.132812-4.527343l8.480469-23.296876 8.480469 23.320313c1.511719 4.15625 6.101562 6.296875 10.253906 4.785156 4.15625-1.511719 6.296875-6.101562 4.785156-10.253906l-15.007812-41.265625 15.007812-41.265625c1.511719-4.152344-.628906-8.742187-4.785156-10.253906-4.152344-1.511719-8.742187.628906-10.253906 4.785156l-8.480469 23.320313-8.480469-23.320313c-1.511719-4.15625-6.101562-6.296875-10.253906-4.785156-4.15625 1.511719-6.296875 6.101562-4.785156 10.253906l15.007812 41.265625-15.007812 41.265625c-1.507813 4.148437.632812 8.734375 4.785156 10.246094zm0 0"/><path d="m224.5 392c4.417969 0 8-3.582031 8-8v-80h8v32c0 4.417969 3.582031 8 8 8s8-3.582031 8-8v-32h8v80c0 4.417969 3.582031 8 8 8s8-3.582031 8-8v-88c0-4.417969-3.582031-8-8-8h-48c-4.417969 0-8 3.582031-8 8v88c0 4.417969 3.582031 8 8 8zm0 0"/><path d="m304.5 392h32c4.417969 0 8-3.582031 8-8s-3.582031-8-8-8h-24v-80c0-4.417969-3.582031-8-8-8s-8 3.582031-8 8v88c0 4.417969 3.582031 8 8 8zm0 0"/></g></svg>