<svg height="496pt" viewBox="-60 0 496 496.00184" width="496pt" xmlns="http://www.w3.org/2000/svg"><path d="m248.082031 8h-.082031l13.441406 13.441406zm0 0" fill="#57a4ff"/><path d="m328 88-66.558594-66.558594 66.160156 66.558594zm0 0" fill="#57a4ff"/><path d="m327.601562 88-66.160156-66.558594-13.441406-13.441406v80zm0 0" fill="#57a4ff"/><path d="m176 264v152h192v-152zm160 72h-32v-40h32zm0 0" fill="#57a4ff"/><path d="m304 296h32v40h-32zm0 0" fill="#57a4ff"/><g fill="#004fac"><path d="m240 392h-32c-2.609375.003906-5.054688-1.269531-6.554688-3.410156-1.496093-2.136719-1.855468-4.871094-.964843-7.324219l28.097656-77.265625h-20.578125c-4.417969 0-8-3.578125-8-8 0-4.417969 3.582031-8 8-8h32c2.613281 0 5.058594 1.273438 6.554688 3.414062 1.5 2.136719 1.859374 4.871094.964843 7.324219l-28.09375 77.261719h20.574219c4.417969 0 8 3.582031 8 8 0 4.421875-3.582031 8-8 8zm0 0"/><path d="m272 392c-4.417969 0-8-3.578125-8-8v-88c0-4.417969 3.582031-8 8-8s8 3.582031 8 8v88c0 4.421875-3.582031 8-8 8zm0 0"/><path d="m333.28125 82.320312-66.242188-66.636718-13.359374-13.363282c-.734376-.71875-1.605469-1.289062-2.558594-1.679687-.347656-.179687-.730469-.289063-1.121094-.320313-.640625-.226562-1.320312-.335937-2-.320312h-240c-4.417969 0-8 3.582031-8 8v480c0 4.421875 3.582031 8 8 8h320c4.417969 0 8-3.578125 8-8v-40c0-4.417969-3.582031-8-8-8s-8 3.582031-8 8v32h-304v-464h224v72c0 4.421875 3.582031 8 8 8h72v136c0 4.421875 3.582031 8 8 8s8-3.578125 8-8v-143.757812c-.175781-2.234376-1.140625-4.332032-2.71875-5.921876zm-77.28125-2.320312v-52.636719l52.722656 52.636719zm0 0"/><path d="m267.039062 15.683594-13.359374-13.363282h.082031zm0 0"/><path d="m308.722656 80h-.320312l-52.402344-52.636719zm0 0"/><path d="m333.679688 82.320312h-.398438c1.578125 1.589844 2.542969 3.6875 2.71875 5.921876.046875-2.203126-.789062-4.335938-2.320312-5.921876zm0 0"/><path d="m368 256h-192c-4.417969 0-8 3.582031-8 8v152c0 4.421875 3.582031 8 8 8h192c4.417969 0 8-3.578125 8-8v-152c0-4.417969-3.582031-8-8-8zm-8 152h-176v-136h176zm0 0"/><path d="m336 288h-32c-4.417969 0-8 3.582031-8 8v88c0 4.421875 3.582031 8 8 8s8-3.578125 8-8v-40h24c4.417969 0 8-3.578125 8-8v-40c0-4.417969-3.582031-8-8-8zm-8 40h-16v-24h16zm0 0"/></g></svg>