<svg height="496pt" viewBox="0 -56 496 496" width="496pt" xmlns="http://www.w3.org/2000/svg"><path d="m472 56h-216l-48-48h-184c-8.835938 0-16 7.164062-16 16v320c0 8.835938 7.164062 16 16 16h448c8.835938 0 16-7.164062 16-16v-272c0-8.835938-7.164062-16-16-16zm0 0" fill="#57a4ff"/><g fill="#004fac"><path d="m472 48h-212.6875l-45.65625-45.65625c-1.5-1.5-3.535156-2.34375-5.65625-2.34375h-184c-13.253906 0-24 10.746094-24 24v320c0 13.253906 10.746094 24 24 24h288c4.417969 0 8-3.582031 8-8s-3.582031-8-8-8h-288c-4.417969 0-8-3.582031-8-8v-320c0-4.417969 3.582031-8 8-8h180.6875l45.65625 45.65625c1.5 1.5 3.535156 2.34375 5.65625 2.34375h216c4.417969 0 8 3.582031 8 8v152c0 4.417969 3.582031 8 8 8s8-3.582031 8-8v-152c0-13.253906-10.746094-24-24-24zm0 0"/><path d="m408 256c4.417969 0 8-3.582031 8-8s-3.582031-8-8-8c-35.511719.0625-65.679688 25.992188-71.078125 61.089844l-16.617187-7.066406 23.695312 56.183593 23.703125-56.183593-14.398437 6.121093c5.605468-25.730469 28.359374-44.09375 54.695312-44.144531zm0 0"/><path d="m472 273.792969-23.695312 56.183593 14.398437-6.121093c-5.609375 25.734375-28.367187 44.097656-54.703125 44.144531-4.417969 0-8 3.582031-8 8s3.582031 8 8 8c35.511719-.0625 65.679688-25.992188 71.078125-61.089844l16.625 7.066406zm0 0"/></g></svg>