<svg height="496pt" viewBox="0 -56 496 496" width="496pt" xmlns="http://www.w3.org/2000/svg"><path d="m368 280v80h8v-72h96v72c2.808594-.003906 5.570312-.75 8-2.160156v-77.839844zm104-224h-216l-48-48h-184c-8.824219.027344-15.972656 7.175781-16 16v320c.027344 8.824219 7.175781 15.972656 16 16h336v-80c0-4.417969 3.582031-8 8-8h24v-24c.039062-13.238281 10.761719-23.960938 24-24h16c13.238281.039062 23.960938 10.761719 24 24v24h24c4.417969 0 8 3.582031 8 8v-208c-.027344-8.824219-7.175781-15.972656-16-16zm0 0" fill="#57a4ff"/><path d="m480 272h-24v-24c-.039062-13.238281-10.761719-23.960938-24-24h-16c-13.238281.039062-23.960938 10.761719-24 24v24h-24c-4.417969 0-8 3.582031-8 8v80h8v-80h112v77.839844c4.945312-2.855469 7.996094-8.128906 8-13.839844v-64c0-4.417969-3.582031-8-8-8zm-40 0h-32v-24c0-4.417969 3.582031-8 8-8h16c4.417969 0 8 3.582031 8 8zm0 0" fill="#004fac"/><path d="m368 280v96h112v-96zm104 88h-96v-80h96zm0 0" fill="#57a4ff"/><g fill="#004fac"><path d="m472 48h-212.6875l-45.65625-45.65625c-1.5-1.5-3.535156-2.34375-5.65625-2.34375h-184c-13.253906 0-24 10.746094-24 24v320c0 13.253906 10.746094 24 24 24h312c4.417969 0 8-3.582031 8-8s-3.582031-8-8-8h-312c-4.417969 0-8-3.582031-8-8v-320c0-4.417969 3.582031-8 8-8h180.6875l45.65625 45.65625c1.5 1.5 3.535156 2.34375 5.65625 2.34375h216c4.417969 0 8 3.582031 8 8v152c0 4.417969 3.582031 8 8 8s8-3.582031 8-8v-152c0-13.253906-10.746094-24-24-24zm0 0"/><path d="m480 357.839844v-77.839844h-112v80h-8v16c0 4.417969 3.582031 8 8 8h112c4.417969 0 8-3.582031 8-8v-32c-.003906 5.710938-3.054688 10.984375-8 13.839844zm-104-69.839844h96v80h-96zm0 0"/></g></svg>