<svg height="496pt" viewBox="0 -56 496.00022 496" width="496pt" xmlns="http://www.w3.org/2000/svg"><g fill="#57a4ff"><path d="m472 56h-216l-48-48h-184c-8.824219.027344-15.972656 7.175781-16 16v320c.027344 8.824219 7.175781 15.972656 16 16h361.199219c-2.953125-1.59375-5.761719-3.441406-8.398438-5.519531l89.679688-89.679688c11.519531 14.746094 15.984375 33.804688 12.210937 52.132813-3.773437 18.324218-15.402344 34.070312-31.8125 43.066406h25.121094c.375.015625.75-.011719 1.121094-.078125 8.363281-.589844 14.859375-7.535156 14.878906-15.921875v-272c-.027344-8.824219-7.175781-15.972656-16-16zm-106.480469 287.199219c-8.773437-11.179688-13.535156-24.984375-13.519531-39.199219.046875-35.324219 28.675781-63.953125 64-64 14.210938-.015625 28.019531 4.746094 39.199219 13.519531zm0 0"/><path d="m466.878906 253.121094-101.757812 101.757812c1.800781 1.835938 3.726562 3.546875 5.757812 5.121094 29.765625 24.074219 73.167969 20.621094 98.75-7.859375 25.578125-28.476563 24.371094-72.003906-2.75-99.019531zm-20 106.878906c-19.175781 10.667969-42.503906 10.667969-61.679687 0-2.953125-1.59375-5.761719-3.441406-8.398438-5.519531l89.679688-89.679688c11.519531 14.746094 15.984375 33.804688 12.210937 52.132813-3.773437 18.324218-15.402344 34.070312-31.8125 43.066406zm0 0"/><path d="m416 232c-29.125-.019531-55.390625 17.515625-66.53125 44.425781-11.140625 26.910157-4.964844 57.878907 15.652344 78.453125l101.757812-101.757812c-13.457031-13.554688-31.777344-21.160156-50.878906-21.121094zm-64 72c.046875-35.324219 28.675781-63.953125 64-64 14.210938-.015625 28.019531 4.746094 39.199219 13.519531l-89.679688 89.679688c-8.773437-11.179688-13.535156-24.984375-13.519531-39.199219zm0 0"/></g><path d="m472 48h-212.6875l-45.65625-45.65625c-1.5-1.5-3.535156-2.34375-5.65625-2.34375h-184c-13.253906 0-24 10.746094-24 24v320c0 13.253906 10.746094 24 24 24h304c4.417969 0 8-3.582031 8-8s-3.582031-8-8-8h-304c-4.417969 0-8-3.582031-8-8v-320c0-4.417969 3.582031-8 8-8h180.6875l45.65625 45.65625c1.5 1.5 3.535156 2.34375 5.65625 2.34375h216c4.417969 0 8 3.582031 8 8v152c0 4.417969 3.582031 8 8 8s8-3.582031 8-8v-152c0-13.253906-10.746094-24-24-24zm0 0" fill="#004fac"/><path d="m488 269.199219c-3.84375-7.984375-9.011719-15.257813-15.28125-21.519531-.078125-.078126-.078125-.160157-.160156-.238282-.078125-.082031-.160156-.082031-.238282-.160156-31.222656-30.753906-81.382812-30.632812-112.457031.265625s-31.476562 81.058594-.902343 112.453125l.320312.320312c.078125.078126.078125.160157.160156.238282.078125.082031.160156.082031.238282.160156 15.09375 15.046875 35.578124 23.429688 56.886718 23.28125 21.3125-.152344 41.675782-8.824219 56.554688-24.078125 6.09375-6.167969 11.125-13.304687 14.878906-21.121094 10.667969-21.972656 10.667969-47.625 0-69.601562zm-41.121094 90.800781c-19.175781 10.667969-42.503906 10.667969-61.679687 0-2.953125-1.59375-5.761719-3.441406-8.398438-5.519531l89.679688-89.679688c11.519531 14.746094 15.984375 33.804688 12.210937 52.132813-3.773437 18.324218-15.402344 34.070312-31.8125 43.066406zm-30.878906-120c14.210938-.015625 28.019531 4.746094 39.199219 13.519531l-89.679688 89.679688c-8.773437-11.179688-13.535156-24.984375-13.519531-39.199219.046875-35.324219 28.675781-63.953125 64-64zm0 0" fill="#004fac"/></svg>