<svg height="496pt" viewBox="0 -48 496 496" width="496pt" xmlns="http://www.w3.org/2000/svg"><g fill="#57a4ff"><path d="m391.28125 359.519531c.320312.160157.558594.320313.878906.480469h-9.761718c2.589843-1.941406 6.097656-2.132812 8.882812-.480469zm0 0"/><path d="m440 320c0 13.253906-10.746094 24-24 24s-24-10.746094-24-24 10.746094-24 24-24 24 10.746094 24 24zm0 0"/><path d="m449.679688 360h-9.839844c.320312-.160156.558594-.320312.878906-.480469 2.8125-1.660156 6.34375-1.46875 8.960938.480469zm0 0"/><path d="m488 72v272c-.015625 5.011719-2.386719 9.722656-6.398438 12.71875-2.308593 1.859375-5.128906 2.972656-8.082031 3.203125-.503906.066406-1.011719.09375-1.519531.078125h-9.679688l-5.601562-5.519531c-2.554688-2.609375-3.046875-6.609375-1.199219-9.761719 1.949219-3.363281 3.453125-6.96875 4.480469-10.71875.890625-3.519531 4.050781-5.988281 7.679688-6h12.320312v-16h-12.320312c-3.628907-.011719-6.789063-2.480469-7.679688-6-1.027344-3.75-2.53125-7.355469-4.480469-10.71875-1.847656-3.152344-1.355469-7.152344 1.199219-9.761719l8.722656-8.640625-6.320312-6.320312-8.640625 8.722656c-2.609375 2.558594-6.609375 3.050781-9.761719 1.199219-3.363281-1.949219-6.96875-3.453125-10.71875-4.480469-3.519531-.890625-5.988281-4.050781-6-7.679688v-12.320312h-16v12.320312c-.011719 3.628907-2.480469 6.789063-6 7.679688-3.75 1.027344-7.355469 2.53125-10.71875 4.480469-3.152344 1.839843-7.148438 1.351562-9.761719-1.199219l-8.640625-8.722656-6.320312 6.320312 8.722656 8.640625c2.554688 2.609375 3.046875 6.609375 1.199219 9.761719-1.949219 3.363281-3.453125 6.96875-4.480469 10.71875-.890625 3.519531-4.050781 5.988281-7.679688 6h-12.320312v16h12.320312c3.628907.011719 6.789063 2.480469 7.679688 6 1.027344 3.75 2.53125 7.355469 4.480469 10.71875 1.847656 3.152344 1.355469 7.152344-1.199219 9.761719l-5.601562 5.519531h-345.679688c-8.824219-.027344-15.972656-7.175781-16-16v-320c.027344-8.824219 7.175781-15.972656 16-16h184l48 48h216c8.824219.027344 15.972656 7.175781 16 16zm0 0"/><path d="m416 296c-13.253906 0-24 10.746094-24 24s10.746094 24 24 24 24-10.746094 24-24c-.039062-13.238281-10.761719-23.960938-24-24zm0 40c-8.835938 0-16-7.164062-16-16s7.164062-16 16-16 16 7.164062 16 16c-.027344 8.824219-7.175781 15.972656-16 16zm0-40c-13.253906 0-24 10.746094-24 24s10.746094 24 24 24 24-10.746094 24-24c-.039062-13.238281-10.761719-23.960938-24-24zm0 40c-8.835938 0-16-7.164062-16-16s7.164062-16 16-16 16 7.164062 16 16c-.027344 8.824219-7.175781 15.972656-16 16zm0-40c-13.253906 0-24 10.746094-24 24s10.746094 24 24 24 24-10.746094 24-24c-.039062-13.238281-10.761719-23.960938-24-24zm0 40c-8.835938 0-16-7.164062-16-16s7.164062-16 16-16 16 7.164062 16 16c-.027344 8.824219-7.175781 15.972656-16 16zm0-40c-13.253906 0-24 10.746094-24 24s10.746094 24 24 24 24-10.746094 24-24c-.039062-13.238281-10.761719-23.960938-24-24zm0 40c-8.835938 0-16-7.164062-16-16s7.164062-16 16-16 16 7.164062 16 16c-.027344 8.824219-7.175781 15.972656-16 16zm0-40c-13.253906 0-24 10.746094-24 24s10.746094 24 24 24 24-10.746094 24-24c-.039062-13.238281-10.761719-23.960938-24-24zm0 40c-8.835938 0-16-7.164062-16-16s7.164062-16 16-16 16 7.164062 16 16c-.027344 8.824219-7.175781 15.972656-16 16zm0-40c-13.253906 0-24 10.746094-24 24s10.746094 24 24 24 24-10.746094 24-24c-.039062-13.238281-10.761719-23.960938-24-24zm0 40c-8.835938 0-16-7.164062-16-16s7.164062-16 16-16 16 7.164062 16 16c-.027344 8.824219-7.175781 15.972656-16 16zm0-40c-13.253906 0-24 10.746094-24 24s10.746094 24 24 24 24-10.746094 24-24c-.039062-13.238281-10.761719-23.960938-24-24zm0 40c-8.835938 0-16-7.164062-16-16s7.164062-16 16-16 16 7.164062 16 16c-.027344 8.824219-7.175781 15.972656-16 16zm0-40c-13.253906 0-24 10.746094-24 24s10.746094 24 24 24 24-10.746094 24-24c-.039062-13.238281-10.761719-23.960938-24-24zm0 40c-8.835938 0-16-7.164062-16-16s7.164062-16 16-16 16 7.164062 16 16c-.027344 8.824219-7.175781 15.972656-16 16zm0-40c-13.253906 0-24 10.746094-24 24s10.746094 24 24 24 24-10.746094 24-24c-.039062-13.238281-10.761719-23.960938-24-24zm0 40c-8.835938 0-16-7.164062-16-16s7.164062-16 16-16 16 7.164062 16 16c-.027344 8.824219-7.175781 15.972656-16 16zm0-40c-13.253906 0-24 10.746094-24 24s10.746094 24 24 24 24-10.746094 24-24c-.039062-13.238281-10.761719-23.960938-24-24zm0 40c-8.835938 0-16-7.164062-16-16s7.164062-16 16-16 16 7.164062 16 16c-.027344 8.824219-7.175781 15.972656-16 16zm72 0v-32h-20.320312c-1.125-4.5-2.902344-8.8125-5.28125-12.800781l14.320312-14.320313-17.597656-17.597656-14.320313 14.320312c-3.988281-2.378906-8.300781-4.15625-12.800781-5.28125v-20.320312h-32v20.320312c-4.5 1.125-8.8125 2.902344-12.800781 5.28125l-14.320313-14.320312-17.597656 17.597656 14.320312 14.320313c-2.378906 3.988281-4.15625 8.300781-5.28125 12.800781h-20.320312v32h20.320312c1.125 4.5 2.902344 8.8125 5.28125 12.800781l-14.320312 14.320313 17.597656 17.597656 14.320313-14.320312c3.988281 2.378906 8.300781 4.15625 12.800781 5.28125v20.320312h32v-20.320312c4.5-1.125 8.8125-2.902344 12.800781-5.28125l14.320313 14.320312 17.597656-17.597656-14.320312-14.320313c2.378906-3.988281 4.15625-8.300781 5.28125-12.800781zm-28-2c-1.027344 3.75-2.53125 7.355469-4.480469 10.71875-1.847656 3.152344-1.355469 7.152344 1.199219 9.761719l5.601562 5.519531 3.121094 3.121094-6.320312 6.320312-8.640625-8.722656c-.242188-.238281-.558594-.480469-.800781-.71875-2.617188-1.949219-6.148438-2.140625-8.960938-.480469-.320312.160157-.558594.320313-.878906.480469-3.113282 1.707031-6.417969 3.050781-9.839844 4-3.519531.890625-5.988281 4.050781-6 7.679688v12.320312h-16v-12.320312c-.011719-3.628907-2.480469-6.789063-6-7.679688-3.421875-.949219-6.726562-2.292969-9.839844-4-.320312-.160156-.558594-.320312-.878906-.480469-2.785156-1.652343-6.292969-1.460937-8.882812.480469-.308594.21875-.601563.460938-.878907.71875l-8.640625 8.722656-6.320312-6.320312 3.121094-3.121094 5.601562-5.519531c2.554688-2.609375 3.046875-6.609375 1.199219-9.761719-1.949219-3.363281-3.453125-6.96875-4.480469-10.71875-.890625-3.519531-4.050781-5.988281-7.679688-6h-12.320312v-16h12.320312c3.628907-.011719 6.789063-2.480469 7.679688-6 1.027344-3.75 2.53125-7.355469 4.480469-10.71875 1.847656-3.152344 1.355469-7.152344-1.199219-9.761719l-8.722656-8.640625 6.320312-6.320312 8.640625 8.722656c2.613281 2.550781 6.609375 3.039062 9.761719 1.199219 3.363281-1.949219 6.96875-3.453125 10.71875-4.480469 3.519531-.890625 5.988281-4.050781 6-7.679688v-12.320312h16v12.320312c.011719 3.628907 2.480469 6.789063 6 7.679688 3.75 1.027344 7.355469 2.53125 10.71875 4.480469 3.152344 1.851562 7.152344 1.359375 9.761719-1.199219l8.640625-8.722656 6.320312 6.320312-8.722656 8.640625c-2.554688 2.609375-3.046875 6.609375-1.199219 9.761719 1.949219 3.363281 3.453125 6.96875 4.480469 10.71875.890625 3.519531 4.050781 5.988281 7.679688 6h12.320312v16h-12.320312c-3.628907.011719-6.789063 2.480469-7.679688 6zm-44-38c-13.253906 0-24 10.746094-24 24s10.746094 24 24 24 24-10.746094 24-24c-.039062-13.238281-10.761719-23.960938-24-24zm0 40c-8.835938 0-16-7.164062-16-16s7.164062-16 16-16 16 7.164062 16 16c-.027344 8.824219-7.175781 15.972656-16 16zm0-40c-13.253906 0-24 10.746094-24 24s10.746094 24 24 24 24-10.746094 24-24c-.039062-13.238281-10.761719-23.960938-24-24zm0 40c-8.835938 0-16-7.164062-16-16s7.164062-16 16-16 16 7.164062 16 16c-.027344 8.824219-7.175781 15.972656-16 16zm0-40c-13.253906 0-24 10.746094-24 24s10.746094 24 24 24 24-10.746094 24-24c-.039062-13.238281-10.761719-23.960938-24-24zm0 40c-8.835938 0-16-7.164062-16-16s7.164062-16 16-16 16 7.164062 16 16c-.027344 8.824219-7.175781 15.972656-16 16zm0-40c-13.253906 0-24 10.746094-24 24s10.746094 24 24 24 24-10.746094 24-24c-.039062-13.238281-10.761719-23.960938-24-24zm0 40c-8.835938 0-16-7.164062-16-16s7.164062-16 16-16 16 7.164062 16 16c-.027344 8.824219-7.175781 15.972656-16 16zm0-40c-13.253906 0-24 10.746094-24 24s10.746094 24 24 24 24-10.746094 24-24c-.039062-13.238281-10.761719-23.960938-24-24zm0 40c-8.835938 0-16-7.164062-16-16s7.164062-16 16-16 16 7.164062 16 16c-.027344 8.824219-7.175781 15.972656-16 16zm0-40c-13.253906 0-24 10.746094-24 24s10.746094 24 24 24 24-10.746094 24-24c-.039062-13.238281-10.761719-23.960938-24-24zm0 40c-8.835938 0-16-7.164062-16-16s7.164062-16 16-16 16 7.164062 16 16c-.027344 8.824219-7.175781 15.972656-16 16zm0-40c-13.253906 0-24 10.746094-24 24s10.746094 24 24 24 24-10.746094 24-24c-.039062-13.238281-10.761719-23.960938-24-24zm0 40c-8.835938 0-16-7.164062-16-16s7.164062-16 16-16 16 7.164062 16 16c-.027344 8.824219-7.175781 15.972656-16 16zm0-40c-13.253906 0-24 10.746094-24 24s10.746094 24 24 24 24-10.746094 24-24c-.039062-13.238281-10.761719-23.960938-24-24zm0 40c-8.835938 0-16-7.164062-16-16s7.164062-16 16-16 16 7.164062 16 16c-.027344 8.824219-7.175781 15.972656-16 16zm0-40c-13.253906 0-24 10.746094-24 24s10.746094 24 24 24 24-10.746094 24-24c-.039062-13.238281-10.761719-23.960938-24-24zm0 40c-8.835938 0-16-7.164062-16-16s7.164062-16 16-16 16 7.164062 16 16c-.027344 8.824219-7.175781 15.972656-16 16zm0-40c-13.253906 0-24 10.746094-24 24s10.746094 24 24 24 24-10.746094 24-24c-.039062-13.238281-10.761719-23.960938-24-24zm0 40c-8.835938 0-16-7.164062-16-16s7.164062-16 16-16 16 7.164062 16 16c-.027344 8.824219-7.175781 15.972656-16 16zm0-40c-13.253906 0-24 10.746094-24 24s10.746094 24 24 24 24-10.746094 24-24c-.039062-13.238281-10.761719-23.960938-24-24zm0 40c-8.835938 0-16-7.164062-16-16s7.164062-16 16-16 16 7.164062 16 16c-.027344 8.824219-7.175781 15.972656-16 16zm0 0"/><path d="m432 320c0 8.835938-7.164062 16-16 16s-16-7.164062-16-16 7.164062-16 16-16 16 7.164062 16 16zm0 0"/></g><path d="m472 48h-212.6875l-45.65625-45.65625c-1.5-1.5-3.535156-2.34375-5.65625-2.34375h-184c-13.253906 0-24 10.746094-24 24v320c0 13.253906 10.746094 24 24 24h288c4.417969 0 8-3.582031 8-8s-3.582031-8-8-8h-288c-4.417969 0-8-3.582031-8-8v-320c0-4.417969 3.582031-8 8-8h180.6875l45.65625 45.65625c1.5 1.5 3.535156 2.34375 5.65625 2.34375h216c4.417969 0 8 3.582031 8 8v152c0 4.417969 3.582031 8 8 8s8-3.582031 8-8v-152c0-13.253906-10.746094-24-24-24zm0 0" fill="#004fac"/><path d="m488 296h-14.480469c-.398437-1.121094-.878906-2.238281-1.359375-3.28125l10.238282-10.238281c3.101562-3.121094 3.101562-8.160157 0-11.28125l-17.597657-17.597657c-3.121093-3.101562-8.160156-3.101562-11.28125 0l-10.238281 10.238282c-1.042969-.480469-2.160156-.960938-3.28125-1.359375v-14.480469c0-4.417969-3.582031-8-8-8h-32c-4.417969 0-8 3.582031-8 8v14.480469c-1.121094.398437-2.238281.878906-3.28125 1.359375l-10.238281-10.238282c-3.121094-3.101562-8.160157-3.101562-11.28125 0l-17.597657 17.597657c-3.101562 3.121093-3.101562 8.160156 0 11.28125l10.238282 10.238281c-.480469 1.042969-.960938 2.160156-1.359375 3.28125h-14.480469c-4.417969 0-8 3.582031-8 8v32c0 4.417969 3.582031 8 8 8h14.480469c.398437 1.121094.878906 2.238281 1.359375 3.28125l-10.238282 10.238281c-.703124.722657-1.273437 1.5625-1.679687 2.480469-1.316406 3-.648437 6.496094 1.679687 8.800781l17.597657 17.597657c3.121093 3.101562 8.160156 3.101562 11.28125 0l10.238281-10.238282c1.042969.480469 2.160156.960938 3.28125 1.359375v14.480469c0 4.417969 3.582031 8 8 8h32c4.417969 0 8-3.582031 8-8v-14.480469c1.121094-.398437 2.238281-.878906 3.28125-1.359375l10.238281 10.238282c3.121094 3.101562 8.160157 3.101562 11.28125 0l17.597657-17.597657c3.101562-3.121093 3.101562-8.160156 0-11.28125l-.796876-.800781-9.441406-9.4375c.480469-1.042969.960938-2.160156 1.359375-3.28125h14.480469c4.417969 0 8-3.582031 8-8v-32c0-4.417969-3.582031-8-8-8zm-8 32h-12.320312c-3.628907.011719-6.789063 2.480469-7.679688 6-1.027344 3.75-2.53125 7.355469-4.480469 10.71875-1.847656 3.152344-1.355469 7.152344 1.199219 9.761719l5.601562 5.519531 3.121094 3.121094-6.320312 6.320312-8.640625-8.722656c-.242188-.238281-.558594-.480469-.800781-.71875-2.617188-1.949219-6.148438-2.140625-8.960938-.480469-.320312.160157-.558594.320313-.878906.480469-3.113282 1.707031-6.417969 3.050781-9.839844 4-3.519531.890625-5.988281 4.050781-6 7.679688v12.320312h-16v-12.320312c-.011719-3.628907-2.480469-6.789063-6-7.679688-3.421875-.949219-6.726562-2.292969-9.839844-4-.320312-.160156-.558594-.320312-.878906-.480469-2.785156-1.652343-6.292969-1.460937-8.882812.480469-.308594.21875-.601563.460938-.878907.71875l-8.640625 8.722656-6.320312-6.320312 3.121094-3.121094 5.601562-5.519531c2.554688-2.609375 3.046875-6.609375 1.199219-9.761719-1.949219-3.363281-3.453125-6.96875-4.480469-10.71875-.890625-3.519531-4.050781-5.988281-7.679688-6h-12.320312v-16h12.320312c3.628907-.011719 6.789063-2.480469 7.679688-6 1.027344-3.75 2.53125-7.355469 4.480469-10.71875 1.847656-3.152344 1.355469-7.152344-1.199219-9.761719l-8.722656-8.640625 6.320312-6.320312 8.640625 8.722656c2.613281 2.550781 6.609375 3.039062 9.761719 1.199219 3.363281-1.949219 6.96875-3.453125 10.71875-4.480469 3.519531-.890625 5.988281-4.050781 6-7.679688v-12.320312h16v12.320312c.011719 3.628907 2.480469 6.789063 6 7.679688 3.75 1.027344 7.355469 2.53125 10.71875 4.480469 3.152344 1.851562 7.152344 1.359375 9.761719-1.199219l8.640625-8.722656 6.320312 6.320312-8.722656 8.640625c-2.554688 2.609375-3.046875 6.609375-1.199219 9.761719 1.949219 3.363281 3.453125 6.96875 4.480469 10.71875.890625 3.519531 4.050781 5.988281 7.679688 6h12.320312zm0 0" fill="#004fac"/><path d="m416 296c-13.253906 0-24 10.746094-24 24s10.746094 24 24 24 24-10.746094 24-24c-.039062-13.238281-10.761719-23.960938-24-24zm0 32c-4.417969 0-8-3.582031-8-8s3.582031-8 8-8 8 3.582031 8 8-3.582031 8-8 8zm0 0" fill="#004fac"/></svg>