<svg height="497pt" viewBox="0 -64 497.84074 497" width="497pt" xmlns="http://www.w3.org/2000/svg"><path d="m472 56.421875h-216l-48-48h-184c-8.824219.023437-15.972656 7.171875-16 16v320c.027344 8.824219 7.175781 15.972656 16 16h448c8.824219-.027344 15.972656-7.175781 16-16v-272c-.027344-8.828125-7.175781-15.976563-16-16zm-35.359375 251.597656 9.757813 30.320313-25.679688-18.71875c-2.820312-2.027344-6.617188-2.027344-9.4375 0l-25.679688 18.71875 9.757813-30.320313c1.109375-3.269531-.0625-6.878906-2.878906-8.878906l-25.761719-18.71875h31.839844c3.460937-.003906 6.527344-2.230469 7.601562-5.523437l9.839844-30.238282 9.839844 30.238282c1.074218 3.292968 4.140625 5.519531 7.601562 5.523437h31.839844l-25.761719 18.71875c-2.816406 2-3.988281 5.609375-2.878906 8.878906zm0 0" fill="#57a4ff"/><path d="m489.839844 272.421875h-56.398438l-17.441406-53.679687-17.441406 53.679687h-56.398438l45.601563 33.199219-17.441407 53.597656 45.679688-33.117188 45.679688 33.117188-17.441407-53.597656 43.761719-31.839844zm-50.320313 26.71875c-2.816406 2-3.988281 5.609375-2.878906 8.878906l9.757813 30.320313-25.679688-18.71875c-2.820312-2.027344-6.617188-2.027344-9.4375 0l-25.679688 18.71875 9.757813-30.320313c1.109375-3.269531-.0625-6.878906-2.878906-8.878906l-25.761719-18.71875h31.839844c3.460937-.003906 6.527344-2.230469 7.601562-5.523437l9.839844-30.238282 9.839844 30.238282c1.074218 3.292968 4.140625 5.519531 7.601562 5.523437h31.839844zm0 0" fill="#57a4ff"/><g fill="#004fac"><path d="m336 352.421875h-312c-4.417969 0-8-3.582031-8-8v-320c0-4.417969 3.582031-8 8-8h180.6875l45.65625 45.65625c1.5 1.5 3.535156 2.339844 5.65625 2.34375h216c4.417969 0 8 3.582031 8 8v152c0 4.417969 3.582031 8 8 8s8-3.582031 8-8v-152c0-13.257813-10.746094-24-24-24h-212.6875l-45.65625-45.65625c-1.5-1.5-3.535156-2.34375-5.65625-2.34375h-184c-13.253906 0-24 10.742187-24 24v320c0 13.253906 10.746094 24 24 24h312c4.417969 0 8-3.582031 8-8s-3.582031-8-8-8zm0 0"/><path d="m497.441406 269.941406c-1.054687-3.304687-4.132812-5.542968-7.601562-5.519531h-50.558594l-15.679688-48.160156c-1.082031-3.285157-4.144531-5.503907-7.601562-5.503907s-6.519531 2.21875-7.601562 5.503907l-15.679688 48.160156h-50.558594c-3.472656-.015625-6.558594 2.214844-7.636718 5.519531-1.074219 3.300782.101562 6.921875 2.917968 8.957032l40.957032 29.761718-15.679688 48.160156c-.394531 1.15625-.480469 2.398438-.238281 3.601563.253906 2.136719 1.421875 4.0625 3.199219 5.277344 2.773437 2.082031 6.585937 2.082031 9.359374 0l7.28125-5.277344 33.679688-24.480469 33.679688 24.480469 7.28125 5.277344c2.792968 2.015625 6.566406 2.015625 9.359374 0 1.777344-1.214844 2.945313-3.140625 3.199219-5.277344.242188-1.203125.15625-2.445313-.238281-3.601563l-15.679688-48.160156 34.398438-24.960937 6.558594-4.800781c2.800781-2.042969 3.964844-5.664063 2.882812-8.957032zm-57.921875 29.199219c-2.816406 2-3.988281 5.609375-2.878906 8.878906l9.757813 30.320313-25.679688-18.71875c-2.820312-2.027344-6.617188-2.027344-9.4375 0l-25.679688 18.71875 9.757813-30.320313c1.109375-3.269531-.0625-6.878906-2.878906-8.878906l-25.761719-18.71875h31.839844c3.460937-.003906 6.527344-2.230469 7.601562-5.523437l9.839844-30.238282 9.839844 30.238282c1.074218 3.292968 4.140625 5.519531 7.601562 5.523437h31.839844zm0 0"/></g></svg>