<svg id="Capa_1" enable-background="new 0 0 511 511" height="512" viewBox="0 0 511 511" width="512" xmlns="http://www.w3.org/2000/svg" xmlns:xlink="http://www.w3.org/1999/xlink"><linearGradient id="SVGID_1_" gradientUnits="userSpaceOnUse" x1="255.5" x2="255.5" y1="166.5" y2="336.5"><stop offset=".00000036422" stop-color="#a8abff"/><stop offset="1" stop-color="#fac8ff"/></linearGradient><linearGradient id="lg1"><stop offset=".00000083866" stop-color="#96d1f3"/><stop offset="1" stop-color="#ccfff4"/></linearGradient><linearGradient id="SVGID_2_" gradientUnits="userSpaceOnUse" x1="57.5" x2="57.5" xlink:href="#lg1" y1="47.5" y2="147.5"/><linearGradient id="SVGID_3_" gradientUnits="userSpaceOnUse" x1="57.5" x2="57.5" xlink:href="#lg1" y1="363.5" y2="463.5"/><linearGradient id="SVGID_4_" gradientUnits="userSpaceOnUse" x1="453.5" x2="453.5" xlink:href="#lg1" y1="47.5" y2="147.5"/><linearGradient id="SVGID_5_" gradientUnits="userSpaceOnUse" x1="453.5" x2="453.5" xlink:href="#lg1" y1="363.5" y2="463.5"/><linearGradient id="SVGID_6_" gradientUnits="userSpaceOnUse" x1="255.5" x2="255.5" xlink:href="#lg1" y1="7.5" y2="107.5"/><linearGradient id="SVGID_7_" gradientUnits="userSpaceOnUse" x1="255.5" x2="255.5" xlink:href="#lg1" y1="403.5" y2="503.5"/><linearGradient id="SVGID_8_" gradientUnits="userSpaceOnUse" x1="255.5" x2="255.5" y1="0" y2="511"><stop offset=".00000011981" stop-color="#174fa3"/><stop offset="1" stop-color="#b044af"/></linearGradient><g><g><path d="m305.5 196.5v-30h-100v60h-90v110h90 100 90v-140z" fill="url(#SVGID_1_)"/><circle cx="57.5" cy="97.5" fill="url(#SVGID_2_)" r="50"/><circle cx="57.5" cy="413.5" fill="url(#SVGID_3_)" r="50"/><circle cx="453.5" cy="97.5" fill="url(#SVGID_4_)" r="50"/><circle cx="453.5" cy="413.5" fill="url(#SVGID_5_)" r="50"/><circle cx="255.5" cy="57.5" fill="url(#SVGID_6_)" r="50"/><circle cx="255.5" cy="453.5" fill="url(#SVGID_7_)" r="50"/></g><path d="m233 199h15v15h-15zm30 15h15v-15h-15zm0 30h15v-15h-15zm-30 0h15v-15h-15zm30 30h15v-15h-15zm-30 0h15v-15h-15zm0 30h15v-15h-15zm30 0h15v-15h-15zm-110-45h-15v15h15zm30 0h-15v15h15zm-30 30h-15v15h15zm30 0h-15v15h15zm175-15h15v-15h-15zm-30 0h15v-15h-15zm30-30h15v-15h-15zm-30 0h15v-15h-15zm0 60h15v-15h-15zm30 0h15v-15h-15zm153 109.5c0 31.706-25.794 57.5-57.5 57.5-28.033 0-51.431-20.169-56.478-46.756l-84.263 34.393c-2.609 29.307-27.285 52.363-57.259 52.363-29.973 0-54.65-23.056-57.259-52.363l-84.263-34.393c-5.047 26.587-28.445 46.756-56.478 46.756-31.706 0-57.5-25.794-57.5-57.5s25.794-57.5 57.5-57.5c29.973 0 54.65 23.056 57.259 52.363l84.263 34.393c4.59-24.175 24.354-43.027 48.978-46.251v-52.505h-157.5v-15h17.5v-110h90v-60h50v-44.505c-24.624-3.224-44.388-22.076-48.978-46.251l-84.263 34.393c-2.609 29.307-27.286 52.363-57.259 52.363-31.706 0-57.5-25.794-57.5-57.5s25.794-57.5 57.5-57.5c28.033 0 51.431 20.169 56.478 46.756l84.263-34.393c2.609-29.307 27.286-52.363 57.259-52.363 29.974 0 54.65 23.056 57.259 52.363l84.263 34.393c5.047-26.587 28.445-46.756 56.478-46.756 31.706 0 57.5 25.794 57.5 57.5s-25.794 57.5-57.5 57.5c-29.974 0-54.65-23.056-57.259-52.363l-84.263-34.393c-4.59 24.175-24.354 43.027-48.978 46.251v44.505h50v30h90v140h17.5v15h-157.5v52.505c24.625 3.224 44.389 22.076 48.978 46.251l84.263-34.393c2.609-29.307 27.285-52.363 57.259-52.363 31.706 0 57.5 25.794 57.5 57.5zm-100-316c0 23.435 19.065 42.5 42.5 42.5s42.5-19.065 42.5-42.5-19.065-42.5-42.5-42.5-42.5 19.065-42.5 42.5zm-311 0c0-23.435-19.065-42.5-42.5-42.5s-42.5 19.065-42.5 42.5 19.065 42.5 42.5 42.5 42.5-19.065 42.5-42.5zm98 136.5h-75v95h75zm-98 179.5c0-23.435-19.065-42.5-42.5-42.5s-42.5 19.065-42.5 42.5 19.065 42.5 42.5 42.5 42.5-19.065 42.5-42.5zm213-84.5h75v-125h-75zm-57.5-229c23.435 0 42.5-19.065 42.5-42.5s-19.065-42.5-42.5-42.5-42.5 19.065-42.5 42.5 19.065 42.5 42.5 42.5zm42.5 229v-155h-85v155zm0 124.5c0-23.435-19.065-42.5-42.5-42.5s-42.5 19.065-42.5 42.5 19.065 42.5 42.5 42.5 42.5-19.065 42.5-42.5zm198-40c0-23.435-19.065-42.5-42.5-42.5s-42.5 19.065-42.5 42.5 19.065 42.5 42.5 42.5 42.5-19.065 42.5-42.5z" fill="url(#SVGID_8_)"/></g></svg>