<svg id="Capa_1" enable-background="new 0 0 511 511" height="512" viewBox="0 0 511 511" width="512" xmlns="http://www.w3.org/2000/svg" xmlns:xlink="http://www.w3.org/1999/xlink"><linearGradient id="SVGID_1_" gradientUnits="userSpaceOnUse" x1="131.5" x2="131.5" y1="75.5" y2="375.5"><stop offset=".00000036422" stop-color="#a8abff"/><stop offset="1" stop-color="#fac8ff"/></linearGradient><linearGradient id="SVGID_2_" gradientUnits="userSpaceOnUse" x1="349.5" x2="349.5" y1="135.5" y2="435.5"><stop offset=".00000083866" stop-color="#96d1f3"/><stop offset="1" stop-color="#ccfff4"/></linearGradient><linearGradient id="SVGID_3_" gradientUnits="userSpaceOnUse" x1="255.5" x2="255.5" y1="64.5" y2="446.5"><stop offset=".00000011981" stop-color="#174fa3"/><stop offset="1" stop-color="#b044af"/></linearGradient><g><path d="m245.5 301.5c-27.614 0-50-22.386-50-50s22.386-50 50-50c3.425 0 6.769.346 10 1.002v-67.002h-75.002c.656-3.231 1.002-6.575 1.002-10 0-27.614-22.386-50-50-50s-50 22.386-50 50c0 3.425.346 6.769 1.002 10h-75.002v240h75.002c-.656-3.231-1.002-6.575-1.002-10 0-27.614 22.386-50 50-50s50 22.386 50 50c0 3.425-.346 6.769-1.002 10h75.002v-75.002c-3.231.656-6.575 1.002-10 1.002z" fill="url(#SVGID_1_)"/><path d="m503.5 135.5h-75.002c.656 3.231 1.002 6.575 1.002 10 0 27.614-22.386 50-50 50s-50-22.386-50-50c0-3.425.346-6.769 1.002-10h-75.002v67.002c-3.231-.656-6.575-1.002-10-1.002-27.614 0-50 22.386-50 50s22.386 50 50 50c3.425 0 6.769-.346 10-1.002v75.002h75.002c-.656 3.231-1.002 6.575-1.002 10 0 27.614 22.386 50 50 50s50-22.386 50-50c0-3.425-.346-6.769-1.002-10h75.002z" fill="url(#SVGID_2_)"/><path d="m511 128h-91.678l1.826 8.992c5.38 26.488-14.963 51.008-41.648 51.008-26.705 0-47.023-24.543-41.648-51.008l1.826-8.992c-23.568 0-129.618 0-150.731 0 1.417-32.657-24.758-60-57.446-60-32.676 0-58.863 27.328-57.446 60h-74.055v255h91.678c-1.319-7.208-2.678-10.991-2.678-17.5 0-23.435 19.065-42.5 42.5-42.5s42.5 19.065 42.5 42.5c0 6.495-1.342 10.199-2.678 17.5h150.731c-1.417 32.657 24.758 60 57.446 60 32.676 0 58.863-27.328 57.446-60h74.055zm-322.054 240c1.417-32.657-24.758-60-57.446-60-32.676 0-58.863 27.328-57.446 60h-59.054v-225h76.678l-1.826-8.992c-5.38-26.488 14.963-51.008 41.648-51.008 26.705 0 47.023 24.543 41.648 51.008l-1.826 8.992h76.678v51.054c-32.657-1.417-60 24.758-60 57.446 0 31.706 25.794 57.5 57.5 57.5.833 0 1.667-.018 2.5-.054v59.054zm307.054 0h-76.678c1.319 7.208 2.678 10.991 2.678 17.5 0 23.435-19.065 42.5-42.5 42.5s-42.5-19.065-42.5-42.5c0-6.495 1.342-10.199 2.678-17.5h-76.678v-76.678c-7.208 1.319-10.991 2.678-17.5 2.678-23.435 0-42.5-19.065-42.5-42.5 0-26.705 24.543-47.023 51.008-41.648l8.992 1.826v-68.678h59.054c-1.417 32.657 24.758 60 57.446 60 32.676 0 58.863-27.328 57.446-60h59.054zm-84-62.5c0 12.958-10.542 23.5-23.5 23.5h-1.5v14.5h-15v-14.5h-17.5v-15h34c11.25 0 11.235-17 0-17h-18c-12.958 0-23.5-10.542-23.5-23.5s10.542-23.5 23.5-23.5h1.5v-14.5h15v14.5h17.5v15h-34c-4.687 0-8.5 3.813-8.5 8.5s3.813 8.5 8.5 8.5h18c12.958 0 23.5 10.542 23.5 23.5zm-248-68c0 12.958-10.542 23.5-23.5 23.5h-1.5v14.5h-15v-14.5h-17.5v-15h34c11.25 0 11.235-17 0-17h-18c-12.958 0-23.5-10.542-23.5-23.5s10.542-23.5 23.5-23.5h1.5v-14.5h15v14.5h17.5v15h-34c-11.25 0-11.235 17 0 17h18c12.958 0 23.5 10.542 23.5 23.5zm99-143h-15v-30h15zm-38.804 15.304-20-20 10.607-10.607 20 20zm62.608 0-10.607-10.607 20-20 10.607 10.607zm-38.804 306.696h15v30h-15zm-23.804-15.304 10.607 10.607-20 20-10.607-10.607zm62.608 0 20 20-10.607 10.607-20-20z" fill="url(#SVGID_3_)"/></g></svg>