<svg id="Capa_1" enable-background="new 0 0 512 512" height="512" viewBox="0 0 512 512" width="512" xmlns="http://www.w3.org/2000/svg" xmlns:xlink="http://www.w3.org/1999/xlink"><linearGradient id="SVGID_1_" gradientUnits="userSpaceOnUse" x1="256" x2="256" y1="91" y2="421"><stop offset=".00000083866" stop-color="#96d1f3"/><stop offset="1" stop-color="#ccfff4"/></linearGradient><linearGradient id="lg1"><stop offset=".00000036422" stop-color="#a8abff"/><stop offset="1" stop-color="#fac8ff"/></linearGradient><linearGradient id="SVGID_2_" gradientUnits="userSpaceOnUse" x1="81.5" x2="81.5" xlink:href="#lg1" y1="32.5" y2="132.5"/><linearGradient id="SVGID_3_" gradientUnits="userSpaceOnUse" x1="431.5" x2="431.5" xlink:href="#lg1" y1="32.5" y2="132.5"/><linearGradient id="SVGID_4_" gradientUnits="userSpaceOnUse" x1="81.5" x2="81.5" xlink:href="#lg1" y1="380.5" y2="480.5"/><linearGradient id="SVGID_5_" gradientUnits="userSpaceOnUse" x1="431.5" x2="431.5" xlink:href="#lg1" y1="380.5" y2="480.5"/><linearGradient id="SVGID_6_" gradientUnits="userSpaceOnUse" x1="256" x2="256" y1="0" y2="512"><stop offset=".00000011981" stop-color="#174fa3"/><stop offset="1" stop-color="#b044af"/></linearGradient><g><g><circle cx="256" cy="256" fill="url(#SVGID_1_)" r="165"/><circle cx="81.5" cy="82.5" fill="url(#SVGID_2_)" r="50"/><circle cx="431.5" cy="82.5" fill="url(#SVGID_3_)" r="50"/><circle cx="81.5" cy="430.5" fill="url(#SVGID_4_)" r="50"/><circle cx="431.5" cy="430.5" fill="url(#SVGID_5_)" r="50"/><g fill="#fff"><circle cx="81.5" cy="82.5" r="15"/><circle cx="81.5" cy="430.5" r="15"/><circle cx="431.5" cy="82.5" r="15"/><circle cx="431.5" cy="430.5" r="15"/></g></g><path d="m148.15 40.335-6.721-13.41c4.589-2.3 9.307-4.487 14.022-6.5l5.889 13.796c-4.435 1.893-8.872 3.95-13.19 6.114zm221.906-13.669c-4.597-2.291-9.319-4.466-14.038-6.467l-5.856 13.81c4.438 1.882 8.88 3.929 13.205 6.083zm-114.056-11.666c27.715 0 54.836 4.623 80.609 13.741l5.003-14.141c-27.384-9.688-56.188-14.6-85.612-14.6-.001 0-.002 0-.004 0-29.621 0-58.606 4.978-86.151 14.794l5.036 14.13c25.925-9.24 53.217-13.924 81.119-13.924zm-113.994 470.363c4.595 2.289 9.318 4.464 14.04 6.465l5.854-13.811c-4.44-1.882-8.883-3.928-13.206-6.081zm113.994 11.637c-27.697 0-54.797-4.615-80.548-13.719l-5 14.143c27.361 9.672 56.144 14.576 85.548 14.576 29.645 0 58.653-4.985 86.219-14.817l-5.039-14.128c-25.944 9.253-53.257 13.945-81.18 13.945zm94.718-19.246 5.893 13.794c4.717-2.015 9.434-4.203 14.021-6.503l-6.724-13.408c-4.315 2.163-8.753 4.221-13.19 6.117zm-310.655-114.448c-1.936-3.887-3.789-7.879-5.508-11.867l-13.774 5.939c1.828 4.239 3.798 8.483 5.856 12.615zm-25.063-107.306c0-27.433 4.53-54.284 13.462-79.805l-14.158-4.955c-9.491 27.118-14.304 55.635-14.304 84.76 0 29.938 5.08 59.211 15.098 87.005l14.111-5.086c-9.428-26.158-14.209-53.72-14.209-81.919zm24.723-106.596-13.446-6.648c-2.274 4.599-4.435 9.329-6.423 14.059l13.828 5.812c1.87-4.448 3.902-8.898 6.041-13.223zm432.824.531c2.126 4.332 4.146 8.787 6.003 13.241l13.845-5.773c-1.975-4.735-4.122-9.471-6.382-14.077zm25.359 21.906-14.171 4.918c8.802 25.363 13.265 52.023 13.265 79.241 0 28.411-4.849 56.161-14.413 82.481l14.099 5.123c10.162-27.967 15.314-57.441 15.314-87.604 0-28.896-4.743-57.211-14.094-84.159zm-25.708 190.932 13.443 6.654c1.863-3.764 3.654-7.622 5.324-11.465l-13.759-5.976c-1.569 3.616-3.254 7.245-5.008 10.787zm-43.698-106.773c0 95.117-77.383 172.5-172.5 172.5s-172.5-77.383-172.5-172.5 77.383-172.5 172.5-172.5 172.5 77.383 172.5 172.5zm-278.436-116.45c7.674 6.992 15.926 13.145 24.644 18.418 3.076-7.854 6.54-15.303 10.378-22.262 6.373-11.556 13.527-21.329 21.272-29.183-21.087 7.021-40.209 18.381-56.294 33.027zm-51.381 108.95h58.912c.648-27.03 4.789-52.967 12.041-76.104-10.736-6.231-20.852-13.661-30.181-22.23-23.863 26.254-38.993 60.577-40.772 98.334zm43.828 116.593c8.953-7.833 18.6-14.654 28.79-20.409-8.279-24.393-13.01-52.156-13.706-81.183h-58.912c1.854 39.341 18.208 74.95 43.828 101.592zm63.847 40.384c-7.745-7.854-14.898-17.627-21.272-29.183-3.038-5.508-5.836-11.327-8.399-17.406-8.17 4.772-15.944 10.304-23.227 16.561 15.356 13.2 33.275 23.495 52.898 30.028zm42.142-67.8c-20.44.959-40.237 5.837-58.472 14.254 2.486 6.001 5.217 11.725 8.193 17.12 13.955 25.303 31.582 40.562 50.279 43.794zm0-74.177h-75.903c.667 26.597 4.873 51.974 12.208 74.317 19.89-9.017 41.452-14.196 63.695-15.149zm0-68.169c-22.922-.974-45.036-6.403-65.347-15.876-6.313 21.031-9.942 44.517-10.557 69.045h75.904zm0-96.176c-18.697 3.232-36.324 18.492-50.279 43.794-3.805 6.899-7.213 14.334-10.213 22.204 18.756 8.989 39.238 14.179 60.492 15.168zm57.142 7.368c7.745 7.854 14.898 17.627 21.272 29.183 3.838 6.959 7.302 14.408 10.378 22.262 8.718-5.273 16.97-11.427 24.644-18.418-16.085-14.646-35.207-26.006-56.294-33.027zm-42.142 73.799c21.254-.989 41.736-6.179 60.492-15.168-3-7.87-6.408-15.305-10.213-22.204-13.955-25.303-31.582-40.562-50.279-43.794zm0 68.178h75.903c-.615-24.528-4.243-48.014-10.557-69.045-20.311 9.473-42.425 14.902-65.347 15.876v53.169zm0 74.168c22.243.953 43.805 6.132 63.695 15.149 7.335-22.344 11.542-47.72 12.208-74.317h-75.903zm50.279 46.383c2.975-5.395 5.707-11.119 8.193-17.12-18.235-8.417-38.032-13.295-58.472-14.254v75.168c18.697-3.232 36.324-18.491 50.279-43.794zm44.76 6.398c-7.282-6.257-15.057-11.788-23.227-16.561-2.563 6.079-5.361 11.898-8.399 17.406-6.373 11.556-13.527 21.329-21.272 29.183 19.624-6.533 37.543-16.828 52.898-30.028zm54.778-111.949h-58.912c-.696 29.028-5.427 56.79-13.706 81.183 10.19 5.755 19.837 12.576 28.79 20.409 25.62-26.641 41.974-62.25 43.828-101.592zm0-15c-1.779-37.757-16.91-72.08-40.773-98.334-9.328 8.568-19.445 15.999-30.181 22.23 7.252 23.137 11.393 49.074 12.041 76.104zm-389.317-166c0-31.706 25.794-57.5 57.5-57.5s57.5 25.794 57.5 57.5-25.794 57.5-57.5 57.5-57.5-25.794-57.5-57.5zm15 0c0 23.435 19.065 42.5 42.5 42.5s42.5-19.065 42.5-42.5-19.065-42.5-42.5-42.5-42.5 19.065-42.5 42.5zm335 0c0-31.706 25.794-57.5 57.5-57.5s57.5 25.794 57.5 57.5-25.794 57.5-57.5 57.5-57.5-25.794-57.5-57.5zm15 0c0 23.435 19.065 42.5 42.5 42.5s42.5-19.065 42.5-42.5-19.065-42.5-42.5-42.5-42.5 19.065-42.5 42.5zm-250 348c0 31.706-25.794 57.5-57.5 57.5s-57.5-25.794-57.5-57.5 25.794-57.5 57.5-57.5 57.5 25.794 57.5 57.5zm-15 0c0-23.435-19.065-42.5-42.5-42.5s-42.5 19.065-42.5 42.5 19.065 42.5 42.5 42.5 42.5-19.065 42.5-42.5zm365 0c0 31.706-25.794 57.5-57.5 57.5s-57.5-25.794-57.5-57.5 25.794-57.5 57.5-57.5 57.5 25.794 57.5 57.5zm-15 0c0-23.435-19.065-42.5-42.5-42.5s-42.5 19.065-42.5 42.5 19.065 42.5 42.5 42.5 42.5-19.065 42.5-42.5zm-415-348c0-12.407 10.093-22.5 22.5-22.5s22.5 10.093 22.5 22.5-10.093 22.5-22.5 22.5-22.5-10.093-22.5-22.5zm15 0c0 4.136 3.364 7.5 7.5 7.5s7.5-3.364 7.5-7.5-3.364-7.5-7.5-7.5-7.5 3.364-7.5 7.5zm30 348c0 12.407-10.093 22.5-22.5 22.5s-22.5-10.093-22.5-22.5 10.093-22.5 22.5-22.5 22.5 10.093 22.5 22.5zm-15 0c0-4.136-3.364-7.5-7.5-7.5s-7.5 3.364-7.5 7.5 3.364 7.5 7.5 7.5 7.5-3.364 7.5-7.5zm320-348c0-12.407 10.093-22.5 22.5-22.5s22.5 10.093 22.5 22.5-10.093 22.5-22.5 22.5-22.5-10.093-22.5-22.5zm15 0c0 4.136 3.364 7.5 7.5 7.5s7.5-3.364 7.5-7.5-3.364-7.5-7.5-7.5-7.5 3.364-7.5 7.5zm30 348c0 12.407-10.093 22.5-22.5 22.5s-22.5-10.093-22.5-22.5 10.093-22.5 22.5-22.5 22.5 10.093 22.5 22.5zm-15 0c0-4.136-3.364-7.5-7.5-7.5s-7.5 3.364-7.5 7.5 3.364 7.5 7.5 7.5 7.5-3.364 7.5-7.5z" fill="url(#SVGID_6_)"/></g></svg>