<svg id="Capa_1" enable-background="new 0 0 512 512" height="512" viewBox="0 0 512 512" width="512" xmlns="http://www.w3.org/2000/svg" xmlns:xlink="http://www.w3.org/1999/xlink"><linearGradient id="lg1"><stop offset=".00000036422" stop-color="#a8abff"/><stop offset="1" stop-color="#fac8ff"/></linearGradient><linearGradient id="SVGID_1_" gradientUnits="userSpaceOnUse" x1="169.5" x2="169.5" xlink:href="#lg1" y1="73.5" y2="302.5"/><linearGradient id="lg2"><stop offset=".00000083866" stop-color="#96d1f3"/><stop offset="1" stop-color="#ccfff4"/></linearGradient><linearGradient id="SVGID_2_" gradientUnits="userSpaceOnUse" x1="169" x2="169" xlink:href="#lg2" y1="102.5" y2="275.5"/><linearGradient id="SVGID_3_" gradientUnits="userSpaceOnUse" x1="417.5" x2="417.5" xlink:href="#lg2" y1="196.5" y2="269.5"/><linearGradient id="SVGID_4_" gradientUnits="userSpaceOnUse" x1="110.5" x2="110.5" xlink:href="#lg2" y1="332.5" y2="438.5"/><linearGradient id="SVGID_5_" gradientUnits="userSpaceOnUse" x1="418" x2="418" xlink:href="#lg1" y1="196.5" y2="383.5"/><linearGradient id="SVGID_6_" gradientUnits="userSpaceOnUse" x1="417.5" x2="417.5" xlink:href="#lg2" y1="332.5" y2="438.5"/><linearGradient id="SVGID_7_" gradientUnits="userSpaceOnUse" x1="256" x2="256" y1="66" y2="446"><stop offset=".00000011981" stop-color="#174fa3"/><stop offset="1" stop-color="#b044af"/></linearGradient><g><g><path d="m7.5 302h324v81.5h-324z" fill="#fff"/><path d="m331.5 98.5c0-13.807-11.193-25-25-25h-274c-13.807 0-25 11.193-25 25v204h324z" fill="url(#SVGID_1_)"/><circle cx="169" cy="189" fill="url(#SVGID_2_)" r="86.5"/><path d="m467.5 269.5-36-73h-64v73z" fill="url(#SVGID_3_)"/><path d="m110.5 332.5c-29.271 0-53 23.729-53 53s23.729 53 53 53 53-23.729 53-53-23.729-53-53-53z" fill="url(#SVGID_4_)"/><path d="m467.5 269.5h-100v-73h-36v187h33.051c1.053-28.343 24.349-51 52.949-51s51.896 22.657 52.949 51h34.051v-77c0-20.435-16.565-37-37-37z" fill="url(#SVGID_5_)"/><path d="m417.5 332.5c-29.271 0-53 23.729-53 53s23.729 53 53 53 53-23.729 53-53-23.729-53-53-53z" fill="url(#SVGID_6_)"/><g fill="#fff"><circle cx="110.5" cy="385.5" r="15"/><circle cx="417.5" cy="385.5" r="15"/></g></g><path d="m472.29 262.256-36.126-73.256h-97.164v-90.5c0-17.92-14.579-32.5-32.5-32.5h-274c-17.92 0-32.5 14.58-32.5 32.5v292.5h50.261c2.789 30.791 28.734 55 60.239 55s57.449-24.209 60.239-55h186.523c2.789 30.791 28.734 55 60.239 55s57.449-24.209 60.239-55h34.26v-84.5c0-22.92-17.416-41.848-39.71-44.244zm-361.79 168.744c-25.089 0-45.5-20.411-45.5-45.5s20.411-45.5 45.5-45.5 45.5 20.411 45.5 45.5-20.411 45.5-45.5 45.5zm213.5-55h-16v-41.5h-15v41.5h-19.333v-41.5h-15v41.5h-19.333v-41.5h-15v41.5h-19.334v-41.5h-15v41.5h-19.752c-4.572-28.862-29.62-51-59.748-51s-55.176 22.138-59.748 51h-35.752v-31.5h29.5v-15h-29.5v-19.5h309zm0-81h-309v-196.5c0-9.649 7.851-17.5 17.5-17.5h274c9.649 0 17.5 7.851 17.5 17.5zm51-91h51.836l28.603 58h-80.439zm42.5 227c-25.089 0-45.5-20.411-45.5-45.5s20.411-45.5 45.5-45.5 45.5 20.411 45.5 45.5-20.411 45.5-45.5 45.5zm79.5-55h-19.752c-4.572-28.862-29.621-51-59.748-51s-55.176 22.138-59.748 51h-18.752v-172h21v73h102.836 4.664c16.267 0 29.5 13.233 29.5 29.5zm-328-281c-51.832 0-94 42.168-94 94s42.168 94 94 94 94-42.168 94-94-42.168-94-94-94zm-37.533 24.501c-2.044 3.193-3.94 6.651-5.675 10.345-1.664-1.09-3.289-2.246-4.875-3.466 3.322-2.557 6.842-4.868 10.55-6.879zm-21.63 17.229c3.331 2.704 6.821 5.16 10.449 7.364-3.511 11.222-5.725 23.87-6.325 37.406h-23.596c1.617-17.083 8.699-32.591 19.472-44.77zm-19.472 59.77h23.595c.553 12.466 2.477 24.177 5.519 34.717-3.919 2.439-7.675 5.179-11.24 8.21-9.878-11.883-16.337-26.698-17.874-42.927zm28.55 53.546c1.865-1.535 3.795-2.968 5.775-4.315 2.023 4.614 4.292 8.885 6.777 12.768-4.459-2.418-8.66-5.254-12.552-8.453zm42.585 16.491c-9.352-3.633-17.662-13.873-23.566-28.054 7.441-3.183 15.368-5.211 23.566-5.978zm0-49.091c-9.841.772-19.375 3.056-28.329 6.745-2.225-8.521-3.687-17.872-4.183-27.691h32.512zm0-35.946h-32.512c.552-10.926 2.296-21.276 4.962-30.542 8.739 3.51 18.014 5.675 27.55 6.428zm0-39.148c-7.757-.731-15.29-2.6-22.401-5.507 5.809-12.792 13.648-21.982 22.401-25.383zm55.583-15.972c-1.586 1.22-3.212 2.376-4.875 3.466-1.734-3.694-3.631-7.152-5.675-10.345 3.708 2.011 7.228 4.322 10.55 6.879zm-40.583-14.917c8.754 3.401 16.592 12.591 22.401 25.383-7.111 2.907-14.644 4.776-22.401 5.507zm0 45.924c9.536-.754 18.811-2.918 27.55-6.428 2.666 9.265 4.409 19.616 4.962 30.542h-32.512zm0 109.15v-34.032c8.198.767 16.125 2.795 23.566 5.978-5.904 14.182-14.214 24.421-23.566 28.054zm0-49.091v-20.946h32.512c-.496 9.819-1.958 19.171-4.183 27.691-8.954-3.689-18.488-5.974-28.329-6.745zm30.033 41.053c2.485-3.882 4.755-8.154 6.777-12.768 1.979 1.347 3.91 2.78 5.775 4.315-3.892 3.199-8.093 6.035-12.552 8.453zm23.228-19.072c-3.565-3.031-7.321-5.771-11.24-8.21 3.043-10.54 4.967-22.251 5.519-34.717h23.595c-1.537 16.229-7.996 31.044-17.874 42.927zm-5.721-57.927c-.6-13.535-2.815-26.184-6.325-37.406 3.628-2.204 7.118-4.66 10.449-7.364 10.772 12.179 17.854 27.687 19.471 44.77zm143.46 108h28v15h-28zm-257 118.5c-12.407 0-22.5-10.093-22.5-22.5s10.093-22.5 22.5-22.5 22.5 10.093 22.5 22.5-10.093 22.5-22.5 22.5zm0-30c-4.136 0-7.5 3.364-7.5 7.5s3.364 7.5 7.5 7.5 7.5-3.364 7.5-7.5-3.364-7.5-7.5-7.5zm307 30c-12.406 0-22.5-10.093-22.5-22.5s10.094-22.5 22.5-22.5 22.5 10.093 22.5 22.5-10.094 22.5-22.5 22.5zm0-30c-4.136 0-7.5 3.364-7.5 7.5s3.364 7.5 7.5 7.5 7.5-3.364 7.5-7.5-3.364-7.5-7.5-7.5z" fill="url(#SVGID_7_)"/></g></svg>