<svg id="Capa_1" enable-background="new 0 0 511.897 511.897" height="512" viewBox="0 0 511.897 511.897" width="512" xmlns="http://www.w3.org/2000/svg" xmlns:xlink="http://www.w3.org/1999/xlink"><linearGradient id="SVGID_1_" gradientUnits="userSpaceOnUse" x1="163.955" x2="163.955" y1="100.948" y2="410.948"><stop offset=".00000036422" stop-color="#a8abff"/><stop offset="1" stop-color="#fac8ff"/></linearGradient><linearGradient id="SVGID_2_" gradientUnits="userSpaceOnUse" x1="349.397" x2="349.397" y1="102.045" y2="412.045"><stop offset=".00000083866" stop-color="#96d1f3"/><stop offset="1" stop-color="#ccfff4"/></linearGradient><linearGradient id="SVGID_3_" gradientUnits="userSpaceOnUse" x1="255.949" x2="255.949" y1="91.994" y2="419.903"><stop offset=".00000011981" stop-color="#174fa3"/><stop offset="1" stop-color="#b044af"/></linearGradient><g><g><path d="m291.939 239.177 27.016-24.39c-8.136-19.642-8.157-19.693-16.293-39.336l-36.349 1.857c-9.467-9.467-14.25-14.25-23.717-23.717l1.857-36.349c-19.642-8.136-19.693-8.157-39.336-16.293l-24.39 27.016c-13.389 0-20.153 0-33.542 0l-24.39-27.016c-19.642 8.136-19.693 8.157-39.336 16.293l1.857 36.349c-9.467 9.467-14.25 14.25-23.718 23.717l-36.349-1.857c-8.136 19.642-8.157 19.693-16.293 39.336l27.016 24.39v33.542l-27.016 24.39c8.136 19.642 8.157 19.693 16.293 39.336l36.349-1.857c9.467 9.467 14.25 14.25 23.718 23.717l-1.857 36.349c19.643 8.136 19.693 8.157 39.336 16.293l24.39-27.016h33.542l24.39 27.016c19.642-8.136 19.693-8.157 39.336-16.293l-1.857-36.349c9.467-9.467 14.25-14.25 23.717-23.717l36.349 1.857c8.136-19.642 8.157-19.693 16.293-39.336l-27.016-24.39c0-13.389 0-20.153 0-33.542z" fill="url(#SVGID_1_)"/><path d="m163.955 170.948c-46.869 0-85 38.131-85 85s38.131 85 85 85 85-38.131 85-85-38.131-85-85-85zm0 140c-30.376 0-55-24.624-55-55s24.624-55 55-55 55 24.624 55 55c-.001 30.375-24.625 55-55 55z" fill="#fff"/><circle cx="349.397" cy="257.045" fill="url(#SVGID_2_)" r="155"/></g><path d="m349.397 94.545c-36.76 0-70.702 12.276-97.959 32.935l.773-15.142-49.116-20.344-25.703 28.47h-26.875l-25.703-28.47-49.116 20.344 1.957 38.307-19.003 19.003-38.306-1.956-20.346 49.115 28.47 25.702v26.876l-28.47 25.703 20.345 49.116 38.306-1.956 19.003 19.004-1.957 38.306 49.116 20.346 25.703-28.471h26.875l25.703 28.471 49.116-20.346-.657-12.858c27.237 20.605 61.135 32.845 97.842 32.845 89.603 0 162.5-72.897 162.5-162.5s-72.895-162.5-162.498-162.5zm-48.254 23.114c-6.806 7.168-13.111 15.918-18.76 26.162-3.532 6.404-6.725 13.251-9.572 20.462-7.855-4.791-15.304-10.344-22.249-16.63 14.534-13.145 31.692-23.436 50.581-29.994zm-33.415 61.06c-6.719 21.562-10.577 45.687-11.218 70.826h-54.424c1.762-35.01 15.79-66.838 37.86-91.27 8.603 7.858 17.915 14.688 27.782 20.444zm-60.593 223.274-23.076-25.561h-40.209l-23.076 25.561-29.556-12.242 1.756-34.392-28.431-28.432-34.392 1.757-12.242-29.557 25.561-23.076v-40.208l-25.561-23.077 12.242-29.556 34.392 1.757 28.431-28.431-1.756-34.393 29.556-12.241 23.076 25.561h40.209l23.076-25.561 29.556 12.241-.965 18.898c-10.334 10.128-19.324 21.619-26.677 34.183-13.751-7.718-29.182-11.777-45.094-11.777-51.005 0-92.5 41.495-92.5 92.5s41.495 92.5 92.5 92.5c15.519 0 30.616-3.877 44.129-11.249 7.553 13.263 16.92 25.362 27.76 35.964l.847 16.588zm-15.812-107.243c-7.979 5.633-17.539 8.698-27.368 8.698-26.191 0-47.5-21.309-47.5-47.5s21.309-47.5 47.5-47.5c10.035 0 19.757 3.179 27.826 9.021-3.183 12.673-4.883 25.929-4.883 39.576-.001 12.976 1.537 25.599 4.425 37.705zm-27.368-101.302c-34.462 0-62.5 28.037-62.5 62.5s28.038 62.5 62.5 62.5c11.219 0 22.172-3.03 31.732-8.669 1.648 4.789 3.507 9.481 5.578 14.057-11.406 6.3-24.179 9.612-37.31 9.612-42.733 0-77.5-34.767-77.5-77.5s34.767-77.5 77.5-77.5c13.465 0 26.518 3.467 38.125 10.062-2.127 4.554-4.049 9.22-5.754 13.99-9.705-5.885-20.882-9.052-32.371-9.052zm78.854 165.451c-23.717-24.808-38.885-57.853-40.722-94.354h54.424c.689 27.011 5.094 52.849 12.769 75.597-9.356 5.313-18.225 11.58-26.471 18.757zm10.967 10.356c6.57-5.604 13.562-10.58 20.899-14.901 2.358 5.552 4.927 10.872 7.708 15.914 5.649 10.243 11.954 18.993 18.76 26.162-17.516-6.081-33.54-15.375-47.367-27.175zm88.121 34.592c-17.228-3.208-33.472-17.42-46.379-40.823-2.72-4.932-5.212-10.168-7.496-15.641 16.822-7.702 35.055-12.187 53.875-13.131zm0-84.613c-20.625.938-40.619 5.742-59.096 14.047-6.739-20.701-10.632-44.151-11.289-68.737h70.385zm0-69.689h-70.385c.605-22.64 3.954-44.317 9.742-63.773 18.873 8.726 39.385 13.76 60.643 14.719zm0-64.067c-19.585-.974-38.463-5.756-55.78-13.991 2.774-7.227 5.9-14.075 9.4-20.422 12.907-23.404 29.152-37.615 46.379-40.823v75.236zm154.811 64.067h-54.424c-.641-25.139-4.499-49.264-11.218-70.826 9.867-5.756 19.179-12.586 27.782-20.444 22.069 24.432 36.098 56.26 37.86 91.27zm-48.475-101.893c-6.946 6.286-14.395 11.84-22.249 16.63-2.847-7.211-6.04-14.057-9.572-20.462-5.649-10.243-11.954-18.993-18.76-26.162 18.888 6.559 36.046 16.85 50.581 29.994zm-91.336-37.41c17.228 3.208 33.472 17.42 46.379 40.823 3.5 6.347 6.626 13.195 9.4 20.422-17.317 8.235-36.195 13.017-55.78 13.991v-75.236zm0 90.249c21.258-.959 41.77-5.992 60.643-14.719 5.787 19.455 9.136 41.133 9.742 63.773h-70.385zm0 64.054h70.385c-.657 24.585-4.55 48.036-11.289 68.737-18.477-8.305-38.471-13.109-59.096-14.047zm0 139.302v-69.595c18.821.944 37.054 5.429 53.875 13.131-2.284 5.473-4.776 10.71-7.496 15.641-12.907 23.404-29.151 37.615-46.379 40.823zm40.754-7.417c6.806-7.168 13.111-15.918 18.76-26.162 2.781-5.043 5.35-10.363 7.708-15.914 7.337 4.32 14.329 9.297 20.899 14.901-13.827 11.8-29.851 21.094-47.367 27.175zm58.334-37.531c-8.246-7.177-17.115-13.444-26.471-18.757 7.675-22.748 12.08-48.586 12.769-75.597h54.424c-1.836 36.501-17.005 69.546-40.722 94.354z" fill="url(#SVGID_3_)"/></g></svg>