<svg id="Capa_1" enable-background="new 0 0 512 512" height="512" viewBox="0 0 512 512" width="512" xmlns="http://www.w3.org/2000/svg" xmlns:xlink="http://www.w3.org/1999/xlink"><linearGradient id="lg1"><stop offset=".00000083866" stop-color="#96d1f3"/><stop offset="1" stop-color="#ccfff4"/></linearGradient><linearGradient id="SVGID_1_" gradientUnits="userSpaceOnUse" x1="107" x2="107" xlink:href="#lg1" y1="111.375" y2="310.375"/><linearGradient id="SVGID_2_" gradientUnits="userSpaceOnUse" x1="405" x2="405" xlink:href="#lg1" y1="111.375" y2="310.375"/><linearGradient id="lg2"><stop offset=".00000036422" stop-color="#a8abff"/><stop offset="1" stop-color="#fac8ff"/></linearGradient><linearGradient id="SVGID_3_" gradientUnits="userSpaceOnUse" x1="107" x2="107" xlink:href="#lg2" y1="366.625" y2="400.625"/><linearGradient id="SVGID_4_" gradientUnits="userSpaceOnUse" x1="405" x2="405" xlink:href="#lg2" y1="366.625" y2="400.625"/><linearGradient id="SVGID_5_" gradientUnits="userSpaceOnUse" x1="256" x2="256" y1="103.875" y2="408.125"><stop offset=".00000011981" stop-color="#174fa3"/><stop offset="1" stop-color="#b044af"/></linearGradient><g><g><circle cx="107" cy="210.875" fill="url(#SVGID_1_)" r="99.5"/><circle cx="405" cy="210.875" fill="url(#SVGID_2_)" r="99.5"/><path d="m82.5 366.625h49v34h-49z" fill="url(#SVGID_3_)"/><path d="m380.5 366.625h49v34h-49z" fill="url(#SVGID_4_)"/></g><path d="m214 210.875c0-59-48-107-107-107s-107 48-107 107 48 107 107 107 107-48 107-107zm-67.141 82.91c4.004-5.637 7.574-12.132 10.63-19.329 3.07 2.024 6.025 4.248 8.863 6.653-5.909 5.001-12.451 9.276-19.493 12.676zm30.167-23.312c-4.525-3.929-9.331-7.439-14.367-10.517 3.695-12.55 5.991-26.599 6.569-41.581h29.465c-1.604 19.785-9.495 37.818-21.667 52.098zm21.667-67.098h-29.465c-.626-16.216-3.268-31.335-7.514-44.648 4.708-2.808 9.22-5.986 13.492-9.528 13.205 14.59 21.804 33.421 23.487 54.176zm-34.536-64.537c-2.546 2.023-5.183 3.903-7.905 5.632-2.769-6.08-5.919-11.614-9.393-16.505 6.181 2.984 11.977 6.642 17.298 10.873zm-49.657-18.749c11.167 3.62 21.16 15.141 28.35 31.396-8.957 3.791-18.506 6.146-28.35 6.941zm0 53.4c11.634-.806 22.932-3.487 33.525-7.884 3.404 11.378 5.589 24.211 6.184 37.769h-39.709zm0 44.886h39.709c-.539 12.282-2.384 23.968-5.257 34.517-10.843-4.621-22.452-7.424-34.452-8.249zm0 41.331c10.347.829 20.338 3.37 29.655 7.486-7.26 17.872-17.797 30.624-29.655 34.468zm-47.359-131.741c-3.474 4.891-6.624 10.424-9.393 16.505-2.721-1.729-5.359-3.609-7.905-5.632 5.321-4.231 11.117-7.889 17.298-10.873zm-28.347 21.235c4.272 3.541 8.784 6.72 13.492 9.528-4.246 13.313-6.888 28.432-7.514 44.648h-29.465c1.683-20.756 10.282-39.587 23.487-54.176zm-23.487 69.175h29.465c.578 14.982 2.874 29.031 6.569 41.581-5.035 3.079-9.841 6.588-14.367 10.517-12.172-14.28-20.063-32.313-21.667-52.098zm32.341 62.734c2.838-2.405 5.793-4.629 8.863-6.653 3.056 7.197 6.626 13.692 10.63 19.329-7.042-3.4-13.584-7.675-19.493-12.676zm51.852 20.552c-11.858-3.845-22.395-16.596-29.655-34.468 9.318-4.116 19.309-6.657 29.655-7.486zm0-57.018c-12 .825-23.609 3.629-34.452 8.249-2.874-10.55-4.719-22.235-5.257-34.517h39.709zm0-41.268h-39.709c.595-13.558 2.78-26.391 6.184-37.769 10.594 4.397 21.891 7.078 33.525 7.884zm0-44.948c-9.845-.795-19.394-3.151-28.35-6.941 7.19-16.256 17.184-27.776 28.35-31.396zm305.5-54.552c-59 0-107 48-107 107s48 107 107 107 107-48 107-107-48-107-107-107zm-39.859 24.09c-3.474 4.891-6.624 10.424-9.393 16.505-2.721-1.729-5.359-3.609-7.905-5.632 5.321-4.231 11.117-7.889 17.298-10.873zm-28.347 21.235c4.272 3.541 8.784 6.72 13.492 9.528-4.246 13.313-6.888 28.432-7.514 44.648h-29.465c1.683-20.756 10.282-39.587 23.487-54.176zm-23.487 69.175h29.465c.578 14.982 2.874 29.031 6.569 41.581-5.035 3.079-9.841 6.588-14.367 10.517-12.172-14.28-20.063-32.313-21.667-52.098zm32.341 62.734c2.838-2.405 5.793-4.629 8.863-6.653 3.056 7.197 6.626 13.692 10.63 19.329-7.042-3.4-13.584-7.675-19.493-12.676zm51.852 20.552c-11.858-3.845-22.395-16.596-29.655-34.468 9.318-4.116 19.309-6.657 29.655-7.486zm0-57.018c-12 .825-23.609 3.629-34.452 8.249-2.874-10.55-4.719-22.235-5.257-34.517h39.709zm0-41.268h-39.709c.595-13.558 2.78-26.391 6.184-37.769 10.594 4.397 21.891 7.078 33.525 7.884zm0-44.948c-9.845-.795-19.394-3.151-28.35-6.941 7.19-16.256 17.184-27.776 28.35-31.396zm99.193 44.948h-29.465c-.626-16.216-3.268-31.335-7.514-44.648 4.708-2.808 9.22-5.986 13.492-9.528 13.205 14.59 21.804 33.421 23.487 54.176zm-34.536-64.537c-2.546 2.023-5.183 3.903-7.905 5.632-2.769-6.08-5.919-11.614-9.393-16.505 6.181 2.984 11.977 6.642 17.298 10.873zm-49.657-18.749c11.167 3.62 21.16 15.141 28.35 31.396-8.957 3.791-18.506 6.146-28.35 6.941zm0 53.4c11.634-.806 22.932-3.487 33.525-7.884 3.404 11.378 5.589 24.211 6.184 37.769h-39.709zm0 44.886h39.709c-.539 12.282-2.384 23.968-5.257 34.517-10.843-4.621-22.452-7.424-34.452-8.249zm0 83.286v-41.955c10.347.829 20.338 3.37 29.655 7.486-7.26 17.873-17.797 30.624-29.655 34.469zm32.359-7.876c4.004-5.637 7.574-12.132 10.63-19.329 3.07 2.024 6.025 4.248 8.863 6.653-5.909 5.001-12.451 9.276-19.493 12.676zm30.167-23.312c-4.525-3.929-9.331-7.439-14.367-10.517 3.695-12.55 5.991-26.599 6.569-41.581h29.465c-1.604 19.785-9.495 37.818-21.667 52.098zm-38.026 88.652h-24.5v-26.25h-15v26.25h-24.5v17h-234v-17h-24.5v-26.25h-15v26.25h-24.5v17h-43.5v15h43.5v17h64v-17h234v17h64v-17h42.5v-15h-42.5zm-313 34h-34v-19h34zm298 0h-34v-19h34zm-421.5-17h15v15h-15zm496 0h15v15h-15z" fill="url(#SVGID_5_)"/></g></svg>