<svg id="Capa_1" enable-background="new 0 0 511 511" height="512" viewBox="0 0 511 511" width="512" xmlns="http://www.w3.org/2000/svg" xmlns:xlink="http://www.w3.org/1999/xlink"><linearGradient id="lg1"><stop offset=".00000083866" stop-color="#96d1f3"/><stop offset="1" stop-color="#ccfff4"/></linearGradient><linearGradient id="SVGID_1_" gradientUnits="userSpaceOnUse" x1="207.5" x2="207.5" xlink:href="#lg1" y1="103.5" y2="503.5"/><linearGradient id="SVGID_2_" gradientUnits="userSpaceOnUse" x1="349.5" x2="349.5" y1="7.5" y2="258.5"><stop offset=".00000036422" stop-color="#a8abff"/><stop offset="1" stop-color="#fac8ff"/></linearGradient><linearGradient id="SVGID_3_" gradientUnits="userSpaceOnUse" x1="349.5" x2="349.5" xlink:href="#lg1" y1="37.5" y2="187.5"/><linearGradient id="SVGID_4_" gradientUnits="userSpaceOnUse" x1="255.5" x2="255.5" y1="0" y2="511"><stop offset=".00000011981" stop-color="#174fa3"/><stop offset="1" stop-color="#b044af"/></linearGradient><g><g><circle cx="207.5" cy="303.5" fill="url(#SVGID_1_)" r="200"/><path d="m225.5 208.5h30v50l151-50h67c16.569 0 30-13.431 30-30v-141c0-16.569-13.431-30-30-30h-248c-16.569 0-30 13.431-30 30v141c0 16.569 13.431 30 30 30z" fill="url(#SVGID_2_)"/><circle cx="349.5" cy="112.5" fill="url(#SVGID_3_)" r="75"/></g><path d="m473.5 0h-248c-20.678 0-37.5 16.822-37.5 37.5v59.433c-105.982 9.881-188 99.272-188 206.567 0 114.416 93.084 207.5 207.5 207.5 150.258 0 250.277-155.368 189.743-291.534l10.466-3.466h65.791c20.678 0 37.5-16.822 37.5-37.5v-141c0-20.678-16.822-37.5-37.5-37.5zm-285.5 115c.685 62.862-1.606 65.624 2.223 76.215-19.333-1.743-38.241-6.411-56.063-13.753 11.059-24.898 28.996-52.216 53.84-62.462zm-31.089 2.742c-15.712 14.418-27.654 33.841-36.391 53.478-10.935-5.535-21.359-12.126-31.107-19.701 19.753-15.386 42.6-27.013 67.498-33.777zm-79.19 43.649c11.537 9.254 23.991 17.202 37.116 23.749-12.107 32.472-18.99 70.92-19.758 110.86h-79.921c2.047-53.048 25.686-100.878 62.563-134.609zm-62.561 149.609h79.919c.76 40.198 7.615 78.428 19.736 110.85-13.095 6.535-25.523 14.48-37.058 23.73-36.818-33.65-60.548-81.382-62.597-134.58zm74.293 144.448c9.743-7.569 20.15-14.143 31.059-19.667 8.684 19.481 20.552 38.958 36.231 53.414-24.767-6.777-47.558-18.382-67.29-33.747zm110.547 39.965c-30.996-4.789-53.091-37.219-65.853-65.879 20.808-8.573 43.095-13.49 65.853-14.378zm0-95.265c-24.711.894-48.915 6.194-71.504 15.493-11.281-30.535-17.671-66.602-18.415-104.641h89.919zm0-104.148h-89.919c.753-37.783 7.177-74.038 18.448-104.638 22.593 9.296 46.802 14.612 71.471 15.497zm15 199.413v-80.258c22.759.888 45.045 5.805 65.853 14.378-12.769 28.677-34.866 61.092-65.853 65.88zm86.283-244.173c2.114 14.572 3.338 29.564 3.64 44.76h-89.923v-81.507c8.321 2.432 12.948 1.147 33 1.507v52.884zm3.636 59.76c-.744 38.039-7.134 74.105-18.415 104.641-22.59-9.298-46.793-14.598-71.504-15.493v-89.148zm-46.662 178.195c15.682-14.459 27.549-33.939 36.231-53.414 10.909 5.524 21.317 12.098 31.059 19.667-19.732 15.365-42.523 26.97-67.29 33.747zm78.986-43.615c-11.535-9.25-23.963-17.195-37.058-23.73 12.12-32.422 18.976-70.652 19.736-110.85h79.919c-2.049 53.198-25.779 100.93-62.597 134.58zm62.598-149.58h-79.918c-.321-16.833-1.729-33.439-4.188-49.545l67.202-22.252c10.293 22.69 15.961 46.781 16.904 71.797zm96.159-117.5c0 12.406-10.094 22.5-22.5 22.5h-68.209l-142.291 47.116v-47.116h-37.5c-12.406 0-22.5-10.094-22.5-22.5v-141c0-12.406 10.094-22.5 22.5-22.5h248c12.406 0 22.5 10.094 22.5 22.5zm-114-50c0 12.958-10.542 23.5-23.5 23.5h-1.5v14.5h-15v-14.5h-17.5v-15h34c11.235 0 11.25-17 0-17h-18c-12.958 0-23.5-10.542-23.5-23.5s10.542-23.5 23.5-23.5h1.5v-14.5h15v14.5h17.5v15h-34c-11.235 0-11.25 17 0 17h18c12.958 0 23.5 10.542 23.5 23.5zm-32.5-98.5c-45.49 0-82.5 37.01-82.5 82.5s37.01 82.5 82.5 82.5 82.5-37.01 82.5-82.5-37.01-82.5-82.5-82.5zm0 150c-37.22 0-67.5-30.28-67.5-67.5s30.28-67.5 67.5-67.5 67.5 30.28 67.5 67.5-30.28 67.5-67.5 67.5z" fill="url(#SVGID_4_)"/></g></svg>