<svg id="Capa_1" enable-background="new 0 0 511.5 511.5" height="512" viewBox="0 0 511.5 511.5" width="512" xmlns="http://www.w3.org/2000/svg" xmlns:xlink="http://www.w3.org/1999/xlink"><linearGradient id="SVGID_1_" gradientUnits="userSpaceOnUse" x1="255" x2="255" y1="184" y2="504"><stop offset=".00000083866" stop-color="#96d1f3"/><stop offset="1" stop-color="#ccfff4"/></linearGradient><linearGradient id="SVGID_2_" gradientUnits="userSpaceOnUse" x1="255.75" x2="255.75" y1="7.5" y2="196"><stop offset=".00000036422" stop-color="#a8abff"/><stop offset="1" stop-color="#fac8ff"/></linearGradient><linearGradient id="SVGID_3_" gradientUnits="userSpaceOnUse" x1="255.75" x2="255.75" y1="0" y2="511.5"><stop offset=".00000011981" stop-color="#174fa3"/><stop offset="1" stop-color="#b044af"/></linearGradient><g><g><circle cx="255" cy="344" fill="url(#SVGID_1_)" r="160"/><path d="m182.5 134.5h-47.5v42.5l-60-42.5h-67.5v-127h175zm177.5 29h48v32.5l49.5-32.5h46.5v-96.5h-144z" fill="url(#SVGID_2_)"/></g><path d="m255 176.5c-92.359 0-167.5 75.141-167.5 167.5s75.141 167.5 167.5 167.5 167.5-75.141 167.5-167.5-75.141-167.5-167.5-167.5zm-48.931 23.051c-13.178 13.605-23.048 31.348-30.008 49.052-8.287-5.033-16.139-10.885-23.449-17.524 15.315-13.9 33.461-24.736 53.457-31.528zm-64.067 42.147c8.966 8.213 18.68 15.343 28.982 21.337-6.986 22.35-10.985 47.381-11.63 73.465h-56.668c1.771-36.383 16.35-69.458 39.316-94.802zm-39.316 109.802h56.668c.693 28.019 5.26 54.82 13.238 78.391-9.773 5.534-19.031 12.078-27.631 19.583-24.668-25.726-40.429-60.052-42.275-97.974zm53.234 108.33c6.926-5.93 14.31-11.184 22.063-15.731 6.814 16.105 16.058 31.932 28.087 44.35-18.578-6.31-35.553-16.115-50.15-28.619zm91.58 35.995c-26.806-4.807-45.675-33.423-56.179-58.688 17.53-8.061 36.546-12.744 56.179-13.696zm0-87.396c-21.435.946-42.213 5.938-61.398 14.6-7.037-21.522-11.084-45.938-11.746-71.529h73.144zm0-71.929h-73.144c.61-23.583 4.097-46.167 10.147-66.41 19.593 9.1 40.906 14.332 62.997 15.298zm0-66.121c-20.423-.982-40.106-5.971-58.146-14.586 10.266-26.841 29.763-58.529 58.146-63.618zm109.888-39.3c-7.31 6.639-15.163 12.492-23.449 17.524-6.958-17.696-16.826-35.443-30.008-49.052 19.996 6.792 38.142 17.628 53.457 31.528zm-94.888-38.904c28.377 5.088 47.875 36.765 58.146 63.618-18.04 8.615-37.723 13.604-58.146 14.586zm0 93.213c22.091-.967 43.404-6.199 62.997-15.298 6.05 20.243 9.537 42.827 10.147 66.41h-73.144zm0 66.112h73.144c-.662 25.591-4.709 50.006-11.746 71.529-19.185-8.662-39.963-13.654-61.398-14.6zm0 144.325v-72.384c19.632.952 38.649 5.636 56.179 13.696-10.508 25.275-29.379 53.883-56.179 58.688zm41.431-7.376c12.024-12.414 21.269-28.238 28.087-44.35 7.753 4.547 15.137 9.801 22.063 15.731-14.598 12.504-31.573 22.309-50.15 28.619zm61.108-38.975c-8.6-7.505-17.858-14.049-27.631-19.583 7.977-23.571 12.545-50.371 13.238-78.391h56.668c-1.846 37.922-17.607 72.248-42.275 97.974zm-14.393-112.974c-.645-26.084-4.644-51.115-11.63-73.465 10.301-5.994 20.016-13.124 28.982-21.337 22.966 25.344 37.546 58.419 39.316 94.802zm-208.146-194.5h47.5v-142h-190v142h72.613l69.887 49.503zm-15 20.497-50.113-35.497h-62.387v-112h160v112h-47.5zm225-102.997v111.5h48v37.662l59.184-37.662h51.816v-111.5zm144 96.5h-41.184l-39.816 25.338v-25.338h-48v-81.5h129zm-462.5-122.5h122v15h-122zm0 30h122v15h-122zm0 29h72v15h-72zm448 11h-100v-15h100zm-30 30h-70v-15h70z" fill="url(#SVGID_3_)"/></g></svg>