<svg id="Capa_1" enable-background="new 0 0 513 513" height="512" viewBox="0 0 513 513" width="512" xmlns="http://www.w3.org/2000/svg" xmlns:xlink="http://www.w3.org/1999/xlink"><linearGradient id="SVGID_1_" gradientUnits="userSpaceOnUse" x1="256" x2="256" y1="91.5" y2="421.5"><stop offset=".00000083866" stop-color="#96d1f3"/><stop offset="1" stop-color="#ccfff4"/></linearGradient><linearGradient id="lg1"><stop offset=".00000036422" stop-color="#a8abff"/><stop offset="1" stop-color="#fac8ff"/></linearGradient><linearGradient id="SVGID_2_" gradientUnits="userSpaceOnUse" x1="437" x2="437" xlink:href="#lg1" y1="7.5" y2="131.5"/><linearGradient id="SVGID_3_" gradientUnits="userSpaceOnUse" x1="76" x2="76" xlink:href="#lg1" y1="381.5" y2="505.5"/><linearGradient id="SVGID_4_" gradientUnits="userSpaceOnUse" x1="256.5" x2="256.5" y1="0" y2="513"><stop offset=".00000011981" stop-color="#174fa3"/><stop offset="1" stop-color="#b044af"/></linearGradient><g><g><circle cx="256" cy="256.5" fill="url(#SVGID_1_)" r="165"/><path d="m505 7.5h-136v90h44v34l48-34h44z" fill="url(#SVGID_2_)"/><path d="m8 505.5h136v-90h-44v-34l-48 34h-44z" fill="url(#SVGID_3_)"/></g><path d="m256 84c-95.117 0-172.5 77.383-172.5 172.5s77.383 172.5 172.5 172.5 172.5-77.383 172.5-172.5-77.383-172.5-172.5-172.5zm-49.642 23.023c-14.012 14.208-24.43 33.009-31.65 51.445-8.718-5.273-16.97-11.426-24.644-18.418 16.085-14.646 35.207-26.006 56.294-33.027zm-66.903 43.643c9.328 8.568 19.445 15.999 30.181 22.23-7.252 23.137-11.393 49.074-12.041 76.104h-58.912c1.779-37.757 16.909-72.08 40.772-98.334zm-40.772 113.334h58.912c.696 29.028 5.427 56.79 13.706 81.183-10.19 5.755-19.837 12.576-28.79 20.41-25.62-26.642-41.974-62.251-43.828-101.593zm54.778 111.949c7.282-6.257 15.057-11.788 23.227-16.561 8.883 21.072 19.437 36.212 29.671 46.589-19.624-6.533-37.543-16.828-52.898-30.028zm95.039 37.396c-18.697-3.232-36.324-18.492-50.279-43.794-2.975-5.395-5.707-11.119-8.193-17.12 18.235-8.417 38.032-13.295 58.472-14.254zm0-90.177c-22.243.953-43.805 6.132-63.695 15.149-7.335-22.344-11.542-47.72-12.208-74.318h75.903zm0-74.168h-75.903c.615-24.528 4.243-48.014 10.557-69.045 20.311 9.473 42.425 14.902 65.347 15.876v53.169zm0-68.178c-21.254-.989-41.736-6.179-60.492-15.168 10.706-28.083 31.006-60.901 60.492-65.999zm113.436-40.772c-7.674 6.992-15.926 13.145-24.644 18.418-7.22-18.436-17.637-37.237-31.65-51.445 21.087 7.021 40.209 18.381 56.294 33.027zm-98.436-40.395c29.48 5.096 49.781 37.903 60.492 65.999-18.756 8.989-39.238 14.179-60.492 15.168zm0 96.176c22.922-.974 45.036-6.403 65.347-15.876 6.313 21.031 9.942 44.517 10.557 69.045h-75.904zm0 68.169h75.903c-.667 26.597-4.873 51.974-12.208 74.318-19.89-9.017-41.452-14.196-63.695-15.149zm0 149.345v-75.168c20.44.959 40.237 5.837 58.472 14.254-10.872 26.242-30.508 56.08-58.472 60.914zm42.142-7.368c10.237-10.38 20.789-25.521 29.671-46.589 8.17 4.772 15.944 10.304 23.227 16.561-15.356 13.2-33.275 23.495-52.898 30.028zm63.847-40.384c-8.953-7.833-18.6-14.654-28.79-20.41 8.279-24.393 13.01-52.156 13.706-81.183h58.912c-1.854 39.342-18.208 74.951-43.828 101.593zm-15.084-116.593c-.648-27.03-4.789-52.967-12.041-76.104 10.736-6.231 20.852-13.661 30.181-22.23 23.863 26.254 38.994 60.577 40.773 98.334zm7.095-249v105h44v41.003l57.887-41.003h49.113v-105zm136 90h-38.887l-38.113 26.997v-26.997h-44v-75h121zm-15.5-44h-91v-15h91zm0 29h-91v-15h91zm-374.5 291.997-57.887 41.003h-49.113v105h151v-105h-44zm29 56.003v75h-121v-75h38.887l38.113-26.997v26.997zm-105.5 44h91v15h-91zm0-29h91v15h-91z" fill="url(#SVGID_4_)"/></g></svg>