<svg id="Capa_1" enable-background="new 0 0 511 511" height="512" viewBox="0 0 511 511" width="512" xmlns="http://www.w3.org/2000/svg" xmlns:xlink="http://www.w3.org/1999/xlink"><linearGradient id="lg1"><stop offset=".00000083866" stop-color="#96d1f3"/><stop offset="1" stop-color="#ccfff4"/></linearGradient><linearGradient id="SVGID_1_" gradientUnits="userSpaceOnUse" x1="255.5" x2="255.5" xlink:href="#lg1" y1="213.5" y2="503.5"/><linearGradient id="lg2"><stop offset=".00000036422" stop-color="#a8abff"/><stop offset="1" stop-color="#fac8ff"/></linearGradient><linearGradient id="SVGID_2_" gradientUnits="userSpaceOnUse" x1="255.5" x2="255.5" xlink:href="#lg2" y1="308.5" y2="468.5"/><linearGradient id="SVGID_3_" gradientUnits="userSpaceOnUse" x1="255.5" x2="255.5" xlink:href="#lg2" y1="41.5" y2="201.5"/><linearGradient id="SVGID_4_" gradientUnits="userSpaceOnUse" x1="400.5" x2="400.5" xlink:href="#lg1" y1="7.5" y2="77.5"/><linearGradient id="SVGID_5_" gradientUnits="userSpaceOnUse" x1="255.5" x2="255.5" y1="0" y2="511"><stop offset=".00000011981" stop-color="#174fa3"/><stop offset="1" stop-color="#b044af"/></linearGradient><g><g><path d="m365.5 7.5h-290v266h360v-196z" fill="#fff"/><path d="m435.5 503.5h-360c-16.569 0-30-13.431-30-30v-230c0-16.569 13.431-30 30-30h101c11.354 0 22.369 3.864 31.235 10.957l47.609 38.087c8.866 7.093 19.881 10.957 31.235 10.957h148.921c16.569 0 30 13.431 30 30v170c0 16.568-13.431 29.999-30 29.999z" fill="url(#SVGID_1_)"/><circle cx="255.5" cy="388.5" fill="url(#SVGID_2_)" r="80"/><circle cx="255.5" cy="121.5" fill="url(#SVGID_3_)" r="80"/><path d="m435.5 77.5h-70v-70z" fill="url(#SVGID_4_)"/></g><path d="m443 266.755v-192.361l-74.394-74.394h-300.606v206.755c-17.096 3.484-30 18.635-30 36.745v230c0 20.678 16.822 37.5 37.5 37.5h360c20.678 0 37.5-16.822 37.5-37.5v-170c0-18.11-12.904-33.261-30-36.745zm-70-241.149 44.394 44.394h-44.394zm-290-10.606h275v70h70v181h-141.422c-9.614 0-19.042-3.308-26.55-9.313l-47.608-38.086c-10.156-8.126-22.913-12.601-35.92-12.601h-93.5zm375 458.5c0 12.406-10.093 22.5-22.5 22.5h-360c-12.407 0-22.5-10.094-22.5-22.5v-230c0-12.406 10.093-22.5 22.5-22.5h101c9.614 0 19.042 3.308 26.55 9.313l47.608 38.086c10.157 8.126 22.913 12.601 35.92 12.601h148.922c12.407 0 22.5 10.094 22.5 22.5zm-170-69c0 12.958-10.542 23.5-23.5 23.5h-1.5v14.5h-15v-14.5h-17.5v-15h34c4.687 0 8.5-3.813 8.5-8.5s-3.813-8.5-8.5-8.5h-18c-12.958 0-23.5-10.542-23.5-23.5s10.542-23.5 23.5-23.5h1.5v-14.5h15v14.5h17.5v15h-34c-4.687 0-8.5 3.813-8.5 8.5s3.813 8.5 8.5 8.5h18c12.958 0 23.5 10.542 23.5 23.5zm-32.5-103.5c-48.248 0-87.5 39.252-87.5 87.5s39.252 87.5 87.5 87.5 87.5-39.252 87.5-87.5-39.252-87.5-87.5-87.5zm0 160c-39.977 0-72.5-32.523-72.5-72.5s32.523-72.5 72.5-72.5 72.5 32.523 72.5 72.5-32.523 72.5-72.5 72.5zm0-252c48.248 0 87.5-39.252 87.5-87.5s-39.252-87.5-87.5-87.5-87.5 39.252-87.5 87.5 39.252 87.5 87.5 87.5zm0-160c39.977 0 72.5 32.523 72.5 72.5s-32.523 72.5-72.5 72.5-72.5-32.523-72.5-72.5 32.523-72.5 72.5-72.5zm-18 120.106-37.303-37.303 10.606-10.607 26.697 26.697 58.697-58.697 10.606 10.607z" fill="url(#SVGID_5_)"/></g></svg>