<svg id="Capa_1" enable-background="new 0 0 512 512" height="512" viewBox="0 0 512 512" width="512" xmlns="http://www.w3.org/2000/svg" xmlns:xlink="http://www.w3.org/1999/xlink"><linearGradient id="SVGID_1_" gradientUnits="userSpaceOnUse" x1="256" x2="256" y1="120.5" y2="461"><stop offset=".00000036422" stop-color="#a8abff"/><stop offset="1" stop-color="#fac8ff"/></linearGradient><linearGradient id="SVGID_2_" gradientUnits="userSpaceOnUse" x1="256" x2="256" y1="185" y2="405"><stop offset=".00000083866" stop-color="#96d1f3"/><stop offset="1" stop-color="#ccfff4"/></linearGradient><linearGradient id="SVGID_3_" gradientUnits="userSpaceOnUse" x1="256" x2="256" y1="43.5" y2="468.5"><stop offset=".00000011981" stop-color="#174fa3"/><stop offset="1" stop-color="#b044af"/></linearGradient><g><g><path d="m504.5 120.5h-497v125.5l14.5 2.917v182.083c0 16.569 13.431 30 30 30h408c16.569 0 30-13.431 30-30v-182.083l14.5-2.917z" fill="url(#SVGID_1_)"/><g><circle cx="256" cy="295" fill="url(#SVGID_2_)" r="110"/></g><path d="m324 51h-150c-11.046 0-20 8.954-20 20v15h190v-15c0-11.046-8.954-20-20-20z" fill="#fff"/></g><path d="m351.5 113v-42c0-15.164-12.337-27.5-27.5-27.5h-150c-15.164 0-27.5 12.336-27.5 27.5v42h-146.5v139.141l14.5 2.917v175.942c0 20.678 16.822 37.5 37.5 37.5h408c20.678 0 37.5-16.822 37.5-37.5v-175.942l14.5-2.917v-139.141zm-190-42c0-6.893 5.607-12.5 12.5-12.5h150c6.893 0 12.5 5.607 12.5 12.5v7.5h-175zm0 22.5h175v19.5h-175zm321 291h-112.5v15h112.5v16h-82.5v15h82.5v.5c0 12.407-10.094 22.5-22.5 22.5h-408c-12.407 0-22.5-10.093-22.5-22.5v-.5h83.5v-15h-83.5v-16h113.5v-15h-113.5v-126.424l109.93 22.117c-.613 4.851-.93 9.792-.93 14.806 0 64.79 52.71 117.5 117.5 117.5s117.5-52.71 117.5-117.5c0-5.014-.317-9.956-.93-14.806l109.93-22.117zm-234-137v40h-51.05c.592-14.129 2.849-27.673 6.616-40zm-38.843-15c1.799-4.005 3.779-7.823 5.941-11.414 9.227-15.326 20.701-24.92 32.902-27.723v39.137zm-5.591 110c-3.767-12.327-6.024-25.871-6.616-40h51.05v40zm44.434 15v39.136c-12.201-2.802-23.676-12.397-32.902-27.723-2.162-3.591-4.142-7.409-5.941-11.414h38.843zm-39.277 28.689c-13.473-6.939-25.215-16.781-34.404-28.689h18.599c2.668 6.821 5.775 13.249 9.328 19.15 2.054 3.41 4.218 6.588 6.477 9.539zm-6.476-172.839c-3.553 5.901-6.66 12.329-9.328 19.15h-18.599c9.189-11.908 20.931-21.749 34.404-28.689-2.26 2.951-4.424 6.129-6.477 9.539zm-14.281 34.15c-3.433 12.534-5.485 26.035-6.028 40h-28.663c1.043-14.348 5.054-27.884 11.418-40zm-6.027 55c.542 13.965 2.594 27.466 6.028 40h-23.273c-6.364-12.116-10.375-25.652-11.418-40zm125.495-55c3.767 12.327 6.024 25.871 6.616 40h-51.05v-40zm-44.434-15v-39.136c12.202 2.802 23.676 12.397 32.902 27.723 2.162 3.591 4.142 7.409 5.941 11.414h-38.843zm60.033 110c3.433-12.534 5.485-26.035 6.028-40h28.663c-1.043 14.348-5.054 27.884-11.418 40zm13.648 15c-9.189 11.908-20.931 21.75-34.405 28.689 2.259-2.951 4.424-6.129 6.477-9.539 3.553-5.901 6.661-12.329 9.328-19.15zm-7.62-70c-.542-13.965-2.594-27.466-6.028-40h23.273c6.364 12.116 10.375 25.652 11.418 40zm-10.98-55c-2.668-6.821-5.775-13.249-9.328-19.15-2.053-3.41-4.218-6.588-6.477-9.539 13.474 6.939 25.216 16.781 34.405 28.689zm-4.031 70c-.592 14.129-2.849 27.673-6.616 40h-44.434v-40zm-12.207 55c-1.799 4.005-3.779 7.823-5.941 11.414-9.227 15.326-20.701 24.921-32.902 27.723v-39.137zm194.657-117.642-127.262 25.605c-13.133-50.539-59.146-87.963-113.738-87.963-54.591 0-100.605 37.424-113.738 87.963l-127.262-25.605v-111.858h482z" fill="url(#SVGID_3_)"/></g></svg>