<svg id="Capa_1" enable-background="new 0 0 512 512" height="512" viewBox="0 0 512 512" width="512" xmlns="http://www.w3.org/2000/svg" xmlns:xlink="http://www.w3.org/1999/xlink"><linearGradient id="lg1"><stop offset=".00000036422" stop-color="#a8abff"/><stop offset="1" stop-color="#fac8ff"/></linearGradient><linearGradient id="SVGID_1_" gradientUnits="userSpaceOnUse" x1="284" x2="284" xlink:href="#lg1" y1="7.75" y2="305.75"/><linearGradient id="SVGID_2_" gradientUnits="userSpaceOnUse" x1="371.75" x2="371.75" xlink:href="#lg1" y1="69.75" y2="305.75"/><linearGradient id="SVGID_3_" gradientUnits="userSpaceOnUse" x1="168.25" x2="168.25" xlink:href="#lg1" y1="96.75" y2="305.75"/><linearGradient id="SVGID_4_" gradientUnits="userSpaceOnUse" x1="178.5" x2="178.5" xlink:href="#lg1" y1="45.75" y2="96.75"/><linearGradient id="SVGID_5_" gradientUnits="userSpaceOnUse" x1="256" x2="256" y1="263.25" y2="511.75"><stop offset=".00000083866" stop-color="#96d1f3"/><stop offset="1" stop-color="#ccfff4"/></linearGradient><linearGradient id="SVGID_6_" gradientUnits="userSpaceOnUse" x1="256" x2="256" y1=".25" y2="511.75"><stop offset=".00000011981" stop-color="#174fa3"/><stop offset="1" stop-color="#b044af"/></linearGradient><g><g><path d="m223 7.75v298h122v-298zm92 230h-62v-30h62zm0-59h-62v-30h62zm0-59h-62v-30h62z" fill="url(#SVGID_1_)"/><path d="m345 69.75h53.5v236h-53.5z" fill="url(#SVGID_2_)"/><path d="m113.5 96.75v209h109.5v-209zm79.5 121h-49.5v-30h49.5zm0-61h-49.5v-30h49.5z" fill="url(#SVGID_3_)"/><path d="m223 96.75h-89v-35l89-16z" fill="url(#SVGID_4_)"/><path d="m256 263.25c-137.243 0-248.5 111.257-248.5 248.5h497c0-137.243-111.257-248.5-248.5-248.5z" fill="url(#SVGID_5_)"/><g fill="#fff"><path d="m169 339.75 14-27 50 4 5 36-24 11 17 36-24 4z"/><path d="m491.18 431.29-37.18 13.46-9 36-54 2-32-51-45-5-43-55 28-44 113.99-8.64c35.61 29.05 63.01 67.78 78.19 112.18z"/><path d="m172 435.75-14 36-39-12-25 26v.12l-85.12-.45c6.15-58.42 32.54-110.8 72.03-150.01l40.09 18.34v28l22 8z"/></g></g><path d="m406 304.25v-242h-53.5v-62h-137v39.228l-89 16v33.772h-20.5v215c-65.258 47.385-106 122.874-106 207.5h15c0-6.365.253-12.672.74-18.914l81.437.431 24.03-24.991 41.255 12.694 17.897-46.023-32.384-51.368-19.476-7.082v-27.563l-34.263-15.675c82.514-74.85 205.878-83.645 298.126-20.107l-97.674 7.403-32.861 51.639 48.208 61.661 44.537 4.949 32.377 51.601 63.96-2.369 9.398-37.593 26.088-9.445c6.888 22.383 10.605 46.141 10.605 70.752h15c0-84.601-40.723-160.101-106-207.5zm-292.5 54.316v28.437l24.524 8.918 25.616 40.632-10.103 25.977-36.745-11.306-25.97 27.009-73.427-.388c7.274-51.429 30.834-97.688 65.29-133.374zm102-99.632c-33.691 5.324-65.708 17.274-94.5 35.212v-189.896h94.5zm0-169.684h-74v-21.228l74-13.303zm122 179.693c-33.012-11.046-69.498-15.631-107-11.947v-241.746h107zm53.5-176.693h-22v15h22v13.2h-22v15h22v13.2h-22v15h22v13.2h-22v15h22v13.2h-22v15h22v13.2h-22v15h22v45.896c-12.287-7.655-25.159-14.221-38.5-19.646v-197.25h38.5zm56.692 346.807-8.602 34.407-44.04 1.631-31.623-50.399-45.463-5.051-37.792-48.339 23.139-36.361 107.055-8.115c31.603 26.425 56.349 60.78 71.161 99.978zm-125.192-356.807h-77v45h77zm-15 30h-47v-15h47zm15 29h-77v45h77zm-15 30h-47v-15h47zm15 29h-77v45h77zm-15 30h-47v-15h47zm-107-111h-64.5v45h64.5zm-15 30h-34.5v-15h34.5zm15 31h-64.5v45h64.5zm-15 30h-34.5v-15h34.5zm75-147.5h-15v-33h15zm31 0h-15v-33h15zm31 0h-15v-33h15zm-82.899 247.004-60.967-4.877-18.21 35.12 42.747 71.995 38.847-6.475-17.996-38.11 22.175-10.164zm-35.622 50.339 16.004 33.89-9.153 1.525-33.253-56.005 9.79-18.88 39.033 3.123 3.404 24.51z" fill="url(#SVGID_6_)"/></g></svg>