<svg id="Capa_1" enable-background="new 0 0 510.78 510.78" height="512" viewBox="0 0 510.78 510.78" width="512" xmlns="http://www.w3.org/2000/svg" xmlns:xlink="http://www.w3.org/1999/xlink"><linearGradient id="SVGID_1_" gradientUnits="userSpaceOnUse" x1="353.285" x2="353.285" y1="105.389" y2="405.389"><stop offset=".00000083866" stop-color="#96d1f3"/><stop offset="1" stop-color="#ccfff4"/></linearGradient><linearGradient id="SVGID_2_" gradientUnits="userSpaceOnUse" x1="157.5" x2="157.5" y1="105.389" y2="405.389"><stop offset=".00000036422" stop-color="#a8abff"/><stop offset="1" stop-color="#fac8ff"/></linearGradient><linearGradient id="SVGID_3_" gradientUnits="userSpaceOnUse" x1="255.39" x2="255.39" y1="97.835" y2="412.946"><stop offset=".00000011981" stop-color="#174fa3"/><stop offset="1" stop-color="#b044af"/></linearGradient><g><g><circle cx="353.285" cy="255.389" fill="url(#SVGID_1_)" r="150"/><circle cx="157.5" cy="255.389" fill="url(#SVGID_2_)" r="150"/></g><path d="m255.339 132.056c-102.445-81.438-255.339-8.446-255.339 123.333 0 131.963 153.022 204.669 255.339 123.334 102.485 81.443 255.442 8.444 255.442-123.334-.001-132.033-153.116-204.651-255.442-123.333zm50.449-11.013c-9.164 9.805-17.309 22.506-24.006 37.711-4.592-5.892-9.593-11.448-14.959-16.629 11.865-9.064 25.025-16.155 38.965-21.082zm-148.288 276.846c-78.575 0-142.5-63.925-142.5-142.5s63.925-142.5 142.5-142.5 142.5 63.925 142.5 142.5-63.925 142.5-142.5 142.5zm109.323-29.235c5.366-5.181 10.368-10.738 14.959-16.629 6.697 15.205 14.842 27.906 24.006 37.711-13.94-4.927-27.1-12.019-38.965-21.082zm78.962 28.501c-20.172-3.898-38.764-23.397-51.568-54.19 16.177-7.365 33.708-11.652 51.568-12.592zm0-81.797c-16.083.766-31.943 3.977-46.96 9.499 9.304-18.851 14.948-39.816 15.992-61.967h30.968zm0-67.469h-30.968c-.924-19.611-5.456-38.291-12.938-55.399 14.1 4.886 28.785 7.695 43.906 8.391zm0-62.02c-18.663-.95-36.583-5.458-53.412-13.448 12.825-33.455 32.25-54.709 53.412-58.798zm149.798 62.02h-52.175c-.637-24.195-4.372-47.398-10.825-68.173 9.441-5.521 18.358-12.055 26.602-19.564 21.173 23.521 34.646 54.102 36.398 87.737zm-47.019-98.363c-6.585 5.939-13.636 11.198-21.066 15.748-7.821-19.721-17.219-34.07-26.65-44.21 17.788 6.318 33.962 16.07 47.716 28.462zm-87.779-35.906c26.058 5.052 43.914 34.161 53.429 58.851-16.597 7.859-34.675 12.435-53.429 13.401zm0 87.271c20.429-.951 40.141-5.786 58.293-14.139 5.525 18.667 8.725 39.444 9.325 61.138h-67.618zm0 61.998h67.618c-.652 23.578-4.382 46.067-10.824 65.946-17.77-7.951-36.979-12.568-56.794-13.499zm0 134.269v-66.798c18.011.936 35.462 5.226 51.577 12.573-9.714 23.186-26.992 49.459-51.577 54.225zm40.064-7.444c10.668-11.47 18.72-25.473 24.84-39.817 6.927 4.097 13.535 8.8 19.753 14.083-13.058 11.099-28.133 19.888-44.593 25.734zm55.568-36.091c-7.894-6.851-16.375-12.841-25.315-17.933 7.375-21.926 11.621-46.798 12.306-72.801h52.175c-1.828 35.08-16.4 66.843-39.166 90.734zm-171.417-98.234h-15c0-62.033-50.468-112.5-112.5-112.5v-15c70.304 0 127.5 57.196 127.5 127.5zm-127.5 112.5v15c-70.304 0-127.5-57.196-127.5-127.5h15c0 62.033 50.468 112.5 112.5 112.5zm60.5-86.5c0 17.92-14.579 32.5-32.5 32.5h-9.5v28.5h-15v-28.5h-45.5v-15h70c9.649 0 17.5-7.851 17.5-17.5s-7.851-17.5-17.5-17.5h-45c-17.921 0-32.5-14.58-32.5-32.5s14.579-32.5 32.5-32.5h20.5v-27.5h15v27.5h34.5v15h-70c-9.649 0-17.5 7.851-17.5 17.5s7.851 17.5 17.5 17.5h45c17.921 0 32.5 14.58 32.5 32.5z" fill="url(#SVGID_3_)"/></g></svg>