<svg id="Capa_1" enable-background="new 0 0 511.5 511.5" height="512" viewBox="0 0 511.5 511.5" width="512" xmlns="http://www.w3.org/2000/svg" xmlns:xlink="http://www.w3.org/1999/xlink"><linearGradient id="SVGID_1_" gradientUnits="userSpaceOnUse" x1="255.75" x2="255.75" y1="7.5" y2="338.5"><stop offset=".00000036422" stop-color="#a8abff"/><stop offset="1" stop-color="#fac8ff"/></linearGradient><linearGradient id="SVGID_2_" gradientUnits="userSpaceOnUse" x1="255.75" x2="255.75" y1="338.5" y2="368.5"><stop offset=".00000083866" stop-color="#96d1f3"/><stop offset="1" stop-color="#ccfff4"/></linearGradient><linearGradient id="SVGID_3_" gradientUnits="userSpaceOnUse" x1="255.75" x2="255.75" y1="0" y2="511.432"><stop offset=".00000011981" stop-color="#174fa3"/><stop offset="1" stop-color="#b044af"/></linearGradient><g><g><path d="m330.75 82.5c0 41.421-33.579 75-75 75s-75-33.579-75-75 33.579-75 75-75 75 33.579 75 75zm-74.076 170.076s36.554 6.041 55.374-12.779 12.779-55.374 12.779-55.374-36.554-6.041-55.374 12.779-12.779 55.374-12.779 55.374zm-14.626-55.374c-18.82-18.82-55.374-12.779-55.374-12.779s-6.041 36.554 12.779 55.374 55.374 12.779 55.374 12.779 6.04-36.554-12.779-55.374zm116.941 141.298c-23.76-31.003-61.161-51-103.239-51s-79.479 19.997-103.239 51z" fill="url(#SVGID_1_)"/><path d="m488.75 368.5h-466c-8.284 0-15-6.716-15-15 0-8.284 6.716-15 15-15h466c8.284 0 15 6.716 15 15 0 8.284-6.716 15-15 15z" fill="url(#SVGID_2_)"/><path d="m221.913 412.202h-45.963" fill="none" stroke="#233d91" stroke-miterlimit="10" stroke-width="15"/><path d="m117.219 511.5 32.531-35 139.977-8 110.01-84.017-.03-.031c-17.349-17.999-45.201-20.734-65.72-6.455l-49.154 34.205h-65.179c12.333 0 22.279-10.217 21.837-22.648-.421-11.841-10.512-21.054-22.361-21.054h-49.465c-20.533 0-40.176 8.379-54.386 23.199l-7.894 8.233-92.971 111.568z" fill="#fff"/></g><path d="m488.75 331h-126.126c-24.687-30.512-60.397-48.719-99.374-50.794v-19.417c18.947 1.194 40.624-2.211 54.102-15.688 16.498-16.499 17.746-43.64 13.998-67.201-.1-.002-44.574-10.065-68.1 14.957v-28.214c41.987-3.804 75-39.183 75-82.144 0-45.49-37.01-82.5-82.5-82.5-45.491 0-82.5 37.01-82.5 82.5 0 42.961 33.013 78.34 75 82.144v28.214c-22.751-24.207-67.997-14.96-68.1-14.958-3.739 23.506-2.467 50.735 13.999 67.201 13.479 13.479 35.154 16.881 54.101 15.688v19.417c-38.977 2.075-74.688 20.282-99.374 50.794h-126.126c-12.407 0-22.5 10.094-22.5 22.5s10.093 22.501 22.5 22.501h99.421c-20.504 14.305-40.138 44.822-109.352 125.699l11.523 9.602 88.634-106.366 7.713-8.045c29.427-30.687 64.511-17.876 98.438-20.89 7.926 0 14.594 6.2 14.866 13.821.14 3.94-1.286 7.667-4.014 10.494-7.165 7.425-13.726 3.163-54.031 4.387v15h111.234l51.086-35.549c15.206-10.581 34.874-10.289 49.567-.02l-100.835 77.01-140.693 8.041-29.775 32.034 10.987 10.213 25.667-27.616 139.262-7.959c1.067-.815-13.108 10.017 118.493-90.552-5.236-5.364-6.241-6.647-9.24-9.305h87.044c12.406 0 22.5-10.094 22.5-22.5s-10.089-22.499-22.495-22.499zm-170.742-139.759c2.777 39.564-14.87 57.302-54.516 54.517-2.911-41.47 16.648-57.17 54.516-54.517zm-70 54.517c-39.571 2.781-57.297-14.874-54.517-54.516 39.59-2.779 57.294 14.885 54.517 54.516zm-59.758-163.258c0-37.22 30.28-67.5 67.5-67.5s67.5 30.28 67.5 67.5-30.28 67.5-67.5 67.5-67.5-30.28-67.5-67.5zm154.241 248.5h-173.482c47.652-47.996 125.758-48.068 173.482 0zm-60.012 73.702h-37.206c4.788-8.507 5.218-19.453-.152-28.702h78.604zm206.271-43.702c-12.712 0-411.618 0-466 0-9.926 0-9.916-15 0-15h466c4.136 0 7.5 3.364 7.5 7.5s-3.364 7.5-7.5 7.5zm-240.5-224.5v-14.5h-17.5v-15h34c4.687 0 8.5-3.813 8.5-8.5s-3.813-8.5-8.5-8.5h-18c-12.958 0-23.5-10.542-23.5-23.5s10.542-23.5 23.5-23.5h1.5v-14.5h15v14.5h17.5v15h-34c-4.687 0-8.5 3.813-8.5 8.5s3.813 8.5 8.5 8.5h18c12.958 0 23.5 10.542 23.5 23.5s-10.542 23.5-23.5 23.5h-1.5v14.5zm160-38.5h-15v-15h15zm0 50h-15v-15h15zm25-25h-15v-15h15zm-50 0h-15v-15h15zm-265 16h-15v-15h15zm0 50h-15v-15h15zm25-25h-15v-15h15zm-50 0h-15v-15h15z" fill="url(#SVGID_3_)"/></g></svg>