<svg id="Capa_1" enable-background="new 0 0 512 512" height="512" viewBox="0 0 512 512" width="512" xmlns="http://www.w3.org/2000/svg" xmlns:xlink="http://www.w3.org/1999/xlink"><linearGradient id="lg1"><stop offset=".00000036422" stop-color="#a8abff"/><stop offset="1" stop-color="#fac8ff"/></linearGradient><linearGradient id="SVGID_1_" gradientUnits="userSpaceOnUse" x1="37.5" x2="37.5" xlink:href="#lg1" y1="141" y2="461"/><linearGradient id="SVGID_2_" gradientUnits="userSpaceOnUse" x1="474.5" x2="474.5" xlink:href="#lg1" y1="51" y2="371"/><linearGradient id="SVGID_3_" gradientUnits="userSpaceOnUse" x1="256" x2="256" y1="124" y2="378.596"><stop offset=".00000083866" stop-color="#96d1f3"/><stop offset="1" stop-color="#ccfff4"/></linearGradient><linearGradient id="SVGID_4_" gradientUnits="userSpaceOnUse" x1="256" x2="256" y1="43.5" y2="468.5"><stop offset=".00000011981" stop-color="#174fa3"/><stop offset="1" stop-color="#b044af"/></linearGradient><g><g><path d="m67.5 141v320h-30c-16.569 0-30-13.431-30-30v-290z" fill="url(#SVGID_1_)"/><path d="m444.5 371v-320h30c16.569 0 30 13.431 30 30v290z" fill="url(#SVGID_2_)"/><path d="m474.5 341h-30v-230h-407c-16.569 0-30 13.431-30 30 0 16.568 13.431 30 30 30h30v230h407c16.569 0 30-13.431 30-30 0-16.568-13.431-30-30-30z" fill="url(#SVGID_3_)"/><g fill="#fff"><circle cx="121" cy="166" r="20"/><circle cx="392" cy="166" r="20"/><circle cx="121" cy="346" r="20"/><circle cx="392" cy="346" r="20"/><circle cx="256" cy="256" r="110"/></g></g><path d="m474.5 43.5h-37.5v60h-399.5c-20.678 0-37.5 16.822-37.5 37.5v290c0 20.678 16.822 37.5 37.5 37.5h37.5v-60h399.5c20.678 0 37.5-16.822 37.5-37.5v-290c0-20.678-16.822-37.5-37.5-37.5zm-414.5 365v45h-22.5c-12.407 0-22.5-10.093-22.5-22.5v-260.021c6.272 4.719 14.064 7.521 22.5 7.521h22.5zm414.5-15h-399.5v-222.5-7.5h-37.5c-12.407 0-22.5-10.093-22.5-22.5s10.093-22.5 22.5-22.5h399.5v222.5 7.5h37.5c12.406 0 22.5 10.093 22.5 22.5s-10.094 22.5-22.5 22.5zm22.5-52.479c-6.272-4.719-14.064-7.521-22.5-7.521h-22.5v-230-45h22.5c12.406 0 22.5 10.093 22.5 22.5zm-241-202.521c-64.79 0-117.5 52.71-117.5 117.5s52.71 117.5 117.5 117.5 117.5-52.71 117.5-117.5-52.71-117.5-117.5-117.5zm-40.13 23.187c-6.841 9.021-12.625 20.346-17.017 33.38-5.251-3.526-10.195-7.551-14.756-12.039 9.098-8.968 19.858-16.253 31.773-21.341zm-41.681 32.634c6.234 6.045 13.077 11.343 20.389 15.826-2.771 11.861-4.483 24.762-4.946 38.353h-35.857c1.472-20.246 8.849-38.877 20.414-54.179zm-20.413 69.179h35.857c.463 13.591 2.174 26.492 4.946 38.353-7.312 4.483-14.155 9.781-20.389 15.826-11.566-15.302-18.943-33.933-20.414-54.179zm30.321 65.473c4.561-4.489 9.504-8.513 14.756-12.039 4.393 13.033 10.176 24.358 17.017 33.38-11.915-5.089-22.675-12.374-31.773-21.341zm64.403 28.385c-15.116-4.612-28.319-22.875-36.222-48.043 11.309-5.336 23.579-8.603 36.222-9.532zm0-72.608c-13.93.893-27.484 4.257-40.062 9.829-2.06-9.751-3.375-20.209-3.792-31.079h43.854zm0-36.25h-43.855c.417-10.87 1.733-21.328 3.792-31.079 12.578 5.571 26.132 8.935 40.062 9.829v21.25zm0-36.282c-12.642-.93-24.913-4.196-36.222-9.532 7.902-25.168 21.105-43.431 36.222-48.043zm109.724 36.282h-35.857c-.463-13.591-2.174-26.492-4.945-38.353 7.312-4.483 14.155-9.78 20.389-15.825 11.565 15.301 18.942 33.932 20.413 54.178zm-30.321-65.473c-4.561 4.489-9.504 8.513-14.756 12.039-4.393-13.033-10.176-24.358-17.017-33.379 11.915 5.089 22.675 12.374 31.773 21.34zm-64.403-28.385c15.116 4.612 28.319 22.875 36.222 48.043-11.309 5.336-23.579 8.603-36.222 9.532zm0 72.608c13.93-.893 27.484-4.257 40.062-9.829 2.06 9.751 3.375 20.209 3.792 31.079h-43.854zm0 36.25h43.855c-.417 10.87-1.733 21.328-3.792 31.079-12.578-5.572-26.133-8.936-40.062-9.829v-21.25zm0 93.858v-57.575c12.642.93 24.913 4.196 36.222 9.532-7.903 25.168-21.106 43.431-36.222 48.043zm32.631-7.045c6.841-9.021 12.624-20.347 17.017-33.379 5.251 3.526 10.195 7.55 14.756 12.039-9.099 8.966-19.859 16.251-31.773 21.34zm41.68-32.635c-6.234-6.045-13.077-11.342-20.389-15.825 2.771-11.862 4.482-24.762 4.945-38.353h35.857c-1.471 20.246-8.848 38.877-20.413 54.178zm-216.811-124.178c15.164 0 27.5-12.336 27.5-27.5s-12.336-27.5-27.5-27.5-27.5 12.336-27.5 27.5 12.336 27.5 27.5 27.5zm0-40c6.893 0 12.5 5.607 12.5 12.5s-5.607 12.5-12.5 12.5-12.5-5.607-12.5-12.5 5.607-12.5 12.5-12.5zm271-15c-15.163 0-27.5 12.336-27.5 27.5s12.337 27.5 27.5 27.5 27.5-12.336 27.5-27.5-12.337-27.5-27.5-27.5zm0 40c-6.893 0-12.5-5.607-12.5-12.5s5.607-12.5 12.5-12.5 12.5 5.607 12.5 12.5-5.607 12.5-12.5 12.5zm-271 140c-15.164 0-27.5 12.336-27.5 27.5s12.336 27.5 27.5 27.5 27.5-12.336 27.5-27.5-12.336-27.5-27.5-27.5zm0 40c-6.893 0-12.5-5.607-12.5-12.5s5.607-12.5 12.5-12.5 12.5 5.607 12.5 12.5-5.607 12.5-12.5 12.5zm271-40c-15.163 0-27.5 12.336-27.5 27.5s12.337 27.5 27.5 27.5 27.5-12.336 27.5-27.5-12.337-27.5-27.5-27.5zm0 40c-6.893 0-12.5-5.607-12.5-12.5s5.607-12.5 12.5-12.5 12.5 5.607 12.5 12.5-5.607 12.5-12.5 12.5z" fill="url(#SVGID_4_)"/></g></svg>