<svg id="Capa_1" enable-background="new 0 0 511 511" height="512" viewBox="0 0 511 511" width="512" xmlns="http://www.w3.org/2000/svg" xmlns:xlink="http://www.w3.org/1999/xlink"><linearGradient id="SVGID_1_" gradientUnits="userSpaceOnUse" x1="255.5" x2="255.5" y1="163.5" y2="503.5"><stop offset=".00000083866" stop-color="#96d1f3"/><stop offset="1" stop-color="#ccfff4"/></linearGradient><linearGradient id="lg1"><stop offset=".00000036422" stop-color="#a8abff"/><stop offset="1" stop-color="#fac8ff"/></linearGradient><linearGradient id="SVGID_2_" gradientUnits="userSpaceOnUse" x1="165.5" x2="165.5" xlink:href="#lg1" y1="7.5" y2="167.5"/><linearGradient id="SVGID_3_" gradientUnits="userSpaceOnUse" x1="75.5" x2="75.5" xlink:href="#lg1" y1="167.499" y2="167.5"/><linearGradient id="SVGID_4_" gradientUnits="userSpaceOnUse" x1="345.5" x2="345.5" xlink:href="#lg1" y1="7.5" y2="167.5"/><linearGradient id="SVGID_5_" gradientUnits="userSpaceOnUse" x1="435.5" x2="435.5" xlink:href="#lg1" y1="167.5" y2="167.5"/><linearGradient id="SVGID_6_" gradientUnits="userSpaceOnUse" x1="255.5" x2="255.5" xlink:href="#lg1" y1="283.5" y2="423.5"/><linearGradient id="SVGID_7_" gradientUnits="userSpaceOnUse" x1="255.5" x2="255.5" y1="0" y2="511"><stop offset=".00000011981" stop-color="#174fa3"/><stop offset="1" stop-color="#b044af"/></linearGradient><g><g><path d="m425.5 356.377v-45.754l-36.413-12.949-13.794-33.301 16.592-34.905-32.353-32.353-34.905 16.592-33.301-13.794-12.949-36.413h-45.754l-12.949 36.413-33.301 13.794-34.905-16.592-32.353 32.353 16.592 34.905-13.794 33.301-36.413 12.949v45.754l36.413 12.949 13.794 33.301-16.592 34.905 32.353 32.353 34.905-16.592 33.301 13.794 12.949 36.413h45.754l12.949-36.413 33.301-13.794 34.905 16.592 32.353-32.353-16.592-34.905 13.794-33.301zm-170 67.123c-49.706 0-90-40.294-90-90s40.294-90 90-90 90 40.294 90 90-40.294 90-90 90z" fill="url(#SVGID_1_)"/><g><path d="m175.5 167.5c0-83.364 35.817-160 80-160-99.411 0-180 76.636-180 159.999 0-16.568 22.386-30 50-30 27.614.001 50 13.432 50 30.001z" fill="url(#SVGID_2_)"/><path d="m75.5 167.5v-.001z" fill="url(#SVGID_3_)"/><path d="m255.5 7.5c44.183 0 80 76.636 80 160 0-16.568 22.386-30 50-30s50 13.431 50 30c0-83.364-80.589-160-180-160z" fill="url(#SVGID_4_)"/><path d="" fill="url(#SVGID_5_)"/></g><path d="m330.5 423.5h-150l75-140z" fill="url(#SVGID_6_)"/><g><path d="m335.5 167.5c0-83.364-35.817-160-80-160s-80 76.636-80 160c0-16.569 35.817-36 80-36s80 19.431 80 36z" fill="#fff"/></g></g><path d="m383.498 264.582 17.433-36.674-39.838-39.839-36.675 17.433-27.142-11.242-13.606-38.26h-56.34l-13.606 38.26-27.142 11.242-36.675-17.433-39.838 39.839 17.433 36.674-11.243 27.143-38.259 13.605v56.34l38.26 13.605 11.243 27.143-17.433 36.674 39.838 39.839 36.675-17.433 27.142 11.242 13.605 38.26h56.34l13.606-38.26 27.142-11.242 36.675 17.433 39.838-39.839-17.433-36.674 11.243-27.143 38.259-13.605v-56.34l-38.26-13.605zm34.502 86.502-34.567 12.293-16.345 39.459 15.75 33.135-24.868 24.868-33.135-15.751-39.46 16.346-12.291 34.566h-35.168l-12.292-34.566-39.46-16.346-33.135 15.751-24.868-24.868 15.75-33.135-16.345-39.459-34.566-12.293v-35.168l34.567-12.293 16.345-39.459-15.75-33.135 24.868-24.868 33.135 15.751 39.46-16.346 12.291-34.566h35.168l12.292 34.566 39.46 16.346 33.135-15.751 24.868 24.868-15.75 33.135 16.345 39.459 34.566 12.293zm24.996-184.584c-.313-42.062-20.384-84.221-55.175-115.813-35.994-32.686-82.986-50.687-132.321-50.687-49.334 0-96.327 18.001-132.321 50.687-34.791 31.592-54.862 73.751-55.175 115.813l-.004 1h15c0-10.643 17.454-22.5 42.5-22.5s42.5 11.857 42.5 22.5h15c0-3.985 5.999-11.145 19.169-17.448 14.675-7.024 34.114-11.052 53.331-11.052s38.656 4.028 53.331 11.052c13.17 6.303 19.169 13.463 19.169 17.448h15c0-10.643 17.454-22.5 42.5-22.5s42.5 11.857 42.5 22.5h15v-1zm-273.956-23.716c-10.465-7.869-25.952-12.784-43.54-12.784-15.39 0-29.188 3.753-39.407 9.962 12.915-57.265 64.847-105.384 128.505-120.232-8.205 8.506-15.761 19.642-22.402 33.212-12.311 25.152-20.412 56.931-23.156 89.842zm146.266-6.263c-16.871-8.074-38.11-12.521-59.806-12.521s-42.935 4.447-59.806 12.521c-4.362 2.088-8.247 4.356-11.648 6.753 2.638-30.796 10.194-60.389 21.622-83.739 13.853-28.303 32.016-44.535 49.832-44.535s35.979 16.232 49.832 44.536c11.428 23.35 18.985 52.943 21.622 83.738-3.401-2.396-7.285-4.665-11.648-6.753zm70.194-6.521c-17.588 0-33.075 4.915-43.54 12.784-2.744-32.911-10.845-64.69-23.155-89.842-6.641-13.569-14.197-24.706-22.402-33.212 63.658 14.848 115.59 62.968 128.505 120.232-10.22-6.209-24.018-9.962-39.408-9.962zm-137.5 203.5h15v40h-15zm0 55h15v15h-15zm7.5-152.5c-53.762 0-97.5 43.738-97.5 97.5 0 25.1 9.354 48.621 26.442 66.759l-16.468 30.741h175.053l-16.469-30.741c17.088-18.138 26.442-41.659 26.442-66.759 0-53.762-43.738-97.5-97.5-97.5zm-62.474 180 62.474-116.617 62.474 116.617zm125.976-29.845-63.502-118.538-63.502 118.537c-12.302-14.762-18.998-33.139-18.998-52.654 0-45.49 37.009-82.5 82.5-82.5s82.5 37.01 82.5 82.5c0 19.515-6.696 37.892-18.998 52.655z" fill="url(#SVGID_7_)"/></g></svg>