<svg id="Capa_1" enable-background="new 0 0 511 511" height="512" viewBox="0 0 511 511" width="512" xmlns="http://www.w3.org/2000/svg" xmlns:xlink="http://www.w3.org/1999/xlink"><linearGradient id="SVGID_1_" gradientUnits="userSpaceOnUse" x1="255.5" x2="255.5" y1="30.5" y2="420.5"><stop offset=".00000083866" stop-color="#96d1f3"/><stop offset="1" stop-color="#ccfff4"/></linearGradient><linearGradient id="SVGID_2_" gradientUnits="userSpaceOnUse" x1="468.5" x2="468.5" y1="70.5" y2="480.5"><stop offset=".00000036422" stop-color="#a8abff"/><stop offset="1" stop-color="#fac8ff"/></linearGradient><linearGradient id="SVGID_3_" gradientUnits="userSpaceOnUse" x1="255.5" x2="255.5" y1="23" y2="488"><stop offset=".00000011981" stop-color="#174fa3"/><stop offset="1" stop-color="#b044af"/></linearGradient><g><g><path d="m463.5 30.5h-456v390h496v-350c0-22.091-17.909-40-40-40z" fill="url(#SVGID_1_)"/><path d="m463.5 110.5h-30v370h30c22.091 0 40-17.909 40-40v-370c0 22.091-17.909 40-40 40z" fill="url(#SVGID_2_)"/><g fill="#fff"><path d="m45.5 98.5h100v90h-100z"/><circle cx="221.5" cy="315.5" r="75"/><path d="m397.5 188.5h-100v-22c0-21.011 12.966-38.983 31.328-46.382-3.934-4.417-6.328-10.237-6.328-16.618v-10c0-13.807 11.193-25 25-25 13.807 0 25 11.193 25 25v10c0 6.381-2.394 12.2-6.328 16.618 18.362 7.399 31.328 25.371 31.328 46.382z"/></g></g><path d="m463.5 23h-463.5v405h426v60h37.5c26.191 0 47.5-21.309 47.5-47.5v-370c0-26.191-21.309-47.5-47.5-47.5zm32.5 417.5c0 17.921-14.58 32.5-32.5 32.5h-22.5v-355c14.432-1.521 35.598 5.34 55-12.89zm-32.5-337.5h-37.5v310h-411v-375h448.5c17.92 0 32.5 14.579 32.5 32.5s-14.58 32.5-32.5 32.5zm-86.504 14.123c4.362-9.407 2.607-16.465 3.004-23.623 0-17.921-14.58-32.5-32.5-32.5s-32.5 14.579-32.5 32.5c.398 7.168-1.329 14.279 3.004 23.623-7.961 4.734-14.537 11.23-19.311 18.877h-145.693v-45h-30v-4.5c0-15.163-12.336-27.5-27.5-27.5s-27.5 12.337-27.5 27.5v4.5h-30v105h115v-45h61v82.356c-41.987 3.804-75 39.183-75 82.144 0 45.49 37.009 82.5 82.5 82.5s82.5-37.01 82.5-82.5c0-42.961-33.013-78.34-75-82.144v-82.356h63.106c-3.353 12.092-1.632 19.06-2.106 45h115c-2.244-14.323 9.909-56.333-28.004-78.877zm-293.996-30.623c0-6.893 5.607-12.5 12.5-12.5s12.5 5.607 12.5 12.5v4.5h-25zm55 94.5h-85v-75h15v20.5h15v-20.5h25v20.5h15v-20.5h15zm151 134.5c0 37.22-30.28 67.5-67.5 67.5s-67.5-30.28-67.5-67.5 30.28-67.5 67.5-67.5 67.5 30.28 67.5 67.5zm41-222c0-9.649 7.851-17.5 17.5-17.5s17.5 7.851 17.5 17.5v10c0 9.649-7.851 17.5-17.5 17.5s-17.5-7.851-17.5-17.5zm60 87.5h-85c1.027-5.291-6.163-36.71 22.424-51.97 11.71 9.228 28.272 9.362 40.151 0 28.439 15.18 21.505 47.23 22.425 51.97zm-161 80.5v14.5h17.5v15h-34c-4.687 0-8.5 3.813-8.5 8.5s3.813 8.5 8.5 8.5h18c12.958 0 23.5 10.542 23.5 23.5s-10.542 23.5-23.5 23.5h-1.5v14.5h-15v-14.5h-17.5v-15h34c4.687 0 8.5-3.813 8.5-8.5s-3.813-8.5-8.5-8.5h-18c-12.958 0-23.5-10.542-23.5-23.5s10.542-23.5 23.5-23.5h1.5v-14.5z" fill="url(#SVGID_3_)"/></g></svg>