<svg id="Capa_1" enable-background="new 0 0 511 511" height="512" viewBox="0 0 511 511" width="512" xmlns="http://www.w3.org/2000/svg" xmlns:xlink="http://www.w3.org/1999/xlink"><linearGradient id="SVGID_1_" gradientUnits="userSpaceOnUse" x1="249" x2="249" y1="7" y2="320"><stop offset=".00000083866" stop-color="#96d1f3"/><stop offset="1" stop-color="#ccfff4"/></linearGradient><linearGradient id="lg1"><stop offset=".00000036422" stop-color="#a8abff"/><stop offset="1" stop-color="#fac8ff"/></linearGradient><linearGradient id="SVGID_2_" gradientUnits="userSpaceOnUse" x1="68" x2="68" xlink:href="#lg1" y1="383" y2="503"/><linearGradient id="SVGID_3_" gradientUnits="userSpaceOnUse" x1="444" x2="444" xlink:href="#lg1" y1="383" y2="503"/><linearGradient id="SVGID_4_" gradientUnits="userSpaceOnUse" x1="255.5" x2="255.5" y1="0" y2="511"><stop offset=".00000011981" stop-color="#174fa3"/><stop offset="1" stop-color="#b044af"/></linearGradient><g><g><path d="m326 280h-9c13.167-27.651 20-64.368 20-94.995 0-60.043-33.055-120.686-86-149.005 0-19.33-15.67-29-35-29v31l-74 67 22 33 25-11c10.203 3.826 21.538 3.231 31.284-1.642l10.716-5.358s11.127 7.932 11 12c-1.209 38.654-80 77-45 148h-11c-16.569 0-30 13.431-30 30v10h200v-10c0-16.569-13.431-30-30-30z" fill="url(#SVGID_1_)"/><circle cx="68" cy="443" fill="url(#SVGID_2_)" r="60"/><circle cx="444" cy="443" fill="url(#SVGID_3_)" r="60"/><path d="m326 443-70 45-70-45 70-45z" fill="#fff"/></g><path d="m97.196 418.196 10.607 10.607-51.303 51.303-27.304-27.303 10.607-10.607 16.697 16.698zm413.804 25.304c0 37.22-30.28 67.5-67.5 67.5-34.684 0-63.329-26.298-67.073-60h-48.724l-72.203 46.416-72.203-46.416h-48.724c-3.744 33.702-32.39 60-67.073 60-37.22 0-67.5-30.28-67.5-67.5s30.28-67.5 67.5-67.5c34.684 0 63.329 26.298 67.073 60h48.724l64.703-41.595v-66.405h-100v-17.5c0-20.561 16.634-37.302 37.151-37.491-15.927-43.951 8.18-75.868 27.845-101.894 10.238-13.55 19.929-26.376 20.933-37.606-.789-1.022-2.422-2.6-4.303-4.187l-6.487 3.244c-10.627 5.312-22.948 6.348-34.271 2.966l-28.114 12.37-29.081-43.622 76.327-69.107v-35.173h7.5c23.606 0 40.021 12.647 42.242 31.938 51.757 29.624 86.258 90.755 86.258 153.567 0 29.48-6.066 61.94-16.13 87.578 19.577 1.228 35.13 17.536 35.13 37.417v17.5h-100v66.405l64.703 41.595h48.724c3.744-33.702 32.39-60 67.073-60 37.22 0 67.5 30.28 67.5 67.5zm-391 0c0-28.948-23.552-52.5-52.5-52.5s-52.5 23.552-52.5 52.5 23.552 52.5 52.5 52.5 52.5-23.552 52.5-52.5zm81.291-170.5h110.382c10.741-24.605 17.327-57.618 17.327-87.495 0-58.923-32.969-116.146-82.037-142.392l-3.963-2.119v-4.494c0-14.686-11.407-19.401-20-20.867v26.194l-71.673 64.893 14.919 22.378 22.028-9.692 2.859 1.072c8.221 3.083 17.442 2.6 25.296-1.327l14.751-7.376 3.673 2.618c14.395 10.263 14.205 16.344 14.143 18.342-.51 16.291-11.936 31.413-24.032 47.424-19.991 26.457-40.635 53.787-23.673 92.841zm146.709 40v-2.5c0-12.406-10.094-22.5-22.5-22.5h-140c-12.406 0-22.5 10.094-22.5 22.5v2.5zm-36.369 130.5-56.131-36.084-56.131 36.084 56.131 36.084zm184.369 0c0-28.948-23.552-52.5-52.5-52.5s-52.5 23.552-52.5 52.5 23.552 52.5 52.5 52.5 52.5-23.552 52.5-52.5zm-32.804-30.304-19.696 19.697-19.696-19.696-10.607 10.607 19.696 19.696-19.696 19.696 10.607 10.607 19.696-19.696 19.696 19.696 10.607-10.607-19.696-19.696 19.696-19.696z" fill="url(#SVGID_4_)"/></g></svg>