<svg id="Capa_1" enable-background="new 0 0 512 512" height="512" viewBox="0 0 512 512" width="512" xmlns="http://www.w3.org/2000/svg" xmlns:xlink="http://www.w3.org/1999/xlink"><linearGradient id="lg1"><stop offset=".00000083866" stop-color="#96d1f3"/><stop offset="1" stop-color="#ccfff4"/></linearGradient><linearGradient id="SVGID_1_" gradientUnits="userSpaceOnUse" x1="101" x2="101" xlink:href="#lg1" y1="374" y2="504"/><linearGradient id="SVGID_2_" gradientUnits="userSpaceOnUse" x1="411" x2="411" xlink:href="#lg1" y1="404" y2="504"/><linearGradient id="SVGID_3_" gradientUnits="userSpaceOnUse" x1="256" x2="256" xlink:href="#lg1" y1="264" y2="324"/><linearGradient id="SVGID_4_" gradientUnits="userSpaceOnUse" x1="256" x2="256" y1="8" y2="461"><stop offset=".00000036422" stop-color="#a8abff"/><stop offset="1" stop-color="#fac8ff"/></linearGradient><linearGradient id="SVGID_5_" gradientUnits="userSpaceOnUse" x1="256" x2="256" y1=".5" y2="511.5"><stop offset=".00000011981" stop-color="#174fa3"/><stop offset="1" stop-color="#b044af"/></linearGradient><g><g><path d="m171 324h170v180h-170z" fill="#fff"/><path d="m31 374h140v130h-140z" fill="url(#SVGID_1_)"/><path d="m341 404h140v100h-140z" fill="url(#SVGID_2_)"/><path d="m206 264h100v60h-100z" fill="url(#SVGID_3_)"/><path d="m336 8v100c0 39.053-27.99 71.551-65 78.575v77.425h-30v-77.425c-37.01-7.024-65-39.522-65-78.575v-100zm-95.451 389.201-34.549 5.02 25 24.369-5.902 34.41 30.902-16.246 30.902 16.246-5.902-34.41 25-24.369-34.549-5.02-15.451-31.307z" fill="url(#SVGID_4_)"/></g><path d="m488.5 496.5v-100h-140v-80h-35v-60h-35v-63.938c28.633-7.625 51.535-29.44 60.686-57.423 36.063-3.616 64.314-34.14 64.314-71.139v-33.5h-60v-30h-175v30h-60v33.5c0 36.999 28.251 67.523 64.314 71.139 9.152 27.983 32.053 49.798 60.686 57.423v63.938h-35v60h-35v50h-140v130h-23.5v15h163.5 185 163.5v-15zm-145-388.5v-62.5h45v18.5c0 27.478-19.721 50.426-45.751 55.462.493-3.752.751-7.577.751-11.462zm-220-44v-18.5h45v62.5c0 3.885.258 7.71.751 11.462-26.03-5.036-45.751-27.984-45.751-55.462zm40 432.5h-125v-115h125zm20-388.5v-92.5h145v92.5c0 39.977-32.523 72.5-72.5 72.5s-72.5-32.523-72.5-72.5zm80 87.175v61.325h-15v-61.325c2.473.211 4.973.325 7.5.325s5.027-.114 7.5-.325zm-50 76.325h85v45h-85zm120 225h-155v-165h155zm140 0h-125v-85h125zm-225-348.5v-14.5h-17.5v-15h34c4.687 0 8.5-3.813 8.5-8.5s-3.813-8.5-8.5-8.5h-18c-12.958 0-23.5-10.542-23.5-23.5s10.542-23.5 23.5-23.5h1.5v-14.5h15v14.5h17.5v15h-34c-4.687 0-8.5 3.813-8.5 8.5s3.813 8.5 8.5 8.5h18c12.958 0 23.5 10.542 23.5 23.5s-10.542 23.5-23.5 23.5h-1.5v14.5zm-33.362 326.71 40.862-21.482 40.862 21.482-7.804-45.501 33.059-32.224-45.686-6.64-20.431-41.397-20.432 41.397-45.686 6.64 33.059 32.224zm6.979-67.252 23.412-3.401 10.471-21.216 10.471 21.216 23.412 3.401-16.941 16.515 3.999 23.317-20.941-11.01-20.94 11.01 3.999-23.317zm-98.617-207.958h-15v-15h15zm0 50h-15v-15h15zm25-40v15h-15v-15zm-50 15h-15v-15h15zm305 12h-15v-15h15zm-15 35h15v15h-15zm40-10h-15v-15h15zm-65 0v-15h15v15z" fill="url(#SVGID_5_)"/></g></svg>