<svg id="Capa_1" enable-background="new 0 0 513 513" height="512" viewBox="0 0 513 513" width="512" xmlns="http://www.w3.org/2000/svg" xmlns:xlink="http://www.w3.org/1999/xlink"><linearGradient id="SVGID_1_" gradientUnits="userSpaceOnUse" x1="227.881" x2="227.881" y1="7.5" y2="447.5"><stop offset=".00000083866" stop-color="#96d1f3"/><stop offset="1" stop-color="#ccfff4"/></linearGradient><linearGradient id="SVGID_2_" gradientUnits="userSpaceOnUse" x1="385.881" x2="385.881" y1="280.5" y2="505.5"><stop offset=".00000036422" stop-color="#a8abff"/><stop offset="1" stop-color="#fac8ff"/></linearGradient><linearGradient id="SVGID_3_" gradientUnits="userSpaceOnUse" x1="256.5" x2="256.5" y1="0" y2="513"><stop offset=".00000011981" stop-color="#174fa3"/><stop offset="1" stop-color="#b044af"/></linearGradient><g><g><circle cx="227.881" cy="227.5" fill="url(#SVGID_1_)" r="220"/><path d="m496.321 362.5h-51.16l-3.28-82h-165l-10 225h238z" fill="url(#SVGID_2_)"/></g><path d="m503.386 355h-46.005c-.361-3.389 1.788-14.621-6.098-27.192l-1.931-48.19c33.493-142.897-74.744-279.618-221.471-279.618-164.79 0-273.832 169.433-208.501 318.65 40.222 91.863 137.762 149.428 242.349 133.832l-2.689 60.518h253.803zm-332.09-332.338c-13.188 11.284-25.278 26.617-35.776 45.654-5.51 9.991-10.431 20.752-14.751 32.134-13.474-7.892-26.147-17.327-37.803-28.217 24.692-23.061 54.864-40.315 88.33-49.571zm-98.932 60.192c13.304 12.485 27.848 23.21 43.362 32.029-10.195 31.791-15.923 67.683-16.599 105.117h-83.6c1.845-52.874 23.094-100.893 56.837-137.146zm-56.839 152.146h83.603c.724 39.811 7.208 78.214 18.895 111.918-14.95 8.253-28.918 18.156-41.663 29.543-37.621-38.184-59.006-87.925-60.835-141.461zm71.76 151.815c11.11-9.81 23.201-18.421 36.09-25.71 12.638 30.94 29.286 55.253 48.295 71.379-31.041-8.478-59.857-23.979-84.385-45.669zm133.096 52.702c-32.918-4.128-63.518-35.258-83.645-85.358 26.295-12.529 54.37-19.353 83.645-20.348zm0-120.72c-31.075.986-60.893 8.125-88.856 21.248-10.726-31.672-16.694-67.668-17.398-105.045h106.254zm0-98.797h-106.252c.652-34.931 5.845-68.374 15.077-98.061 28.197 13.594 59.108 21.228 91.175 22.259zm0-90.811c-30.394-1.047-59.666-8.447-86.296-21.57 4.233-11.399 9.098-22.137 14.57-32.059 19.707-35.734 44.94-56.765 71.726-60.083zm222 219.811v6h-50v-6c0-13.785 11.215-25 25-25s25 11.215 25 25zm-25.681-114h23.537c-.447 12.818-2.035 25.549-4.75 38h-16.607c-.497-21.795 1.307-27.885-2.18-38zm23.534-15h-32.824c-11.676-11.894-29.036-15.076-43.779-8.972-2.348-.972-4.807-1.73-7.354-2.242-1.521-33.382-7.104-65.338-16.25-93.899 15.517-8.82 30.064-19.546 43.371-32.034 33.742 36.254 54.992 84.273 56.836 137.147zm-60.647 3.018c13.459.376 24.294 11.434 24.294 24.982v25h-15.5c-1.349-17.643 4.267-33.7-8.794-49.982zm-6.206 49.982h-19.5c1.599-16.812-4.935-33.447 9.75-44.79 14.686 11.344 8.151 27.985 9.75 44.79zm-.586-200.767c-11.656 10.89-24.33 20.326-37.806 28.219-10.826-28.57-27.373-57.973-50.615-77.814 33.502 9.249 63.707 26.513 88.421 49.595zm-137.414-56.757c25.751 3.216 50.225 22.922 69.598 56.318 6.33 10.911 11.908 22.933 16.689 35.829-26.627 13.12-55.896 20.519-86.287 21.565zm0 128.722c32.059-1.031 62.963-8.662 91.154-22.249 8.202 26.413 13.251 55.874 14.718 86.7-8.303 1.5-15.722 5.565-21.402 11.351h-84.471v-75.802zm112.294 78.82c-13.066 16.288-7.446 32.353-8.794 49.982h-15.5v-25c0-13.548 10.835-24.606 24.294-24.982zm-84.929 206.594c-8.886 5.431-18.055 8.752-27.365 9.914v-105.709c10.58.37 21.117 1.512 31.471 3.428zm4.777-107.475c-10.59-1.859-21.346-2.978-32.142-3.331v-83.806h75.18c-3.487 10.115-1.683 16.204-2.18 38h-38.674zm55.34 175.863h-48.142l9.333-210h24.326v14.5h15v-14.5h50v14.5h15v-14.5h46.294l1.02 25.457c-26.312-13.613-58.314 5.458-58.314 35.543v6h-45.007zm15.033 0 8.513-128h30.972v13.5h15v-13.5h50v13.5h15v-13.5h31.876l7.662 128zm94.485-71.5h-7.5v-15h22.5v-15h-22.5v-14h-15v14h-7.5c-12.407 0-22.5 10.093-22.5 22.5s10.093 22.5 22.5 22.5h7.5v15h-22.5v15h22.5v14h15v-14h7.5c12.407 0 22.5-10.093 22.5-22.5s-10.093-22.5-22.5-22.5zm-22.5 0h-7.5c-9.926 0-9.916-15 0-15h7.5zm15 30v-15c2.03.455 15-2.532 15 7.5 0 10.133-12.788 7.004-15 7.5z" fill="url(#SVGID_3_)"/></g></svg>