<svg id="Capa_1" enable-background="new 0 0 513 513" height="512" viewBox="0 0 513 513" width="512" xmlns="http://www.w3.org/2000/svg" xmlns:xlink="http://www.w3.org/1999/xlink"><linearGradient id="lg1"><stop offset=".00000036422" stop-color="#a8abff"/><stop offset="1" stop-color="#fac8ff"/></linearGradient><linearGradient id="SVGID_1_" gradientUnits="userSpaceOnUse" x1="257.25" x2="257.25" xlink:href="#lg1" y1="7.5" y2="243.5"/><linearGradient id="SVGID_2_" gradientUnits="userSpaceOnUse" x1="406" x2="406" xlink:href="#lg1" y1="7.5" y2="111.5"/><linearGradient id="SVGID_3_" gradientUnits="userSpaceOnUse" x1="242" x2="242" y1="175.5" y2="505.5"><stop offset=".00000083866" stop-color="#96d1f3"/><stop offset="1" stop-color="#ccfff4"/></linearGradient><linearGradient id="SVGID_4_" gradientUnits="userSpaceOnUse" x1="256.5" x2="256.5" y1="0" y2="513"><stop offset=".00000011981" stop-color="#174fa3"/><stop offset="1" stop-color="#b044af"/></linearGradient><g><g><path d="m406 7.5h-267.5c-16.569 0-30 13.431-30 30v206h267l.5-206c0-16.569 13.432-30 30-30z" fill="url(#SVGID_1_)"/><path d="m436 111.5h-60v-74c0-16.569 13.432-30 30-30 16.569 0 30 13.431 30 30z" fill="url(#SVGID_2_)"/><circle cx="242" cy="340.5" fill="url(#SVGID_3_)" r="165"/></g><path d="m443.5 119v-81.5c0-20.678-16.822-37.5-37.5-37.5h-267.5c-20.678 0-37.5 16.822-37.5 37.5v203.738c-19.833 28.09-31.5 62.338-31.5 99.262 0 95.117 77.383 172.5 172.5 172.5s172.5-77.383 172.5-172.5c0-36.924-11.667-71.172-31.5-99.262v-122.238zm-60-81.5c0-12.407 10.094-22.5 22.5-22.5s22.5 10.093 22.5 22.5v66.5h-45zm-258.045 197.166c9.329 8.568 19.445 15.999 30.181 22.229-7.252 23.137-11.393 49.075-12.042 76.104h-58.911c1.779-37.756 16.909-72.079 40.772-98.333zm10.609-10.617c16.084-14.645 35.206-26.005 56.293-33.026-7.745 7.854-14.898 17.626-21.271 29.183-3.838 6.959-7.302 14.407-10.378 22.262-8.718-5.274-16.97-11.427-24.644-18.419zm-51.381 123.951h58.912c.696 29.028 5.427 56.79 13.707 81.184-10.19 5.755-19.837 12.576-28.79 20.409-25.621-26.642-41.975-62.251-43.829-101.593zm54.777 111.949c7.282-6.257 15.057-11.788 23.227-16.561 2.562 6.079 5.361 11.898 8.399 17.406 6.373 11.556 13.526 21.329 21.271 29.183-19.623-6.534-37.541-16.828-52.897-30.028zm95.04 37.396c-18.697-3.232-36.324-18.492-50.279-43.794-2.975-5.395-5.707-11.119-8.192-17.12 18.235-8.417 38.031-13.295 58.472-14.254v75.168zm0-90.177c-22.243.953-43.804 6.132-63.695 15.15-7.335-22.344-11.542-47.721-12.209-74.318h75.904zm0-74.168h-75.903c.615-24.528 4.243-48.014 10.557-69.045 20.311 9.473 42.425 14.902 65.346 15.876zm0-68.178c-21.254-.989-41.736-6.179-60.492-15.169 3-7.87 6.408-15.305 10.213-22.204 13.955-25.303 31.582-40.562 50.279-43.794zm-118.5-42.002v-185.32c0-12.407 10.094-22.5 22.5-22.5h237.521c-4.719 6.272-7.521 14.064-7.521 22.5v74h-.5v111.32c-31.504-33.71-76.33-54.82-126-54.82s-94.496 21.11-126 54.82zm133.5 110.18v-53.169c22.922-.974 45.036-6.403 65.346-15.876 6.313 21.031 9.942 44.517 10.557 69.045zm75.903 15c-.667 26.597-4.873 51.974-12.209 74.318-19.89-9.017-41.452-14.197-63.695-15.15v-59.168zm-75.903-83.178v-81.167c18.697 3.232 36.324 18.492 50.279 43.794 3.805 6.899 7.212 14.334 10.213 22.204-18.756 8.99-39.238 14.18-60.492 15.169zm73.792-22.355c-3.076-7.854-6.54-15.303-10.378-22.262-6.373-11.556-13.526-21.329-21.271-29.183 21.087 7.021 40.208 18.381 56.293 33.026-7.674 6.993-15.926 13.146-24.644 18.419zm-73.792 254.878v-75.168c20.44.959 40.237 5.837 58.472 14.254-2.486 6-5.217 11.725-8.192 17.12-13.956 25.303-31.583 40.562-50.28 43.794zm42.143-7.368c7.745-7.854 14.898-17.626 21.271-29.183 3.038-5.508 5.836-11.327 8.399-17.406 8.17 4.772 15.944 10.304 23.227 16.561-15.356 13.2-33.274 23.494-52.897 30.028zm63.846-40.384c-8.953-7.833-18.6-14.654-28.79-20.409 8.28-24.393 13.01-52.156 13.707-81.184h58.912c-1.855 39.342-18.209 74.951-43.829 101.593zm43.828-116.593h-58.912c-.648-27.03-4.789-52.967-12.042-76.104 10.736-6.23 20.852-13.661 30.181-22.229 23.864 26.253 38.994 60.576 40.773 98.333zm-141.317-249.5h-7.5v-15h22.5v-15h-22.5v-17h-15v17h-7.5c-12.406 0-22.5 10.093-22.5 22.5s10.094 22.5 22.5 22.5h7.5v15h-22.5v15h22.5v17h15v-17h7.5c12.406 0 22.5-10.093 22.5-22.5s-10.094-22.5-22.5-22.5zm-22.5 0h-7.5c-4.136 0-7.5-3.364-7.5-7.5s3.364-7.5 7.5-7.5h7.5zm22.5 30h-7.5v-15h7.5c4.136 0 7.5 3.364 7.5 7.5s-3.364 7.5-7.5 7.5zm43-30h34v15h-34zm-150 0h34v15h-34z" fill="url(#SVGID_4_)"/></g></svg>