<svg id="Capa_1" enable-background="new 0 0 511.474 511.474" height="512" viewBox="0 0 511.474 511.474" width="512" xmlns="http://www.w3.org/2000/svg" xmlns:xlink="http://www.w3.org/1999/xlink"><linearGradient id="SVGID_1_" gradientUnits="userSpaceOnUse" x1="155.737" x2="155.737" y1="107.5" y2="403.974"><stop offset=".00000083866" stop-color="#96d1f3"/><stop offset="1" stop-color="#ccfff4"/></linearGradient><linearGradient id="SVGID_2_" gradientUnits="userSpaceOnUse" x1="355.737" x2="355.737" y1="107.5" y2="403.974"><stop offset=".00000036422" stop-color="#a8abff"/><stop offset="1" stop-color="#fac8ff"/></linearGradient><linearGradient id="SVGID_3_" gradientUnits="userSpaceOnUse" x1="255.737" x2="255.737" y1="69.997" y2="441.478"><stop offset=".00000011981" stop-color="#174fa3"/><stop offset="1" stop-color="#b044af"/></linearGradient><g><g><circle cx="155.737" cy="255.737" fill="url(#SVGID_1_)" r="148.237"/><circle cx="355.737" cy="255.737" fill="url(#SVGID_2_)" r="148.237"/></g><path d="m511.474 255.737c0-132.058-154.981-203.803-255.675-119.341-100.62-84.481-255.799-12.54-255.799 119.341 0 131.564 155.019 203.956 255.799 119.341 100.738 84.498 255.675 12.637 255.675-119.341zm-403.018-132.559c-10.198 11-19.098 25.636-26.1 43.323-7.333-4.487-14.235-9.636-20.638-15.395 13.489-12.133 29.326-21.698 46.738-27.928zm-57.357 38.548c8.047 7.312 16.807 13.76 26.183 19.232-6.398 20.602-10.051 43.602-10.689 67.279h-51.392c1.749-33.159 15.032-63.309 35.898-86.511zm-35.898 101.511h51.38c.684 25.63 4.882 50.167 12.15 71.81-8.796 5.015-17.142 10.91-24.913 17.648-22.43-23.567-36.793-54.878-38.617-89.458zm49.594 99.816c6.093-5.17 12.564-9.777 19.346-13.794 2.115 4.952 4.388 9.73 6.856 14.257 5.252 9.636 11.111 17.923 17.439 24.773-16.098-5.762-30.848-14.378-43.641-25.236zm83.442 32.684c-16.388-3.225-31.836-16.954-44.069-39.398-2.42-4.441-4.643-9.147-6.697-14.044 15.864-7.219 33.039-11.441 50.766-12.373zm0-80.842c-19.534.927-38.469 5.478-55.99 13.304-6.337-19.596-10.006-41.758-10.657-64.962h66.647zm0-66.658h-66.639c.602-21.179 3.743-41.724 9.219-60.244 17.982 8.24 37.558 12.993 57.42 13.955zm0-61.303c-18.225-.976-36.158-5.492-52.572-13.239 12.478-32.387 31.905-53.724 52.572-57.932zm96.447-40.263c-5.786 5.89-11.115 12.229-15.914 18.973-6.96-17.319-15.743-31.68-25.784-42.504 15.048 5.358 29.151 13.282 41.698 23.531zm-81.447-30.913c20.638 4.187 40.078 25.523 52.577 57.939-16.414 7.746-34.35 12.263-52.577 13.238zm0 86.19c17.518-.847 34.81-4.65 50.984-11.189-8.132 17.641-13.063 37.049-14.037 57.478h-36.947zm0 61.289h36.947c1.099 23.069 7.244 44.836 17.348 64.227-17.096-7.407-35.427-11.656-54.296-12.549v-51.678zm0 132.479v-65.779c17.694.927 34.849 5.125 50.766 12.384-12.509 29.955-30.937 49.424-50.766 53.395zm39.708-7.368c10.398-11.207 18.408-25.062 24.387-39.071 2.714 1.61 5.38 3.319 7.997 5.12 2.962 3.608 6.087 7.078 9.355 10.405-12.559 10.259-26.676 18.189-41.739 23.546zm44.784-42.489-.001-2.297-2.761-1.104c-18.765-23.916-29.967-54.034-29.967-86.721 0-77.602 63.134-140.737 140.737-140.737s140.737 63.134 140.737 140.737c0 131.48-164.71 190.667-248.745 90.122zm218.027 40.347 9.68 11.458c-20.705 17.492-45.398 30.441-71.412 37.449l-3.902-14.483c23.904-6.44 46.599-18.344 65.634-34.424zm-108.235 40.262.154 14.999c-5.174.055-10.448-.111-15.612-.489l1.095-14.96c4.75.349 9.59.499 14.363.45zm28.589-2.694 2.66 14.762c-5.105.92-10.316 1.633-15.489 2.12l-1.405-14.934c4.754-.448 9.543-1.103 14.234-1.948zm-126.095-26.72c20.881 14.188 44.055 23.379 68.878 27.316l-2.35 14.814c-27.02-4.285-52.24-14.285-74.959-29.724zm126.095-309.353c-4.691-.845-9.48-1.5-14.234-1.948l1.405-14.934c5.173.487 10.384 1.2 15.489 2.12zm79.646 37.568c-19.035-16.081-41.73-27.984-65.634-34.424l3.902-14.483c26.013 7.008 50.707 19.958 71.412 37.449zm-122.599-39.813-1.095-14.96c5.165-.378 10.42-.545 15.612-.489l-.154 14.999c-4.771-.044-9.612.102-14.363.45zm-83.142 28.964-8.431-12.406c22.72-15.439 47.94-25.439 74.959-29.724l2.35 14.814c-24.823 3.937-47.997 13.128-68.878 27.316zm100.985 30.08h-15v-15h15zm0 237h-15v-15h15zm-133.5-133.5h15v15h-15zm252 15h-15v-15h15zm-209.792-101.898 10.606 10.606-10.606 10.606-10.606-10.606zm167.584 188.797-10.606-10.606 10.606-10.606 10.606 10.606zm0-167.585-10.606-10.606 10.606-10.606 10.606 10.606zm-167.584 146.372 10.606 10.606-10.606 10.606-10.606-10.606zm120.427-24.945-44.135-45.185v-100.056h15v93.945l39.865 40.814z" fill="url(#SVGID_3_)"/></g></svg>