<svg id="Capa_1" enable-background="new 0 0 511 511" height="512" viewBox="0 0 511 511" width="512" xmlns="http://www.w3.org/2000/svg" xmlns:xlink="http://www.w3.org/1999/xlink"><linearGradient id="SVGID_1_" gradientUnits="userSpaceOnUse" x1="255.5" x2="255.5" y1="105.5" y2="475.5"><stop offset=".00000083866" stop-color="#96d1f3"/><stop offset="1" stop-color="#ccfff4"/></linearGradient><linearGradient id="SVGID_2_" gradientUnits="userSpaceOnUse" x1="255.5" x2="255.5" y1="145.5" y2="475.5"><stop offset=".00000036422" stop-color="#a8abff"/><stop offset="1" stop-color="#fac8ff"/></linearGradient><linearGradient id="SVGID_3_" gradientUnits="userSpaceOnUse" x1="255.5" x2="255.5" y1="28" y2="483"><stop offset=".00000011981" stop-color="#174fa3"/><stop offset="1" stop-color="#b044af"/></linearGradient><g><g><path d="m483.5 105.5h-456c-11.046 0-20 8.954-20 20v140h18v180c0 16.569 13.431 30 30 30h400c16.569 0 30-13.431 30-30v-180h18v-140c0-11.046-8.954-20-20-20z" fill="url(#SVGID_1_)"/><path d="m330.5 220.5c0 41.421-33.579 75-75 75s-75-33.579-75-75 33.579-75 75-75 75 33.579 75 75zm-74.076 170.076s36.554 6.041 55.374-12.779 12.779-55.374 12.779-55.374-36.554-6.041-55.374 12.779-12.779 55.374-12.779 55.374zm-14.626-55.374c-18.82-18.82-55.374-12.779-55.374-12.779s-6.041 36.554 12.779 55.374 55.374 12.779 55.374 12.779 6.041-36.554-12.779-55.374zm116.702 140.298c-23.705-30.395-61.019-50-103-50s-79.295 19.605-103 50z" fill="url(#SVGID_2_)"/><g fill="#fff"><g><path d="m130.5 226.5h-50v70h-15v30h15v25.5c0 13.531 10.969 24.5 24.5 24.5h1c13.531 0 24.5-10.969 24.5-24.5v-25.5h15v-30h-15z"/><path d="m430.5 296.5v-69h-49v69h-15v30h15v25.5c0 13.531 10.969 24.5 24.5 24.5s24.5-10.969 24.5-24.5v-25.5h15v-30z"/></g><path d="m170.5 35.5v70h30v-40h110v40h30v-70z"/></g></g><path d="m223 204.5c0-12.958 10.542-23.5 23.5-23.5h1.5v-14.5h15v14.5h17.5v15h-34c-4.687 0-8.5 3.813-8.5 8.5s3.813 8.5 8.5 8.5h18c12.958 0 23.5 10.542 23.5 23.5s-10.542 23.5-23.5 23.5h-1.5v14.5h-15v-14.5h-17.5v-15h34c11.25 0 11.235-17 0-17h-18c-12.958 0-23.5-10.542-23.5-23.5zm288-79v147.5h-18v172.5c0 20.678-16.822 37.5-37.5 37.5h-400c-20.678 0-37.5-16.822-37.5-37.5v-172.5h-18v-147.5c0-15.164 12.336-27.5 27.5-27.5h135.5v-70h185v70h135.5c15.164 0 27.5 12.336 27.5 27.5zm-333-27.5h15v-40h125v40h15v-55h-155zm30-25v25h95v-25zm40 345.203v-19.414c-55.093 3.468-76.6-29.447-68.1-82.889 23.627-3.757 51.649-2.547 68.1 14.958v-28.214c-22.512-2.039-42.446-13.144-56.092-29.644h-53.908v16h15v45h-15v18c0 17.645-14.355 32-32 32h-1c-17.645 0-32-14.355-32-32v-18h-15v-45h15v-16h-40v172.5c0 12.406 10.093 22.5 22.5 22.5h93.405c24.626-29.909 60.236-47.757 99.095-49.797zm-175-114.203v15h65v-15zm50-15v-55h-35v55zm-35 45v18c0 22.678 35 22.657 35 0v-18zm167.5-46c37.22 0 67.5-30.28 67.5-67.5s-30.28-67.5-67.5-67.5-67.5 30.28-67.5 67.5 30.28 67.5 67.5 67.5zm-62.259 41.242c-2.775 39.564 14.876 57.309 54.517 54.516 2.898-41.361-16.545-57.188-54.517-54.516zm148.534 138.758c-46.924-46.124-124.523-47.209-172.55 0zm136.225-195h-40v16h15v45h-15v18c0 17.645-14.355 32-32 32s-32-14.355-32-32v-18h-15v-45h15v-16h-54.908c-13.646 16.5-33.58 27.604-56.092 29.644v28.214c16.495-17.545 44.431-18.722 68.1-14.957 9.329 58.644-17.777 86.054-68.1 82.889v19.413c38.859 2.04 74.468 19.889 99.095 49.797h93.405c12.406 0 22.5-10.094 22.5-22.5zm-214.758 110.758c39.564 2.788 57.298-14.87 54.516-54.517-39.459-2.757-57.307 14.75-54.516 54.517zm110.758-79.758v15h64v-15zm49-15v-54h-34v54zm-34 45v18c0 9.374 7.626 17 17 17s17-7.626 17-17v-18zm107-208.5c0-6.893-5.607-12.5-12.5-12.5h-456c-6.893 0-12.5 5.607-12.5 12.5v132.5h58v-39h65v39h44.053c-27.819-54.263 11.544-120 73.447-120 61.898 0 101.272 65.726 73.447 120h45.053v-38h64v38h58z" fill="url(#SVGID_3_)"/></g></svg>