<svg id="Capa_1" enable-background="new 0 0 511 511" height="512" viewBox="0 0 511 511" width="512" xmlns="http://www.w3.org/2000/svg" xmlns:xlink="http://www.w3.org/1999/xlink"><linearGradient id="lg1"><stop offset=".00000036422" stop-color="#a8abff"/><stop offset="1" stop-color="#fac8ff"/></linearGradient><linearGradient id="SVGID_1_" gradientUnits="userSpaceOnUse" x1="259.786" x2="259.786" xlink:href="#lg1" y1="247.5" y2="468.556"/><linearGradient id="lg2"><stop offset=".00000083866" stop-color="#96d1f3"/><stop offset="1" stop-color="#ccfff4"/></linearGradient><linearGradient id="SVGID_2_" gradientUnits="userSpaceOnUse" x1="459.68" x2="459.68" xlink:href="#lg2" y1="257.345" y2="397.509"/><linearGradient id="SVGID_3_" gradientUnits="userSpaceOnUse" x1="55.246" x2="55.246" xlink:href="#lg2" y1="257.345" y2="395.511"/><linearGradient id="SVGID_4_" gradientUnits="userSpaceOnUse" x1="68" x2="68" xlink:href="#lg1" y1="42.5" y2="203.5"/><linearGradient id="SVGID_5_" gradientUnits="userSpaceOnUse" x1="443" x2="443" xlink:href="#lg1" y1="42.5" y2="203.5"/><linearGradient id="SVGID_6_" gradientUnits="userSpaceOnUse" x1="255.5" x2="255.5" y1="35" y2="476"><stop offset=".00000011981" stop-color="#174fa3"/><stop offset="1" stop-color="#b044af"/></linearGradient><g><g><path d="m416.384 269.712-26.466 5.42-71.422-27.632h-98.834l-98.602 27.632-18.568-3.802-24.209 124.18 41.13 5.411 2.293.9c-6.825 7.741-6.57 19.566.81 26.974 7.668 7.697 20.099 7.697 27.767 0l11.288-11.331.558.219c-4.963 7.641-4.109 17.977 2.573 24.684 7.668 7.697 20.099 7.697 27.767 0l7.769-7.798c-12.898 16.448 10.195 37.063 24.969 22.233l10.291-10.331 2.459.965c-4.322 16.517 15.945 28.231 27.982 16.147l3.701-3.716c.23.027 23.944 11.84 47.149-5.31l76.59-48.315 47.908-8.733z" fill="url(#SVGID_1_)"/><path d="m476.777 257.345-60.393 12.367 24.904 127.797 61.689-11.245z" fill="url(#SVGID_2_)"/><path d="m34.199 257.345-26.199 128.919 70.283 9.246 24.208-124.18z" fill="url(#SVGID_3_)"/><path d="m68 42.5c-33.413 0-60.5 27.087-60.5 60.5s60.5 100.5 60.5 100.5 60.5-67.087 60.5-100.5-27.087-60.5-60.5-60.5zm0 85c-15.74 0-28.5-12.76-28.5-28.5s12.76-28.5 28.5-28.5 28.5 12.76 28.5 28.5-12.76 28.5-28.5 28.5z" fill="url(#SVGID_4_)"/><path d="m443 42.5c-33.413 0-60.5 27.087-60.5 60.5s60.5 100.5 60.5 100.5 60.5-67.087 60.5-100.5-27.087-60.5-60.5-60.5zm0 85c-15.74 0-28.5-12.76-28.5-28.5s12.76-28.5 28.5-28.5 28.5 12.76 28.5 28.5-12.76 28.5-28.5 28.5z" fill="url(#SVGID_5_)"/></g><path d="m390.57 267.343-70.674-27.343h-103.217l-.823.777-95.071 26.641-92.494-18.944-28.181 144.171 110.239 14.637c-7.199 25.065 21.594 45.063 42.368 29.317 5.014 16.069 23.112 23.507 37.808 16.273 5.862 17.061 27.44 21.826 39.996 9.222l1.179-1.184c6.58 16.19 27.412 20.151 39.553 7.965l.282-.283c17.126 5.625 35.432 2.431 49.481-7.831l75.146-47.409 113.597-21.088-27.018-143.798zm-372.68 112.532 22.219-113.669 53.6 10.978-21.427 109.913zm118.51 47.193c-10.729 0-16.241-13.153-8.57-20.853 16.262-15.081 18.4-21.715 26.651-21.715 10.734 0 16.237 13.157 8.57 20.852-16.262 15.081-18.4 21.716-26.651 21.716zm50.756 10.006c-11.213 11.256-28.55-5.833-17.14-17.287l18.081-18.15c10.624-10.665 27.294 3.975 18.236 16.003-8.512 8.436-15.335 15.494-19.177 19.434zm54.935-7.848-22.198 22.283c-7.781 7.809-20.684-2.685-13.978-12.012 8.437-8.518-5.522 5.633 23.153-23.425 8.65-8.682 21.661 4.483 13.023 13.154zm30.5 17.053-11.965 12.011c-8.594 8.625-21.656-4.489-13.023-13.154 10.567-9.711 12.291-14.72 18.477-14.721 8.142 0 12.359 9.993 6.511 15.864zm40.197 1.938c-.64.305-11.871 9.844-28.836 7.833 16.51-18.138-1.411-46.791-24.978-39.578-4.145-15.904-22.61-23.17-36.419-14.302-5.522-17.838-27.206-24.998-42.205-13.63-3.424-10.973-13.62-19.04-25.87-19.04-16.757 0-22.766 13.332-35.018 23.862l-32.283-4.286 21.226-108.881 12.93 2.648 71.081-19.918-51.689 48.835 5.435 5.456c22.782 22.869 59.155 23.579 82.804 1.618l10.813-10.041c41.25 47.976 68.466 60.504 138.65 98.013zm81.781-49.824c-83.594-44.095-108.219-55.43-153.29-111.463l-22.519 20.909c-15.771 14.645-39.1 15.818-56.058 3.793l59.942-56.632h94.452l72.169 27.921 21.205-4.342 21.979 112.783zm52.629-9.77-22.032-113.054 45.648-9.348 21.427 114.04zm-379.198-173.924c21.748-24.441 68-78.972 68-111.699 0-37.495-30.505-68-68-68s-68 30.505-68 68c0 32.726 46.252 87.257 68 111.699zm0-164.699c29.224 0 53 23.776 53 53 0 22.532-34.281 67.248-53 89.122-18.719-21.874-53-66.59-53-89.122 0-29.224 23.776-53 53-53zm36 49c0-19.851-16.149-36-36-36s-36 16.149-36 36 16.149 36 36 36 36-16.149 36-36zm-57 0c0-11.58 9.42-21 21-21s21 9.42 21 21-9.42 21-21 21-21-9.42-21-21zm396 115.699c21.748-24.441 68-78.972 68-111.699 0-37.495-30.505-68-68-68s-68 30.505-68 68c0 32.726 46.252 87.257 68 111.699zm0-164.699c29.224 0 53 23.776 53 53 0 22.532-34.281 67.248-53 89.122-18.719-21.874-53-66.589-53-89.122 0-29.224 23.776-53 53-53zm36 49c0-19.851-16.149-36-36-36s-36 16.149-36 36 16.149 36 36 36 36-16.149 36-36zm-57 0c0-11.58 9.42-21 21-21s21 9.42 21 21-9.42 21-21 21-21-9.42-21-21zm-34 111v-15h15v15zm-281 0v-15h15v15zm266 0h-236v-15h236z" fill="url(#SVGID_6_)"/></g></svg>