<svg id="Capa_1" enable-background="new 0 0 511.522 511.522" height="512" viewBox="0 0 511.522 511.522" width="512" xmlns="http://www.w3.org/2000/svg" xmlns:xlink="http://www.w3.org/1999/xlink"><linearGradient id="SVGID_1_" gradientUnits="userSpaceOnUse" x1="317.011" x2="317.011" y1="155" y2="503.5"><stop offset=".00000036422" stop-color="#a8abff"/><stop offset="1" stop-color="#fac8ff"/></linearGradient><linearGradient id="lg1"><stop offset=".00000083866" stop-color="#96d1f3"/><stop offset="1" stop-color="#ccfff4"/></linearGradient><linearGradient id="SVGID_2_" gradientUnits="userSpaceOnUse" x1="317.011" x2="317.011" xlink:href="#lg1" y1="192" y2="412"/><linearGradient id="SVGID_3_" gradientUnits="userSpaceOnUse" x1="121.511" x2="121.511" xlink:href="#lg1" y1="7.5" y2="220"/><linearGradient id="SVGID_4_" gradientUnits="userSpaceOnUse" x1="255.761" x2="255.761" y1="0" y2="511.523"><stop offset=".00000011981" stop-color="#174fa3"/><stop offset="1" stop-color="#b044af"/></linearGradient><g><g><path d="m474.011 155h-314c-16.569 0-30 13.431-30 30v231c0 16.569 13.431 30 30 30h177.5l99 57.5v-57.5h37.5c16.569 0 30-13.431 30-30v-231c0-16.569-13.431-30-30-30z" fill="url(#SVGID_1_)"/><circle cx="317.011" cy="302" fill="url(#SVGID_2_)" r="110"/><path d="m160.011 155h75.5v-117.5c0-16.569-13.432-30-30-30h-168c-16.569 0-30 13.431-30 30v111.566c0 16.569 13.431 30 30 30h11.15v40.934l60.353-40.934h21.587c2.754-13.726 14.873-24.066 29.41-24.066z" fill="url(#SVGID_3_)"/></g><path d="m317.011 184.5c-64.79 0-117.5 52.71-117.5 117.5s52.71 117.5 117.5 117.5 117.5-52.71 117.5-117.5-52.71-117.5-117.5-117.5zm-46.776 26.311c-6.692 8.739-11.827 18.518-15.805 28.689h-18.6c9.19-11.908 20.931-21.749 34.405-28.689zm-44.03 43.689h23.273c-3.433 12.534-5.486 26.035-6.028 40h-28.663c1.043-14.348 5.054-27.884 11.418-40zm0 95c-6.364-12.116-10.375-25.652-11.418-40h28.663c.542 13.965 2.594 27.466 6.028 40zm9.626 15h18.6c2.668 6.821 5.775 13.249 9.328 19.15 2.053 3.41 4.217 6.588 6.477 9.538-13.475-6.939-25.216-16.78-34.405-28.688zm73.68 39.136c-12.202-2.802-23.676-12.397-32.902-27.723-2.162-3.591-4.142-7.408-5.941-11.413h38.843zm0-54.136h-44.434c-3.768-12.327-6.024-25.871-6.616-40h51.05zm0-55h-51.05c.592-14.129 2.848-27.673 6.616-40h44.434zm0-55h-38.843c7.612-16.945 20.677-34.964 38.843-39.136zm88.681 0h-18.6c-2.668-6.821-5.775-13.249-9.328-19.15-2.053-3.41-4.217-6.588-6.477-9.538 13.474 6.939 25.216 16.78 34.405 28.688zm-73.681-39.136c12.202 2.802 23.676 12.397 32.902 27.723 2.162 3.591 4.142 7.408 5.941 11.413h-38.843zm0 54.136h44.434c3.768 12.327 6.024 25.871 6.616 40h-51.05zm0 55h51.05c-.592 14.129-2.848 27.673-6.616 40h-44.434zm32.903 66.413c-9.227 15.326-20.701 24.921-32.902 27.723v-39.136h38.843c-1.8 4.005-3.78 7.822-5.941 11.413zm6.374 17.276c2.259-2.951 4.424-6.128 6.477-9.538 3.553-5.901 6.66-12.329 9.328-19.15h18.6c-9.19 11.907-20.932 21.748-34.405 28.688zm44.03-43.689h-23.273c3.433-12.534 5.486-26.035 6.028-40h28.663c-1.043 14.348-5.054 27.884-11.418 40zm11.418-55h-28.663c-.542-13.965-2.594-27.466-6.028-40h23.273c6.364 12.116 10.375 25.652 11.418 40zm-217.725-233h-160v-15h160zm0 31h-160v-15h160zm-86 16h15v15h-15zm45 15h-15v-15h15zm-119-15h59v15h-59zm432.5 39h-231v-110c0-20.678-16.822-37.5-37.5-37.5h-168c-20.678 0-37.5 16.822-37.5 37.5v111.566c0 20.678 16.822 37.5 37.5 37.5h3.649v47.583l70.157-47.583h11.193v229.434c0 20.678 16.822 37.5 37.5 37.5h175.62l108.381 58.022v-58.022h30c20.678 0 37.5-16.822 37.5-37.5v-231c0-20.678-16.822-37.5-37.5-37.5zm-349.016 24.066h-18.285l-50.55 34.284v-34.284h-18.649c-12.406 0-22.5-10.094-22.5-22.5v-111.566c0-12.406 10.094-22.5 22.5-22.5h168c12.406 0 22.5 10.094 22.5 22.5v110c-71.448.018-70.784-.392-76.719 1.034-12.071 2.887-21.928 11.66-26.297 23.032zm371.516 244.434c0 12.406-10.094 22.5-22.5 22.5h-45v47.978l-89.619-47.978h-179.381c-12.406 0-22.5-10.094-22.5-22.5.311-242.162-1.269-233.56 2.259-240.818 3.796-7.778 11.681-12.682 20.241-12.682h314c12.406 0 22.5 10.094 22.5 22.5zm-344-238.5h37.5v15h-22.5v22.5h-15zm314 208.5h15v37.5h-37.5v-15h22.5zm-22.5-208.5h37.5v37.5h-15v-22.5h-22.5zm-276.5 231h22.5v15h-37.5v-37.5h15z" fill="url(#SVGID_4_)"/></g></svg>