<svg id="Capa_1" enable-background="new 0 0 512.279 512.279" height="512" viewBox="0 0 512.279 512.279" width="512" xmlns="http://www.w3.org/2000/svg" xmlns:xlink="http://www.w3.org/1999/xlink"><linearGradient id="SVGID_1_" gradientUnits="userSpaceOnUse" x1="273.117" x2="273.117" y1="26.779" y2="488.779"><stop offset=".00000083866" stop-color="#96d1f3"/><stop offset="1" stop-color="#ccfff4"/></linearGradient><linearGradient id="SVGID_2_" gradientUnits="userSpaceOnUse" x1="114.617" x2="114.617" y1="191.779" y2="504.779"><stop offset=".00000036422" stop-color="#a8abff"/><stop offset="1" stop-color="#fac8ff"/></linearGradient><linearGradient id="SVGID_3_" gradientUnits="userSpaceOnUse" x1="256.139" x2="256.139" y1="0" y2="512.279"><stop offset=".00000011981" stop-color="#174fa3"/><stop offset="1" stop-color="#b044af"/></linearGradient><g><g><circle cx="273.117" cy="238.779" fill="url(#SVGID_1_)" r="231"/><path d="m192.117 464.779h-10.12l.12-1c13.167-27.651 20-63.368 20-93.995 0-60.043-33.055-120.686-86-149.005 0-19.33-15.67-29-35-29v31l-74 67 22 33 25-11c10.203 3.826 21.538 3.231 31.284-1.642l10.716-5.358s11.127 7.932 11 12c-1.209 38.654-80 77-45 148h-10c-16.569 0-30 13.431-30 30v10h200v-10c0-16.569-13.432-30-30-30z" fill="url(#SVGID_2_)"/></g><path d="m104.471 70.133c-50.433 50.433-74.013 117.818-69.246 185.64l-34.563 32.615 25.313 43.966 23.57-10.37c5.647 15.185 12.86 29.781 21.511 43.543-17.553 24.134-34.216 53.361-20.279 91.786-20.059.709-36.161 17.237-36.161 37.466v17.5h215c-1.022-11.726 3.455-25.972-7.963-40.563 148.928 32.782 289.963-80.522 289.963-232.937.001-210.538-256.423-319.368-407.145-168.646zm106.59-46.081c-15.382 12.567-31.291 31.469-45.252 58.773-10.607-5.803-20.768-12.48-30.366-19.992 22.221-17.425 47.813-30.733 75.618-38.781zm-87.327 48.633c11.191 9 23.125 16.921 35.633 23.706-15.988 36.309-25.47 79.491-27.381 125.176-2.821-1.877-5.692-3.672-8.627-5.352-2.222-19.29-18.635-31.938-42.242-31.938h-7.5v35.265l-23.967 22.618c-.017-1.128-.034-2.256-.034-3.381.001-65.862 28.643-125.153 74.118-166.094zm-58.205 249.013c7.961.395 15.987-1.235 23.226-4.854l6.488-3.244c1.881 1.586 3.514 3.164 4.302 4.186-.933 10.447-9.385 22.275-18.8 34.781-5.867-9.895-10.96-20.214-15.216-30.869zm25.051 42.739c12.097-16.01 23.523-31.133 24.033-47.423.063-1.999.253-8.08-14.143-18.342l-3.673-2.619-14.75 7.375c-7.855 3.928-17.076 4.412-25.297 1.328l-2.859-1.072-21.633 9.519-12.687-22.034 69.045-65.155v-26.102c8.593 1.466 20 6.181 20 20.867v4.494l3.962 2.12c73.101 39.101 104.9 139.036 64.255 229.887h-109.926c-16.961-39.056 3.682-66.385 23.673-92.843zm124.037 132.842h-185v-2.5c0-12.407 10.093-22.5 22.5-22.5h140c12.407 0 22.5 10.093 22.5 22.5zm51-35.138c-23.818-.78-47.059-5.28-69.284-13.416 8.151-23.333 12.936-50.496 13.246-76.274 18.161-5.38 36.956-8.411 56.038-9.04zm0-113.736c-19.198.594-38.132 3.461-56.49 8.566-3.069-41.445-20.821-81.24-48.209-110.692h104.699zm0-117.126h-118.924c.909-48.028 10.515-92.325 26.096-128.142 28.968 13.426 60.54 20.992 92.827 22.01v106.132zm0-121.14c-30.061-1.011-59.45-8.078-86.43-20.569 21.646-42.455 52.299-70.3 86.43-73.883zm230.86 121.14h-81.937c-.891-49.258-10.542-95.983-27.677-134.886 12.51-6.785 24.444-14.706 35.636-23.707 43.741 39.379 71.894 95.74 73.978 158.593zm-85.687-168.446c-9.599 7.513-19.761 14.19-30.369 19.994-14.058-27.493-29.971-46.303-45.214-58.765 27.791 8.049 53.372 21.353 75.583 38.771zm-130.173-47.146c39.152 4.104 68.338 38.602 86.411 73.892-26.975 12.485-56.358 19.55-86.411 20.56zm0 109.459c32.289-1.018 63.863-8.585 92.833-22.012 16.119 36.864 25.212 81.232 26.089 128.144h-118.922zm0 121.133h118.921c-.851 45.502-9.431 88.611-24.655 124.8-29.343-13.843-61.4-21.636-94.266-22.668zm0 215.591v-98.452c30.702 1.028 60.641 8.351 88.046 21.31-2.309 4.684-4.732 9.237-7.28 13.63-22.092 38.084-50.534 60.343-80.766 63.512zm54.59-8.375c14.413-11.784 27.642-27.771 39.151-47.61 2.674-4.611 5.218-9.384 7.642-14.292 10.958 6.114 21.432 13.168 31.298 21.12-22.788 18.401-49.244 32.427-78.091 40.782zm89.609-50.744c-11.45-9.445-23.69-17.742-36.546-24.83 16.257-38.244 25.405-83.746 26.271-131.642h81.937c-2.048 61.734-29.247 117.202-71.662 156.472z" fill="url(#SVGID_3_)"/></g></svg>