<svg id="Capa_1" enable-background="new 0 0 511 511" height="512" viewBox="0 0 511 511" width="512" xmlns="http://www.w3.org/2000/svg" xmlns:xlink="http://www.w3.org/1999/xlink"><linearGradient id="SVGID_1_" gradientUnits="userSpaceOnUse" x1="387.5" x2="387.5" y1="7.5" y2="227.5"><stop offset=".00000036422" stop-color="#a8abff"/><stop offset="1" stop-color="#fac8ff"/></linearGradient><linearGradient id="lg1"><stop offset=".00000083866" stop-color="#96d1f3"/><stop offset="1" stop-color="#ccfff4"/></linearGradient><linearGradient id="SVGID_2_" gradientUnits="userSpaceOnUse" x1="67.5" x2="67.5" xlink:href="#lg1" y1="363.5" y2="503.5"/><linearGradient id="SVGID_3_" gradientUnits="userSpaceOnUse" x1="227.5" x2="227.5" xlink:href="#lg1" y1="413.5" y2="503.5"/><linearGradient id="SVGID_4_" gradientUnits="userSpaceOnUse" x1="255.5" x2="255.5" y1="0" y2="511"><stop offset=".00000011981" stop-color="#174fa3"/><stop offset="1" stop-color="#b044af"/></linearGradient><g><path d="m480 141h-53.5l-36 86.5h-29l10-86.5-47-2.5-16 26h-37l22-47-22-47h37l16 26 47-2.5-10-86.5h29l36 86.5h53.5c12.979 0 23.5 10.521 23.5 23.5 0 12.979-10.521 23.5-23.5 23.5z" fill="url(#SVGID_1_)"/><path d="m107.5 503.5h-80c-11.046 0-20-8.954-20-20v-100c0-11.046 8.954-20 20-20h80c11.046 0 20 8.954 20 20v100c0 11.046-8.954 20-20 20z" fill="url(#SVGID_2_)"/><path d="m157.5 413.5h140v90h-140z" fill="url(#SVGID_3_)"/><path d="m312.691 172 15.86-25.773 34.581 1.839-10.049 86.934h42.419l36-86.5h48.498c17.094 0 31-13.906 31-31s-13.906-31-31-31h-48.498l-36-86.5h-42.419l10.05 86.935-34.581 1.839-15.861-25.774h-52.983l25.511 54.5-25.511 54.5zm-29.399-94h21.017l16.14 26.227 59.419-3.161-9.951-86.066h15.581l36 86.5h58.502c8.822 0 16 7.178 16 16s-7.178 16-16 16h-58.502l-36 86.5h-15.581l9.95-86.065-59.419-3.161-16.139 26.226h-21.017l18.489-39.5zm-175.792 278h-7.5v-65h12.5v-15h-90v15h12.5v65h-7.5c-15.163 0-27.5 12.337-27.5 27.5v100c0 15.163 12.337 27.5 27.5 27.5h80c15.163 0 27.5-12.337 27.5-27.5v-100c0-15.163-12.337-27.5-27.5-27.5zm-57.5-65h35v65h-35zm70 192.5c0 6.893-5.607 12.5-12.5 12.5h-80c-6.893 0-12.5-5.607-12.5-12.5v-100c0-6.893 5.607-12.5 12.5-12.5h80c6.893 0 12.5 5.607 12.5 12.5zm-90-95h15v90h-15zm30 0h15v90h-15zm30 0h15v90h-15zm170-12.5h-65v30h-45v105h155v-105h-45zm15 45h15v75h-15zm-65-30h35v15h-35zm-30 105h-15v-75h15zm80 0h-65v-75h65zm251-94.5c0 35.014-28.486 63.5-63.5 63.5h-57v-15h57c26.743 0 48.5-21.757 48.5-48.5s-21.757-48.5-48.5-48.5h-254c-20.678 0-37.5-16.822-37.5-37.5s16.822-37.5 37.5-37.5h70c14.612 0 26.5-11.888 26.5-26.5s-11.888-26.5-26.5-26.5h-206c-31.706 0-57.5-25.794-57.5-57.5s25.794-57.5 57.5-57.5h130v15h-130c-23.435 0-42.5 19.065-42.5 42.5s19.065 42.5 42.5 42.5h206c22.883 0 41.5 18.617 41.5 41.5s-18.617 41.5-41.5 41.5h-70c-12.406 0-22.5 10.094-22.5 22.5s10.094 22.5 22.5 22.5h254c35.014 0 63.5 28.486 63.5 63.5zm-150.5 48.5h15v15h-15zm-30 0h15v15h-15zm-113-325h-15v-15h15zm30 0h-15v-15h15z" fill="url(#SVGID_4_)"/></g></svg>