<svg id="Capa_1" enable-background="new 0 0 513.272 513.272" height="512" viewBox="0 0 513.272 513.272" width="512" xmlns="http://www.w3.org/2000/svg" xmlns:xlink="http://www.w3.org/1999/xlink"><linearGradient id="lg1"><stop offset=".00000083866" stop-color="#96d1f3"/><stop offset="1" stop-color="#ccfff4"/></linearGradient><linearGradient id="SVGID_1_" gradientUnits="userSpaceOnUse" x1="94.441" x2="94.441" xlink:href="#lg1" y1="256.831" y2="380.939"/><linearGradient id="lg2"><stop offset="0" stop-color="#ccfff4"/><stop offset="1" stop-color="#96d1f3"/></linearGradient><linearGradient id="SVGID_2_" gradientUnits="userSpaceOnUse" x1="104.943" x2="104.943" xlink:href="#lg2" y1="301.638" y2="149.953"/><linearGradient id="SVGID_3_" gradientUnits="userSpaceOnUse" x1="418.32" x2="418.32" xlink:href="#lg2" y1="380.939" y2="256.831"/><linearGradient id="SVGID_4_" gradientUnits="userSpaceOnUse" x1="407.818" x2="407.818" xlink:href="#lg1" y1="149.953" y2="301.638"/><linearGradient id="SVGID_5_" gradientUnits="userSpaceOnUse" x1="136.208" x2="419.758" y1="256.636" y2="256.636"><stop offset=".00000036422" stop-color="#a8abff"/><stop offset="1" stop-color="#fac8ff"/></linearGradient><linearGradient id="SVGID_6_" gradientUnits="userSpaceOnUse" x1="93.003" x2="376.553" y1="256.636" y2="256.636"><stop offset="0" stop-color="#fac8ff"/><stop offset="1" stop-color="#a8abff"/></linearGradient><linearGradient id="SVGID_7_" gradientUnits="userSpaceOnUse" x1="256.636" x2="256.636" y1="104.255" y2="409.017"><stop offset=".00000011981" stop-color="#174fa3"/><stop offset="1" stop-color="#b044af"/></linearGradient><g><g><path d="m103.004 301.638-44.808-44.807-50.205 50.204 56.498 12.601 17.406 61.303 98.995-98.995z" fill="url(#SVGID_1_)"/><path d="m180.786 223.857-77.782 77.781-73.904-73.904 77.782-77.781z" fill="url(#SVGID_2_)"/><path d="m454.565 256.831-44.808 44.807-77.886-19.694 98.995 98.995 17.406-61.303 56.497-12.601z" fill="url(#SVGID_3_)"/><path d="m331.975 223.857 77.782 77.781 73.904-73.904-77.782-77.781z" fill="url(#SVGID_4_)"/><path d="m398.544 114.861-262.336 262.337 21.213 21.213 262.337-262.337z" fill="url(#SVGID_5_)"/><path d="m376.553 377.198-21.213 21.213-262.337-262.337 21.213-21.213z" fill="url(#SVGID_6_)"/><g fill="#fff"><path d="m152.284 252.848-49.28 48.79 78.376-19.694z"/><path d="m360.967 252.848-29.096 29.096 77.886 19.694z"/></g></g><g><path d="m464.879 257.123 29.388-29.388-77.782-77.782 13.879-13.879-31.82-31.819-142.164 142.164-142.164-142.164-31.82 31.82 13.878 13.878-77.782 77.782 29.647 29.647-48.139 53.929 58.95 14.675 22.991 57.528 110.274-101.342-29.399-29.399 18.197-18.083 43.547 43.547-98.959 98.959 31.819 31.82 98.959-98.959 98.96 98.959 31.819-31.82-98.958-98.958 43.775-43.775 18.385 18.385-29.324 29.324 110.346 101.408 22.463-57.594 59.427-14.652zm-377.079 100.635-17.772-44.472-42.287-10.527 31.023-34.754 41.943 41.943 53.836-13.528zm78.923-79.864-39.063 9.816 24.516-24.363zm-63.702 13.155-63.314-63.314 67.175-67.175 63.525 63.525zm54.4 96.755-10.606-10.607 88.352-88.353 10.607 10.607zm208.525-10.606-10.606 10.607-88.353-88.353-31.82-31.82-131.558-131.558 10.607-10.607zm-88.352-109.566-10.607-10.606 131.558-131.558 10.607 10.606zm64.988-43.775 63.298-63.298 67.176 67.176-63.298 63.297zm18.385 39.598 24.24 24.24-38.695-9.784zm81.732 49.83-17.32 44.406-66.604-61.208 53.273 13.471 42.208-42.208 31.233 34.989z" fill="url(#SVGID_7_)"/></g></g></svg>