<svg id="Capa_1" enable-background="new 0 0 512.5 512.5" height="512" viewBox="0 0 512.5 512.5" width="512" xmlns="http://www.w3.org/2000/svg" xmlns:xlink="http://www.w3.org/1999/xlink"><linearGradient id="SVGID_1_" gradientUnits="userSpaceOnUse" x1="256" x2="256" y1="294" y2="512"><stop offset=".00000083866" stop-color="#96d1f3"/><stop offset="1" stop-color="#ccfff4"/></linearGradient><linearGradient id="SVGID_2_" gradientUnits="userSpaceOnUse" x1="353.224" x2="353.224" y1="8" y2="337"><stop offset=".00000036422" stop-color="#a8abff"/><stop offset="1" stop-color="#fac8ff"/></linearGradient><linearGradient id="SVGID_3_" gradientUnits="userSpaceOnUse" x1="256.25" x2="256.25" y1=".5" y2="512"><stop offset=".00000011981" stop-color="#174fa3"/><stop offset="1" stop-color="#b044af"/></linearGradient><g><g><path d="m256 294c-120.398 0-218 97.602-218 218h436c0-120.398-97.602-218-218-218z" fill="url(#SVGID_1_)"/><g fill="#fff"><path d="m201 365.85 11.329-21.85 40.463 3.237 4.046 29.133-19.422 8.902 13.757 29.133-19.422 3.237z"/><path d="m193 455.54-11.33 29.13-31.56-9.71-20.23 20.68h-91.27c3.83-51.63 25.63-98.25 59.18-133.62l53.93 27.16v22.66l17.81 6.47z"/><path d="m469.76 469.03-24.13 22.92-43.7 1.62-25.9-41.27-36.41-4.05-34.8-44.5 22.66-35.61 81.48-11.46c30.44 29.97 52.11 68.82 60.8 112.35z"/></g></g><g><path d="m297.785 337h27.265l63.619-137.235h89.066c15.058 0 27.265-12.207 27.265-27.265 0-15.058-12.207-27.265-27.265-27.265h-89.066l-63.619-137.235h-27.265l27.265 137.235h-69.072l-36.354-32.718h-18.177l18.177 59.983-18.177 59.983h18.177l36.354-32.718h69.072z" fill="url(#SVGID_2_)"/><g fill="none" stroke="#233d91" stroke-miterlimit="10" stroke-width="15"><path d="m408.97 356.68s0-.01-.01 0l-81.48 11.46-22.66 35.61 34.8 44.5 36.41 4.05 25.9 41.27 43.7-1.62 24.13-22.92"/><path d="m97.8 362.02 53.92 27.16v22.66l17.81 6.47 23.47 37.23-11.33 29.13-31.56-9.71-20.23 20.68h-91.27"/><path d="m201 365.85 11.329-21.85 40.463 3.237 4.046 29.133-19.422 8.902 13.757 29.133-19.422 3.237z"/></g></g><g><path d="m476.006 381.032-12.882 7.685c-21.625-36.251-52.5-66.335-89.288-86.997l7.346-13.078c39.069 21.942 71.859 53.891 94.824 92.39zm20.011 41.736-14.059 5.229c1.681 4.52 3.246 9.153 4.65 13.77l14.351-4.364c-1.493-4.907-3.155-9.831-4.942-14.635zm-5.605 33.026c4.372 18.299 6.588 37.209 6.588 56.206h15c0-20.169-2.354-40.252-6.998-59.691zm-.217-47.334c-2.076-4.688-4.323-9.375-6.68-13.929l-13.322 6.893c2.217 4.287 4.333 8.697 6.286 13.11zm-421.764-70.684 10.988 10.211c49.988-53.794 123.973-83.567 201.365-75.735l1.511-14.924c-81.153-8.213-159.453 21.896-213.864 80.448zm-15.674 44.657-12.641-8.076c-2.76 4.319-5.422 8.777-7.913 13.25l13.104 7.299c2.345-4.21 4.852-8.407 7.45-12.473zm17.087-23.501-11.58-9.534c-3.259 3.958-6.438 8.066-9.45 12.209l12.133 8.82c2.835-3.9 5.829-7.768 8.897-11.495zm-44.738 42.375c-16.658 34.687-25.106 71.929-25.106 110.693h15c0-36.497 7.95-71.555 23.628-104.199zm48.894-235.807h-15v15h15zm-30 0h-44v15h44zm75 15h70v-15h-70zm-15 0v-15h-15v15zm65 15h-110v15h110zm-125 0h-15v15h15zm125-60h-110v15h110zm-125 0h-15v15h15zm221.035 245.364-17.597 8.065 14.753 31.243-34.269 5.711-35.499-59.787 15.54-29.969 51.428 4.114zm-16.393-8.988-2.45-17.644-29.497-2.36-7.119 13.73 26.004 43.797 4.575-.762-12.761-27.023zm232.858 140.124h-15c0-9.399-.614-18.684-1.811-27.809l-15.949 15.149-50.86 1.885-26.278-41.872-35.946-3.998-40.009-51.16 27.354-42.987 69.135-9.963c-15.06-12.71-32.077-23.427-50.73-31.696l-11.566 24.951h-41.192l7.77-39.108c-66.188-12.856-135.451 6.298-185.914 54.629l48.717 24.539v22.025l15.285 5.553 26.855 42.599-15.229 39.153-33.857-10.417-19.239 19.667h-87.336c-.122 2.94-.2 5.891-.2 8.86h-15c0-141.28 128.692-248.582 268.841-221.32l16.572-83.414h-57.057l-36.354 32.718h-31.164l20.449-67.483-20.449-67.483h31.164l36.354 32.718h57.057l-27.265-137.236h41.192l63.619 137.235h84.276c19.169 0 34.765 15.596 34.765 34.765s-15.596 34.765-34.765 34.765h-84.276l-45.742 98.672c79.468 35.381 133.783 114.856 133.783 206.063zm-337.28-94.905v-23.295l-44.654-22.493c-28.576 31.742-47.646 72.193-52.706 116.833h79.864l21.221-21.693 29.263 9.003 7.432-19.107-20.085-31.861zm239.658-224.83h93.856c10.898 0 19.765-8.867 19.765-19.765s-8.867-19.765-19.765-19.765h-93.856l-63.618-137.235h-13.338l27.265 137.235h-81.087l-36.354-32.718h-5.189l15.904 52.483-15.904 52.483h5.189l36.354-32.718h81.086l-27.265 137.235h13.338zm77.704 274.188c-8.515-38.879-27.779-74.159-55.285-102.094l-74.338 10.713-17.966 28.232 29.592 37.84 36.873 4.102 25.523 40.668 36.539-1.354z" fill="url(#SVGID_3_)"/></g></g></svg>