<svg id="Capa_1" enable-background="new 0 0 512.177 512.177" height="512" viewBox="0 0 512.177 512.177" width="512" xmlns="http://www.w3.org/2000/svg" xmlns:xlink="http://www.w3.org/1999/xlink"><linearGradient id="SVGID_1_" gradientUnits="userSpaceOnUse" x1="256.133" x2="256.133" y1="7.601" y2="504.601"><stop offset=".00000083866" stop-color="#96d1f3"/><stop offset="1" stop-color="#ccfff4"/></linearGradient><linearGradient id="SVGID_2_" gradientUnits="userSpaceOnUse" x1="256.089" x2="256.089" y1=".101" y2="512.076"><stop offset=".00000011981" stop-color="#174fa3"/><stop offset="1" stop-color="#b044af"/></linearGradient><g><g><circle cx="256.133" cy="256.101" fill="url(#SVGID_1_)" r="248.5"/></g><path d="m31.153 342.683-13.996 5.395c-1.843-4.78-3.563-9.688-5.114-14.586l14.299-4.529c1.459 4.608 3.078 9.224 4.811 13.72zm454.772-159.442 14.299-4.529c-1.551-4.898-3.271-9.806-5.114-14.586l-13.996 5.395c1.732 4.495 3.351 9.111 4.811 13.72zm-48.773 253.879c-115.74 115.74-308.029 94.201-396.164-42.22l-7.519 29.078-14.521-3.755 14.394-55.669 55.67 14.395-3.756 14.522-32.791-8.479c9.416 14.856 20.326 28.482 32.471 40.726 14.855-13.376 31.042-24.851 48.246-34.288-13.341-38.105-20.798-81.954-21.532-127.83h-96.402c.534 17.391 2.924 34.636 7.125 51.369l-14.549 3.652c-40.43-161.049 80.83-318.52 248.309-318.52 87.472 0 168.534 44.689 215.463 117.694l6.105-30.189 14.703 2.974-11.398 56.359-56.358-11.398 2.973-14.702 32.283 6.529c-8.234-13.013-17.61-25.085-27.961-36.112-15.383 14.558-32.262 27-50.29 37.174 11.727 36.276 18.281 77.336 18.967 120.172h96.399c-.534-17.391-2.924-34.636-7.125-51.369l14.549-3.652c21.22 84.528-1.223 177.47-67.291 243.539zm-346.131-356.4c13.71 12.919 28.677 24.053 44.622 33.289 12.62-33.62 32.456-68.892 60.63-91.38-40.023 10.267-76.055 30.588-105.252 58.091zm20.627 167.881c.686-42.836 7.241-83.896 18.967-120.172-17.99-10.153-34.836-22.565-50.194-37.085-38.868 41.427-63.294 96.548-65.16 157.257zm84.574 240.931c-26.223-20.952-45.137-52.928-57.682-83.905-15.164 8.494-29.473 18.676-42.676 30.448 28.649 25.486 63.061 43.875 100.358 53.457zm52.411-114.353c-33.916 1.039-66.752 9.106-96.726 23.496 17.459 43.692 49.982 92.957 96.726 98.006zm0-111.578h-121.983c.716 43.45 7.648 84.896 20.021 120.955 31.64-14.979 66.24-23.357 101.961-24.387v-96.568zm0-102.53c-36.805-1.051-72.27-9.839-104.546-25.576-10.755 34.172-16.772 72.777-17.437 113.106h121.983zm0-145.549c-49.155 5.31-82.637 59.37-99.67 105.652 30.706 15.273 64.537 23.822 99.67 24.888zm67.411 7.149c28.148 22.49 47.966 57.736 60.579 91.338 15.978-9.256 30.974-20.416 44.708-33.369-29.593-27.833-65.824-47.831-105.287-57.969zm-52.411 123.391c35.133-1.066 68.964-9.615 99.67-24.888-17.011-46.221-50.483-100.339-99.67-105.652zm0 102.539h121.983c-.665-40.329-6.681-78.935-17.437-113.106-32.276 15.737-67.742 24.525-104.546 25.576zm0 111.569c35.721 1.03 70.322 9.408 101.961 24.387 12.373-36.059 19.305-77.505 20.021-120.955h-121.982zm96.726 38.505c-29.973-14.39-62.81-22.457-96.726-23.496v121.501c46.711-5.045 79.244-54.255 96.726-98.005zm55.955 37.322c-13.179-11.739-27.458-21.896-42.588-30.371-12.584 31.076-31.527 63.031-57.733 83.948 37.8-9.697 72.037-28.365 100.321-53.577zm80.691-172.396h-96.387c-.734 45.875-8.191 89.724-21.532 127.83 17.169 9.419 33.326 20.867 48.156 34.209 41.538-41.919 67.825-98.965 69.763-162.039z" fill="url(#SVGID_2_)"/></g></svg>