<svg height="512" viewBox="0 0 512 512" width="512" xmlns="http://www.w3.org/2000/svg"><g><g fill="#57a4ff"><path d="m304 224h32v32h-32v32h-32v-32h-32v-32h32v-32h32z"/><path d="m112 120v240h351l33-240zm176 200a80 80 0 1 1 80-80 80 80 0 0 1 -80 80z"/><circle cx="176" cy="440" r="32"/><circle cx="176" cy="440" r="8"/><circle cx="392" cy="440" r="8"/><circle cx="392" cy="440" r="32"/><path d="m336 224v32h-32v32h-32v-32h-32v-32h32v-32h32v32z"/><path d="m336 224v32h-32v32h-32v-32h-32v-32h32v-32h32v32z"/></g><g fill="#004fac"><path d="m502.03 114.742a8 8 0 0 0 -6.03-2.742h-376v-40a8 8 0 0 0 -8-8h-16v-8a8 8 0 0 0 -8-8h-72a8 8 0 0 0 -8 8v32a8 8 0 0 0 8 8h72a8 8 0 0 0 8-8v-8h8v328a8 8 0 0 0 8 8h32.022a40 40 0 1 0 63.956 0h152.044a40 40 0 1 0 63.956 0h16.022a8 8 0 0 0 0-16h-320v-32h343a8 8 0 0 0 7.925-6.91l33-240a8 8 0 0 0 -1.895-6.348zm-422.03-34.742h-56v-16h56zm120 360a24 24 0 1 1 -24-24 24.028 24.028 0 0 1 24 24zm216 0a24 24 0 1 1 -24-24 24.028 24.028 0 0 1 24 24zm40.025-88h-336.025v-224h366.825z"/><circle cx="176" cy="440" r="8"/><circle cx="392" cy="440" r="8"/><path d="m288 328a88 88 0 1 0 -88-88 88.1 88.1 0 0 0 88 88zm0-160a72 72 0 1 1 -72 72 72.081 72.081 0 0 1 72-72z"/><path d="m264 264v24a8 8 0 0 0 8 8h32a8 8 0 0 0 8-8v-24h24a8 8 0 0 0 8-8v-32a8 8 0 0 0 -8-8h-24v-24a8 8 0 0 0 -8-8h-32a8 8 0 0 0 -8 8v24h-24a8 8 0 0 0 -8 8v32a8 8 0 0 0 8 8zm-16-32h24a8 8 0 0 0 8-8v-24h16v24a8 8 0 0 0 8 8h24v16h-24a8 8 0 0 0 -8 8v24h-16v-24a8 8 0 0 0 -8-8h-24z"/></g></g></svg>