<svg height="512" viewBox="0 0 512 512" width="512" xmlns="http://www.w3.org/2000/svg"><g><g fill="#57a4ff"><path d="m304 136v160h-96v-160h-168v304a32 32 0 0 0 32 32h368a32 32 0 0 0 32-32v-304zm-144 304h-88v-48h88z"/><path d="m48 40h136v96h-168v-64a32 32 0 0 1 32-32z"/><path d="m496 72v64h-168v-96h136a32 32 0 0 1 32 32z"/></g><g fill="#004fac"><path d="m464 32h-416a40.04 40.04 0 0 0 -40 40v64a8 8 0 0 0 8 8h16v296a40.04 40.04 0 0 0 40 40h368a40.04 40.04 0 0 0 40-40v-296h16a8 8 0 0 0 8-8v-64a40.04 40.04 0 0 0 -40-40zm-272 16h128v80h-128zm104 96v144h-80v-144zm-272-16v-56a24.032 24.032 0 0 1 24-24h128v80zm440 312a24.032 24.032 0 0 1 -24 24h-368a24.032 24.032 0 0 1 -24-24v-296h152v152a8 8 0 0 0 8 8h96a8 8 0 0 0 8-8v-152h152zm24-312h-152v-80h128a24.032 24.032 0 0 1 24 24z"/><path d="m160 384h-88a8 8 0 0 0 -8 8v48a8 8 0 0 0 8 8h88a8 8 0 0 0 8-8v-48a8 8 0 0 0 -8-8zm-8 48h-72v-32h72z"/><path d="m184 400h56a8 8 0 0 0 0-16h-56a8 8 0 0 0 0 16z"/><path d="m200 432h-16a8 8 0 0 0 0 16h16a8 8 0 0 0 0-16z"/><path d="m241 408h-57a8 8 0 0 0 0 16h57a8 8 0 0 0 0-16z"/><path d="m416 415.2v16.8h24a8 8 0 0 1 0 16h-64a8 8 0 0 1 0-16h24v-16.8a40.069 40.069 0 0 1 -32-39.2v-16a8 8 0 0 1 16 0v16a24 24 0 0 0 48 0v-16a8 8 0 0 1 16 0v16a40.069 40.069 0 0 1 -32 39.2z"/></g></g></svg>