<svg height="512" viewBox="0 0 512 512" width="512" xmlns="http://www.w3.org/2000/svg"><g><g fill="#57a4ff"><path d="m304 160h-96a24.006 24.006 0 0 1 -24 24v264a24.006 24.006 0 0 1 24 24h96a24.006 24.006 0 0 1 24-24v-264a24.006 24.006 0 0 1 -24-24zm-64 32h32v64h-32zm32 256h-32v-64h32zm-16-96a32 32 0 1 1 32-32 32 32 0 0 1 -32 32z"/><path d="m304 160h-96a24.006 24.006 0 0 1 -24 24v264a24.006 24.006 0 0 1 24 24h96a24.006 24.006 0 0 1 24-24v-264a24.006 24.006 0 0 1 -24-24zm-64 32h32v64h-32zm32 256h-32v-64h32zm-16-96a32 32 0 1 1 32-32 32 32 0 0 1 -32 32z"/><path d="m128 16h256v32h-256z"/></g><g fill="#004fac"><path d="m384 8h-256a8 8 0 0 0 -8 8v32a8 8 0 0 0 8 8h256a8 8 0 0 0 8-8v-32a8 8 0 0 0 -8-8zm-8 32h-240v-16h240z"/><path d="m352 128h-192a8 8 0 0 0 -8 8v360a8 8 0 0 0 8 8h192a8 8 0 0 0 8-8v-360a8 8 0 0 0 -8-8zm-8 360h-176v-344h176z"/><path d="m256 360a40 40 0 1 0 -40-40 40.045 40.045 0 0 0 40 40zm0-64a24 24 0 1 1 -24 24 24.028 24.028 0 0 1 24-24z"/><path d="m184 456a16.019 16.019 0 0 1 16 16 8 8 0 0 0 8 8h96a8 8 0 0 0 8-8 16.019 16.019 0 0 1 16-16 8 8 0 0 0 8-8v-264a8 8 0 0 0 -8-8 16.019 16.019 0 0 1 -16-16 8 8 0 0 0 -8-8h-96a8 8 0 0 0 -8 8 16.019 16.019 0 0 1 -16 16 8 8 0 0 0 -8 8v264a8 8 0 0 0 8 8zm8-265.013a32.118 32.118 0 0 0 22.988-22.987h82.024a32.118 32.118 0 0 0 22.988 22.987v250.026a32.118 32.118 0 0 0 -22.988 22.987h-82.024a32.118 32.118 0 0 0 -22.988-22.987z"/><path d="m240 264h32a8 8 0 0 0 8-8v-64a8 8 0 0 0 -8-8h-32a8 8 0 0 0 -8 8v64a8 8 0 0 0 8 8zm8-64h16v48h-16z"/><path d="m272 376h-32a8 8 0 0 0 -8 8v64a8 8 0 0 0 8 8h32a8 8 0 0 0 8-8v-64a8 8 0 0 0 -8-8zm-8 64h-16v-48h16z"/><path d="m264 112v-40a8 8 0 0 0 -16 0v40a8 8 0 0 0 16 0z"/><path d="m296 112v-24a8 8 0 0 0 -16 0v24a8 8 0 0 0 16 0z"/><path d="m216 112a8 8 0 0 0 16 0v-8a8 8 0 0 0 -16 0z"/><path d="m224 88a8 8 0 0 0 8-8v-8a8 8 0 0 0 -16 0v8a8 8 0 0 0 8 8z"/></g></g></svg>