<svg height="512" viewBox="0 0 512 512" width="512" xmlns="http://www.w3.org/2000/svg"><g><g fill="#57a4ff"><path d="m80 112v240h128a16 16 0 0 1 16 16v16h-102.86l41.15 32h61.71v48h272v-352zm80 96a24 24 0 1 1 24-24 24.006 24.006 0 0 1 -24 24zm160 0a24 24 0 1 1 24-24 24.006 24.006 0 0 1 -24 24z"/><path d="m400 112h96v352h-96z"/><path d="m16 384h208v32h-208z"/><path d="m16 384h208v32h-208z"/></g><g fill="#004fac"><path d="m496 104h-48v-8a87.951 87.951 0 0 0 -148-64.31 87.951 87.951 0 0 0 -148 64.31v8h-72a8 8 0 0 0 -8 8v232h-40a24.032 24.032 0 0 0 -24 24v112a24.032 24.032 0 0 0 24 24h176a24.032 24.032 0 0 0 24-24v-8h264a8 8 0 0 0 8-8v-352a8 8 0 0 0 -8-8zm-184-8v8h-24v-8a71.611 71.611 0 0 1 12-39.74 71.611 71.611 0 0 1 12 39.74zm8 96a8 8 0 0 0 8-8v-13.83a16 16 0 1 1 -16 0v13.83a8 8 0 0 0 8 8zm-152-96a71.95 71.95 0 0 1 121.33-52.38 87.583 87.583 0 0 0 -17.33 52.38v8h-104zm-8 96a8 8 0 0 0 8-8v-13.83a16 16 0 1 1 -16 0v13.83a8 8 0 0 0 8 8zm56 288a8.011 8.011 0 0 1 -8 8h-176a8.011 8.011 0 0 1 -8-8v-56h192zm0-72h-192v-16h192zm0-32h-192v-8a8.011 8.011 0 0 1 8-8h176a8.011 8.011 0 0 1 8 8zm176 80h-160v-88a24.032 24.032 0 0 0 -24-24h-120v-224h64v33.01a32 32 0 1 0 16 0v-33.01h144v33.01a32 32 0 1 0 16 0v-33.01h64zm-64-352v-8a87.583 87.583 0 0 0 -17.33-52.38 71.95 71.95 0 0 1 121.33 52.38v8zm160 352h-80v-336h80z"/><path d="m440 392a8 8 0 0 0 16 0v-256a8 8 0 0 0 -16 0z"/><path d="m448 408a8 8 0 0 0 -8 8v16a8 8 0 0 0 16 0v-16a8 8 0 0 0 -8-8z"/><path d="m48 464h-8a8 8 0 0 0 0 16h8a8 8 0 0 0 0-16z"/><path d="m168 464h-8a8 8 0 0 0 0 16h8a8 8 0 0 0 0-16z"/><path d="m200 464h-8a8 8 0 0 0 0 16h8a8 8 0 0 0 0-16z"/></g></g></svg>