<svg height="512" viewBox="0 0 512 512" width="512" xmlns="http://www.w3.org/2000/svg"><g><g fill="#57a4ff"><g><path d="m176 208v208h-64a16 16 0 0 0 -32 0h-64v-48h24a16 16 0 0 0 0-32h-24v-32h128v-72h-80l16-24z"/><path d="m496 336v80h-56a16 16 0 0 0 -32 0h-232v-80z"/><path d="m96 376a40 40 0 1 0 40 40 40 40 0 0 0 -40-40zm0 56a16 16 0 1 1 16-16 16 16 0 0 1 -16 16z"/><path d="m424 376a40 40 0 1 0 40 40 40 40 0 0 0 -40-40zm0 56a16 16 0 1 1 16-16 16 16 0 0 1 -16 16z"/></g><path d="m208 176h96v160h-96z"/><path d="m368 176h96v160h-96z"/><path d="m192 128h112v48h-112z"/><path d="m368 128h112v48h-112z"/></g><g fill="#004fac"><path d="m96 392a24 24 0 1 0 24 24 24.027 24.027 0 0 0 -24-24zm0 32a8 8 0 1 1 8-8 8.009 8.009 0 0 1 -8 8z"/><path d="m424 392a24 24 0 1 0 24 24 24.027 24.027 0 0 0 -24-24zm0 32a8 8 0 1 1 8-8 8.009 8.009 0 0 1 -8 8z"/><path d="m496 328h-24v-144h8a8 8 0 0 0 8-8v-48a8 8 0 0 0 -8-8h-72.02a39.808 39.808 0 0 0 8.02-24v-8a40.04 40.04 0 0 0 -40-40h-8a39.947 39.947 0 0 0 -32 16.03 39.947 39.947 0 0 0 -32-16.03h-8a40.04 40.04 0 0 0 -40 40v8a39.808 39.808 0 0 0 8.02 24h-72.02a8 8 0 0 0 -8 8v48a8 8 0 0 0 8 8h8v144h-16v-120a8 8 0 0 0 -8-8h-96a8.033 8.033 0 0 0 -6.66 3.56l-15.96 23.95c-.01.01-.02.02-.02.03l-48.02 72.02a8.066 8.066 0 0 0 -1.34 4.44v112a8 8 0 0 0 8 8h32.68a47.99 47.99 0 0 0 94.64 0h233.36a47.99 47.99 0 0 0 94.64 0h24.68a8 8 0 0 0 8-8v-80a8 8 0 0 0 -8-8zm-427.72-88h67.72v56h-105.05zm-44.28 104h16a8 8 0 0 1 0 16h-16zm72 104a32 32 0 1 1 32-32 32.036 32.036 0 0 1 -32 32zm72-40h-24.68a47.99 47.99 0 0 0 -94.64 0h-24.68v-32h16a24 24 0 0 0 0-48h-16v-16h120a8 8 0 0 0 8-8v-72a8 8 0 0 0 -8-8h-65.05l5.33-8h83.72zm304-272v32h-96v-32zm-16 48v144h-80v-144zm-112-96a24.032 24.032 0 0 1 24-24h8a24.032 24.032 0 0 1 24 24v8a24.032 24.032 0 0 1 -24 24h-32zm16 48v192h-48v-192zm-88-48a24.032 24.032 0 0 1 24-24h8a24.032 24.032 0 0 1 24 24v32h-32a24.032 24.032 0 0 1 -24-24zm-72 48h96v32h-96zm96 48v144h-80v-144zm128 264a32 32 0 1 1 32-32 32.036 32.036 0 0 1 -32 32zm64-40h-16.68a47.99 47.99 0 0 0 -94.64 0h-192.68v-64h304z"/><path d="m144 320h-24a8 8 0 0 0 0 16h24a8 8 0 0 0 0-16z"/></g></g></svg>