<svg height="512" viewBox="0 0 512 512" width="512" xmlns="http://www.w3.org/2000/svg"><g><g fill="#57a4ff"><path d="m232 144h216v160h-216z"/><path d="m296 256a16 16 0 0 1 -16 16h-4a20 20 0 0 1 -20-20v-56a20 20 0 0 1 20-20h4a16 16 0 0 1 16 16z"/><rect height="96" rx="20" width="40" x="320" y="176"/><path d="m384 176h20a20 20 0 0 1 20 20v56a20 20 0 0 1 -20 20h-20a0 0 0 0 1 0 0v-96a0 0 0 0 1 0 0z"/><path d="m232 144h216v160h-216z"/><g><path d="m176 208v208h-64a16 16 0 0 0 -32 0h-64v-48h24a16 16 0 0 0 0-32h-24v-32h128v-72h-80l16-24z"/><path d="m496 336v80h-56a16 16 0 0 0 -32 0h-232v-80z"/><path d="m96 376a40 40 0 1 0 40 40 40 40 0 0 0 -40-40zm0 56a16 16 0 1 1 16-16 16 16 0 0 1 -16 16z"/><path d="m424 376a40 40 0 1 0 40 40 40 40 0 0 0 -40-40zm0 56a16 16 0 1 1 16-16 16 16 0 0 1 -16 16z"/></g></g><g fill="#004fac"><path d="m96 392a24 24 0 1 0 24 24 24.028 24.028 0 0 0 -24-24zm0 32a8 8 0 1 1 8-8 8.009 8.009 0 0 1 -8 8z"/><path d="m424 392a24 24 0 1 0 24 24 24.028 24.028 0 0 0 -24-24zm0 32a8 8 0 1 1 8-8 8.009 8.009 0 0 1 -8 8z"/><path d="m120 336h24a8 8 0 0 0 0-16h-24a8 8 0 0 0 0 16z"/><path d="m496 104h-320a8 8 0 0 0 -8 8v88h-88a8.033 8.033 0 0 0 -6.66 3.56l-15.96 23.95c-.01.01-.02.02-.02.03l-48.02 72.02a8.066 8.066 0 0 0 -1.34 4.44v112a8 8 0 0 0 8 8h32.68a47.99 47.99 0 0 0 94.64 0h233.36a47.99 47.99 0 0 0 94.64 0h24.68a8 8 0 0 0 8-8v-304a8 8 0 0 0 -8-8zm-427.72 136h67.72v56h-105.05zm-44.28 104h16a8 8 0 0 1 0 16h-16zm72 104a32 32 0 1 1 32-32 32.042 32.042 0 0 1 -32 32zm72-40h-24.68a47.99 47.99 0 0 0 -94.64 0h-24.68v-32h16a24 24 0 0 0 0-48h-16v-16h120a8 8 0 0 0 8-8v-72a8 8 0 0 0 -8-8h-65.05l5.33-8h83.72zm256 40a32 32 0 1 1 32-32 32.042 32.042 0 0 1 -32 32zm64-40h-16.68a47.99 47.99 0 0 0 -94.64 0h-192.68v-64h304zm0-80h-304v-208h304z"/><path d="m276 184h4a8.009 8.009 0 0 1 8 8 8 8 0 0 0 16 0 24.028 24.028 0 0 0 -24-24h-4a28.032 28.032 0 0 0 -28 28v56a28.032 28.032 0 0 0 28 28h4a24.028 24.028 0 0 0 24-24 8 8 0 0 0 -16 0 8.009 8.009 0 0 1 -8 8h-4a12.013 12.013 0 0 1 -12-12v-56a12.013 12.013 0 0 1 12-12z"/><path d="m340 168a28.032 28.032 0 0 0 -28 28v56a28 28 0 0 0 56 0v-56a28.032 28.032 0 0 0 -28-28zm12 84a12 12 0 0 1 -24 0v-56a12 12 0 0 1 24 0z"/><path d="m404 168h-20a8 8 0 0 0 -8 8v96a8 8 0 0 0 8 8h20a28.032 28.032 0 0 0 28-28v-56a28.032 28.032 0 0 0 -28-28zm12 84a12.013 12.013 0 0 1 -12 12h-12v-80h12a12.013 12.013 0 0 1 12 12z"/><path d="m232 312h216a8 8 0 0 0 8-8v-160a8 8 0 0 0 -8-8h-216a8 8 0 0 0 -8 8v160a8 8 0 0 0 8 8zm8-160h200v144h-200z"/></g></g></svg>