<svg height="512" viewBox="0 0 512 512" width="512" xmlns="http://www.w3.org/2000/svg"><g><g fill="#57a4ff"><path d="m424 136c0 48.6-88 152-88 152s-88-103.4-88-152a88.826 88.826 0 0 1 1.45-16h62.55a24 24 0 0 0 48 0h62.55a88.826 88.826 0 0 1 1.45 16z"/><path d="m422.55 120a88 88 0 0 0 -174.55 16c0 48.6 88 152 88 152s88-103.4 88-152a88.826 88.826 0 0 0 -1.45-16zm-86.55 24a24 24 0 1 1 24-24 24.006 24.006 0 0 1 -24 24z"/><g><path d="m176 216v208h-64a16 16 0 0 0 -32 0h-64v-48h24a16 16 0 0 0 0-32h-24v-32h128v-72h-80l16-24z"/><path d="m496 344v80h-56a16 16 0 0 0 -32 0h-232v-80z"/><path d="m96 384a40 40 0 1 0 40 40 40 40 0 0 0 -40-40zm0 56a16 16 0 1 1 16-16 16 16 0 0 1 -16 16z"/><path d="m424 384a40 40 0 1 0 40 40 40 40 0 0 0 -40-40zm0 56a16 16 0 1 1 16-16 16 16 0 0 1 -16 16z"/></g></g><g fill="#004fac"><path d="m96 400a24 24 0 1 0 24 24 24.028 24.028 0 0 0 -24-24zm0 32a8 8 0 1 1 8-8 8.009 8.009 0 0 1 -8 8z"/><path d="m424 400a24 24 0 1 0 24 24 24.028 24.028 0 0 0 -24-24zm0 32a8 8 0 1 1 8-8 8.009 8.009 0 0 1 -8 8z"/><path d="m120 344h24a8 8 0 0 0 0-16h-24a8 8 0 0 0 0 16z"/><path d="m496 112h-67.04a96.011 96.011 0 0 0 -185.92 0h-67.04a8 8 0 0 0 -8 8v88h-88a8.033 8.033 0 0 0 -6.66 3.56l-15.97 23.96a.035.035 0 0 0 -.01.02l-48.02 72.02a8.066 8.066 0 0 0 -1.34 4.44v112a8 8 0 0 0 8 8h32.68a47.99 47.99 0 0 0 94.64 0h233.36a47.99 47.99 0 0 0 94.64 0h24.68a8 8 0 0 0 8-8v-304a8 8 0 0 0 -8-8zm-427.72 136h67.72v56h-105.05zm-44.28 104h16a8 8 0 0 1 0 16h-16zm72 104a32 32 0 1 1 32-32 32.042 32.042 0 0 1 -32 32zm72-40h-24.68a47.99 47.99 0 0 0 -94.64 0h-24.68v-32h16a24 24 0 0 0 0-48h-16v-16h120a8 8 0 0 0 8-8v-72a8 8 0 0 0 -8-8h-65.05l5.33-8h83.72zm168-360a80.093 80.093 0 0 1 80 80c0 34.58-53.04 106.55-80 139.5-26.96-32.94-80-104.9-80-139.5a80.093 80.093 0 0 1 80-80zm88 400a32 32 0 1 1 32-32 32.042 32.042 0 0 1 -32 32zm64-40h-16.68a47.99 47.99 0 0 0 -94.64 0h-192.68v-64h304zm0-80h-304v-208h56.34c-.22 2.64-.34 5.31-.34 8 0 21.81 15.28 55.04 45.41 98.76 21.98 31.9 44.27 58.16 44.5 58.42a7.986 7.986 0 0 0 12.18 0c.23-.26 22.52-26.52 44.5-58.42 30.13-43.72 45.41-76.95 45.41-98.76 0-2.69-.12-5.36-.34-8h56.34z"/><path d="m336 152a32 32 0 1 0 -32-32 32.036 32.036 0 0 0 32 32zm0-48a16 16 0 1 1 -16 16 16.019 16.019 0 0 1 16-16z"/></g></g></svg>