<svg height="512" viewBox="0 0 512 512" width="512" xmlns="http://www.w3.org/2000/svg"><g><g fill="#57a4ff"><g><circle cx="256" cy="240" r="72"/><path d="m416 36v28h-320v-28a19.994 19.994 0 0 1 20-20h280a19.994 19.994 0 0 1 20 20z"/><path d="m96 416v60a19.994 19.994 0 0 0 20 20h280a19.994 19.994 0 0 0 20-20v-60zm160 56a16 16 0 1 1 16-16 16 16 0 0 1 -16 16z"/><circle cx="256" cy="240" r="72"/></g><circle cx="256" cy="240" r="72"/></g><g fill="#004fac"><path d="m396 8h-280a28.031 28.031 0 0 0 -28 28v440a28.031 28.031 0 0 0 28 28h280a28.031 28.031 0 0 0 28-28v-440a28.031 28.031 0 0 0 -28-28zm12 468a12.01 12.01 0 0 1 -12 12h-280a12.01 12.01 0 0 1 -12-12v-52h304zm0-68h-304v-336h304zm0-352h-304v-20a12.01 12.01 0 0 1 12-12h280a12.01 12.01 0 0 1 12 12z"/><path d="m224 48h64a8 8 0 0 0 0-16h-64a8 8 0 0 0 0 16z"/><path d="m256 432a24 24 0 1 0 24 24 24.027 24.027 0 0 0 -24-24zm0 32a8 8 0 1 1 8-8 8.009 8.009 0 0 1 -8 8z"/><path d="m256 160a80 80 0 1 0 80 80 80.093 80.093 0 0 0 -80-80zm0 144a64 64 0 1 1 64-64 64.072 64.072 0 0 1 -64 64z"/><path d="m269.66 117.66-24 24a8 8 0 0 1 -11.32-11.32l9.76-9.75a120.168 120.168 0 0 0 -108.1 119.41 8 8 0 0 1 -16 0c0-71.33 55.2-130 125.12-135.56l-10.78-10.78a8 8 0 0 1 11.32-11.32l24 24a8.015 8.015 0 0 1 0 11.32z"/><path d="m277.657 349.657a8 8 0 0 0 -11.314-11.314l-24 24a8 8 0 0 0 0 11.314l24 24a8 8 0 0 0 11.314-11.314l-10.779-10.779c69.922-5.564 125.122-64.235 125.122-135.564a8 8 0 0 0 -16 0 120.166 120.166 0 0 1 -108.1 119.41z"/><path d="m288 256a24.032 24.032 0 0 1 -24 24 8 8 0 0 1 -16 0h-8a8 8 0 0 1 0-16h24a8 8 0 0 0 0-16h-16a24 24 0 0 1 0-48 8 8 0 0 1 16 0h8a8 8 0 0 1 0 16h-24a8 8 0 0 0 0 16h16a24.032 24.032 0 0 1 24 24z"/></g></g></svg>