<svg height="512" viewBox="0 0 512 512" width="512" xmlns="http://www.w3.org/2000/svg"><g><g fill="#57a4ff"><g><path d="m296 352v79.06l-25.6-15.06h1.6v-32h-48v4.71l-103.2-60.71h151.2a24.006 24.006 0 0 0 24 24z"/><path d="m80 112v192h240v141.18l32 18.82h144v-352zm80 96a24 24 0 1 1 24-24 24.006 24.006 0 0 1 -24 24zm136-24a24 24 0 1 1 24 24 24.006 24.006 0 0 1 -24-24z"/><path d="m400 112h96v352h-96z"/></g><path d="m272 328h-208a24.006 24.006 0 0 1 -24 24v96a24.006 24.006 0 0 1 24 24h208a24.006 24.006 0 0 1 24-24v-96a24.006 24.006 0 0 1 -24-24zm-160 88h-48v-32h48zm56 16a32 32 0 1 1 32-32c0 17.67-11.66 32-32 32zm56-16v-32h48v32z"/><path d="m320 304h32v192h-32z"/><path d="m272 328h-208a24.006 24.006 0 0 1 -24 24v96a24.006 24.006 0 0 1 24 24h208a24.006 24.006 0 0 1 24-24v-96a24.006 24.006 0 0 1 -24-24zm-160 88h-48v-32h48zm56 16a32 32 0 1 1 32-32c0 17.67-11.66 32-32 32zm56-16v-32h48v32z"/></g><g fill="#004fac"><path d="m496 104h-48v-8a87.951 87.951 0 0 0 -148-64.31 87.951 87.951 0 0 0 -148 64.31v8h-72a8 8 0 0 0 -8 8v184h-56a8 8 0 0 0 -8 8v192a8 8 0 0 0 8 8h336a8 8 0 0 0 8-8v-24h136a8 8 0 0 0 8-8v-352a8 8 0 0 0 -8-8zm-184-8v8h-24v-8a71.611 71.611 0 0 1 12-39.74 71.611 71.611 0 0 1 12 39.74zm8 96a8 8 0 0 0 8-8v-13.83a16 16 0 1 1 -16 0v13.83a8 8 0 0 0 8 8zm-152-96a71.95 71.95 0 0 1 121.33-52.38 87.583 87.583 0 0 0 -17.33 52.38v8h-104zm-8 96a8 8 0 0 0 8-8v-13.83a16 16 0 1 1 -16 0v13.83a8 8 0 0 0 8 8zm152 296h-288v-176h288zm32 0h-16v-176h16zm48-32h-32v-152a8 8 0 0 0 -8-8h-264v-176h64v33.01a32 32 0 1 0 16 0v-33.01h144v33.01a32 32 0 1 0 16 0v-33.01h64zm-64-352v-8a87.583 87.583 0 0 0 -17.33-52.38 71.95 71.95 0 0 1 121.33 52.38v8zm160 352h-80v-336h80z"/><path d="m440 392a8 8 0 0 0 16 0v-256a8 8 0 0 0 -16 0z"/><path d="m448 408a8 8 0 0 0 -8 8v16a8 8 0 0 0 16 0v-16a8 8 0 0 0 -8-8z"/><path d="m168 360a40 40 0 0 0 0 80c23.552 0 40-16.448 40-40a40.045 40.045 0 0 0 -40-40zm0 64a24 24 0 1 1 24-24c0 11.071-6.285 24-24 24z"/><path d="m296 344a16.019 16.019 0 0 1 -16-16 8 8 0 0 0 -8-8h-208a8 8 0 0 0 -8 8 16.019 16.019 0 0 1 -16 16 8 8 0 0 0 -8 8v96a8 8 0 0 0 8 8 16.019 16.019 0 0 1 16 16 8 8 0 0 0 8 8h208a8 8 0 0 0 8-8 16.019 16.019 0 0 1 16-16 8 8 0 0 0 8-8v-96a8 8 0 0 0 -8-8zm-8 97.013a32.115 32.115 0 0 0 -22.987 22.987h-194.026a32.115 32.115 0 0 0 -22.987-22.987v-82.026a32.115 32.115 0 0 0 22.987-22.987h194.026a32.115 32.115 0 0 0 22.987 22.987z"/><path d="m224 376a8 8 0 0 0 -8 8v32a8 8 0 0 0 8 8h48a8 8 0 0 0 8-8v-32a8 8 0 0 0 -8-8zm40 32h-32v-16h32z"/><path d="m112 376h-48a8 8 0 0 0 -8 8v32a8 8 0 0 0 8 8h48a8 8 0 0 0 8-8v-32a8 8 0 0 0 -8-8zm-8 32h-32v-16h32z"/></g></g></svg>