<svg height="512" viewBox="0 0 512 512" width="512" xmlns="http://www.w3.org/2000/svg"><g><g fill="#57a4ff"><path d="m56 112v152h160v-152zm111 96h-63v-48h71z"/><path d="m232 408q0 4.05-.36 8h-24.13a65.965 65.965 0 0 0 .49-8 64 64 0 0 0 -128 0 65.965 65.965 0 0 0 .49 8h-24.13q-.36-3.945-.36-8a88 88 0 0 1 176 0z"/><path d="m248 112h56v56h-56z"/><path d="m328 112h56v56h-56z"/><path d="m448 360v16a16 16 0 0 1 -16 16h-8a16 16 0 0 1 -16-16v-16h-40v16a16 16 0 0 1 -16 16h-8a16 16 0 0 1 -16-16v-16h-40l32-40h96z"/><path d="m408 112h56v56h-56z"/><path d="m56 112v152h160v-152zm111 96h-63v-48h71z"/><path d="m248 112h56v56h-56z"/><path d="m328 112h56v56h-56z"/><path d="m408 112h56v56h-56z"/><path d="m144 320a88 88 0 0 0 -88 88q0 4.05.36 8a88 88 0 0 0 175.28 0q.36-3.945.36-8a88 88 0 0 0 -88-88zm0 152a64.017 64.017 0 0 1 -63.51-56 65.965 65.965 0 0 1 -.49-8 64 64 0 0 1 128 0 65.965 65.965 0 0 1 -.49 8 64.017 64.017 0 0 1 -63.51 56z"/><path d="m368 360v16a16 16 0 0 1 -16 16h-8a16 16 0 0 1 -16-16v-16z"/><path d="m448 360v16a16 16 0 0 1 -16 16h-8a16 16 0 0 1 -16-16v-16z"/><path d="m448 360h-160l32-40h96z"/><path d="m344 416h48v56h-48z"/><path d="m344 416h48v56h-48z"/><path d="m288 472h160v24h-160z"/><path d="m496 36v28h-480v-28a19.994 19.994 0 0 1 20-20h440a19.994 19.994 0 0 1 20 20z"/><g><circle cx="160" cy="232" r="8"/><path d="m120 232a8 8 0 0 1 -16 0c0-4.418 4.582-8 9-8s7 3.582 7 8z"/><path d="m88 144h16v16z"/></g></g><g fill="#004fac"><path d="m476 8h-440a28.031 28.031 0 0 0 -28 28v360a28.031 28.031 0 0 0 28 28h13.34a96 96 0 0 0 189.32 0h57.34v40h-8a8 8 0 0 0 -8 8v24a8 8 0 0 0 8 8h160a8 8 0 0 0 8-8v-24a8 8 0 0 0 -8-8h-8v-40h36a28.031 28.031 0 0 0 28-28v-360a28.031 28.031 0 0 0 -28-28zm-332 480a80 80 0 1 1 80-80 80.093 80.093 0 0 1 -80 80zm296 0h-144v-8h144zm-135.36-136 19.2-24h88.32l19.2 24zm95.36 16v8a8.011 8.011 0 0 1 -8 8h-8a8.011 8.011 0 0 1 -8-8v-8zm-40 0v8a8.011 8.011 0 0 1 -8 8h-8a8.011 8.011 0 0 1 -8-8v-8zm-40 0v8a8.011 8.011 0 0 1 -8 8h-8a8.011 8.011 0 0 1 -8-8v-8zm-8 32a23.9 23.9 0 0 0 16-6.13 23.9 23.9 0 0 0 16 6.13h8a23.9 23.9 0 0 0 16-6.13 23.9 23.9 0 0 0 16 6.13h8a23.9 23.9 0 0 0 16-6.13 23.9 23.9 0 0 0 16 6.13v64h-24v-48a8 8 0 0 0 -8-8h-48a8 8 0 0 0 -8 8v48h-24zm72 24v40h-8v-40zm-24 0v40h-8v-40zm72-40h-8a8.011 8.011 0 0 1 -8-8v-8h24v8a8.011 8.011 0 0 1 -8 8zm56 12a12.01 12.01 0 0 1 -12 12h-36v-9.38a24.022 24.022 0 0 0 16-22.62v-16a7.935 7.935 0 0 0 -1.76-4.99l.01-.01-32-40a8 8 0 0 0 -6.25-3h-96a8 8 0 0 0 -6.25 3l-32 40 .01.01a7.935 7.935 0 0 0 -1.76 4.99v16a24.022 24.022 0 0 0 16 22.62v9.38h-56a96 96 0 0 0 -192 0h-12a12.01 12.01 0 0 1 -12-12v-324h464zm0-340h-464v-20a12.01 12.01 0 0 1 12-12h440a12.01 12.01 0 0 1 12 12z"/><path d="m144 336a72 72 0 1 0 72 72 72.083 72.083 0 0 0 -72-72zm0 128a56 56 0 1 1 56-56 56.062 56.062 0 0 1 -56 56z"/><path d="m176 424a24.032 24.032 0 0 1 -24 24 8 8 0 0 1 -16 0h-8a8 8 0 0 1 0-16h24a8 8 0 0 0 0-16h-16a24 24 0 0 1 0-48 8 8 0 0 1 16 0h8a8 8 0 0 1 0 16h-24a8 8 0 0 0 0 16h16a24.032 24.032 0 0 1 24 24z"/><path d="m40 48h8a8 8 0 0 0 0-16h-8a8 8 0 0 0 0 16z"/><path d="m72 48h8a8 8 0 0 0 0-16h-8a8 8 0 0 0 0 16z"/><path d="m104 48h8a8 8 0 0 0 0-16h-8a8 8 0 0 0 0 16z"/><circle cx="160" cy="232" r="8"/><path d="m113 224c-4.418 0-9 3.582-9 8a8 8 0 0 0 16 0c0-4.418-2.582-8-7-8z"/><path d="m216 104h-160a8 8 0 0 0 -8 8v152a8 8 0 0 0 8 8h160a8 8 0 0 0 8-8v-152a8 8 0 0 0 -8-8zm-8 152h-144v-136h144z"/><path d="m181.1 154.83a8.009 8.009 0 0 0 -6.1-2.83h-63v-8a8 8 0 0 0 -8-8h-16a8 8 0 0 0 0 16h8v56a8 8 0 0 0 8 8h63a8 8 0 0 0 7.89-6.68l8-48a7.994 7.994 0 0 0 -1.79-6.49zm-20.88 45.17h-48.22v-32h53.56z"/><path d="m248 176h56a8 8 0 0 0 8-8v-56a8 8 0 0 0 -8-8h-56a8 8 0 0 0 -8 8v56a8 8 0 0 0 8 8zm8-56h40v40h-40z"/><path d="m328 176h56a8 8 0 0 0 8-8v-56a8 8 0 0 0 -8-8h-56a8 8 0 0 0 -8 8v56a8 8 0 0 0 8 8zm8-56h40v40h-40z"/><path d="m464 104h-56a8 8 0 0 0 -8 8v56a8 8 0 0 0 8 8h56a8 8 0 0 0 8-8v-56a8 8 0 0 0 -8-8zm-8 56h-40v-40h40z"/><path d="m464 192h-216a8 8 0 0 0 0 16h216a8 8 0 0 0 0-16z"/><path d="m464 224h-216a8 8 0 0 0 0 16h216a8 8 0 0 0 0-16z"/><path d="m400 256h-152a8 8 0 0 0 0 16h152a8 8 0 0 0 0-16z"/><path d="m432 256h-8a8 8 0 0 0 0 16h8a8 8 0 0 0 0-16z"/></g></g></svg>