<svg height="512" viewBox="0 0 512 512" width="512" xmlns="http://www.w3.org/2000/svg"><g><g fill="#57a4ff"><path d="m160 168h24v176h-24z"/><path d="m384 36v28h-320v-28a19.994 19.994 0 0 1 20-20h280a19.994 19.994 0 0 1 20 20z"/><path d="m384 184v32h-144v-16a16 16 0 0 1 16-16z"/><path d="m240 248h144v80h-128a16 16 0 0 1 -16-16z"/><path d="m64 416v60a19.994 19.994 0 0 0 20 20h280a19.994 19.994 0 0 0 20-20v-60zm160 56a16 16 0 1 1 16-16 16 16 0 0 1 -16 16z"/><path d="m160 168h24v176h-24z"/><path d="m384 184v32h-144v-16a16 16 0 0 1 16-16z"/><path d="m240 248h144v80h-128a16 16 0 0 1 -16-16z"/><path d="m160 168h24v176h-24z"/><path d="m448 248v64a16 16 0 0 1 -16 16h-176a16 16 0 0 1 -16-16v-64z"/><path d="m448 200v16h-208v-16a16 16 0 0 1 16-16h176a16 16 0 0 1 16 16z"/><path d="m160 168h24v176h-24z"/></g><g fill="#004fac"><path d="m192 48h64a8 8 0 0 0 0-16h-64a8 8 0 0 0 0 16z"/><path d="m432 176h-40v-140a28.031 28.031 0 0 0 -28-28h-280a28.031 28.031 0 0 0 -28 28v440a28.031 28.031 0 0 0 28 28h280a28.031 28.031 0 0 0 28-28v-140h40a24.032 24.032 0 0 0 24-24v-112a24.032 24.032 0 0 0 -24-24zm-360-140a12.01 12.01 0 0 1 12-12h280a12.01 12.01 0 0 1 12 12v20h-304zm304 440a12.01 12.01 0 0 1 -12 12h-280a12.01 12.01 0 0 1 -12-12v-52h304zm0-68h-304v-336h304v104h-120a24.032 24.032 0 0 0 -24 24v112a24.032 24.032 0 0 0 24 24h120zm64-96a8.011 8.011 0 0 1 -8 8h-176a8.011 8.011 0 0 1 -8-8v-56h192zm0-72h-192v-16h192zm0-32h-192v-8a8.011 8.011 0 0 1 8-8h176a8.011 8.011 0 0 1 8 8z"/><path d="m272 296h-8a8 8 0 0 0 0 16h8a8 8 0 0 0 0-16z"/><path d="m392 296h-8a8 8 0 0 0 0 16h8a8 8 0 0 0 0-16z"/><path d="m424 296h-8a8 8 0 0 0 0 16h8a8 8 0 0 0 0-16z"/><path d="m224 432a24 24 0 1 0 24 24 24.027 24.027 0 0 0 -24-24zm0 32a8 8 0 1 1 8-8 8.009 8.009 0 0 1 -8 8z"/><path d="m160 352h24a8 8 0 0 0 8-8v-176a8 8 0 0 0 -8-8h-24a8 8 0 0 0 -8 8v176a8 8 0 0 0 8 8zm8-176h8v160h-8z"/><path d="m208 128h-72a8 8 0 0 0 -8 8v240a8 8 0 0 0 8 8h72a8 8 0 0 0 8-8v-240a8 8 0 0 0 -8-8zm-8 240h-56v-224h56z"/></g></g></svg>