<svg height="512" viewBox="0 0 512 512" width="512" xmlns="http://www.w3.org/2000/svg"><g><g fill="#57a4ff"><g><path d="m224 344h64v32h-64z"/><path d="m416 36v28h-320v-28a19.994 19.994 0 0 1 20-20h280a19.994 19.994 0 0 1 20 20z"/><path d="m96 416h320v60a19.994 19.994 0 0 1 -20 20h-280a19.994 19.994 0 0 1 -20-20z"/><path d="m224 344h64v32h-64z"/><circle cx="256" cy="456" r="16"/></g><path d="m224 344h64v32h-64z"/></g><g fill="#004fac"><path d="m396 8h-280a28.031 28.031 0 0 0 -28 28v440a28.031 28.031 0 0 0 28 28h280a28.031 28.031 0 0 0 28-28v-440a28.031 28.031 0 0 0 -28-28zm12 468a12.01 12.01 0 0 1 -12 12h-280a12.01 12.01 0 0 1 -12-12v-52h304zm0-68h-304v-336h304zm0-352h-304v-20a12.01 12.01 0 0 1 12-12h280a12.01 12.01 0 0 1 12 12z"/><path d="m224 48h64a8 8 0 0 0 0-16h-64a8 8 0 0 0 0 16z"/><path d="m256 432a24 24 0 1 0 24 24 24.027 24.027 0 0 0 -24-24zm0 32a8 8 0 1 1 8-8 8.009 8.009 0 0 1 -8 8z"/><path d="m152 152a8 8 0 0 0 8-8v-20a12.013 12.013 0 0 1 12-12h19a8 8 0 0 0 0-16h-19a28.032 28.032 0 0 0 -28 28v20a8 8 0 0 0 8 8z"/><path d="m172 320h19a8 8 0 0 0 0-16h-19a12.013 12.013 0 0 1 -12-12v-20a8 8 0 0 0 -16 0v20a28.032 28.032 0 0 0 28 28z"/><path d="m224 312a8 8 0 0 0 8 8h47a8 8 0 0 0 0-16h-47a8 8 0 0 0 -8 8z"/><path d="m320 320h20a28.032 28.032 0 0 0 28-28v-20a8 8 0 0 0 -16 0v20a12.013 12.013 0 0 1 -12 12h-20a8 8 0 0 0 0 16z"/><path d="m320 112h20a12.013 12.013 0 0 1 12 12v20a8 8 0 0 0 16 0v-20a28.032 28.032 0 0 0 -28-28h-20a8 8 0 0 0 0 16z"/><path d="m232 112h47a8 8 0 0 0 0-16h-47a8 8 0 0 0 0 16z"/><path d="m152 240a8 8 0 0 0 8-8v-48a8 8 0 0 0 -16 0v48a8 8 0 0 0 8 8z"/><path d="m360 176a8 8 0 0 0 -8 8v48a8 8 0 0 0 16 0v-48a8 8 0 0 0 -8-8z"/><path d="m192 128a8 8 0 0 0 -8 8v143a8 8 0 0 0 16 0v-143a8 8 0 0 0 -8-8z"/><path d="m320 287a8 8 0 0 0 8-8v-143a8 8 0 0 0 -16 0v143a8 8 0 0 0 8 8z"/><path d="m264 208v-72a8 8 0 0 0 -16 0v72a8 8 0 0 0 16 0z"/><path d="m224 216a8 8 0 0 0 8-8v-72a8 8 0 0 0 -16 0v72a8 8 0 0 0 8 8z"/><path d="m280 136v72a8 8 0 0 0 16 0v-72a8 8 0 0 0 -16 0z"/><path d="m240 280a8 8 0 0 0 8 8h16a8 8 0 0 0 0-16h-16a8 8 0 0 0 -8 8z"/><path d="m224 384h64a8 8 0 0 0 8-8v-32a8 8 0 0 0 -8-8h-64a8 8 0 0 0 -8 8v32a8 8 0 0 0 8 8zm8-32h48v16h-48z"/></g></g></svg>