<svg height="512" viewBox="0 0 512 512" width="512" xmlns="http://www.w3.org/2000/svg"><g><g fill="#57a4ff"><path d="m144 168h24v176h-24z"/><path d="m176 48-8-32h96l-8 32z"/><path d="m344 184v32h-128v-16a16 16 0 0 1 16-16z"/><path d="m216 248h128v80h-112a16 16 0 0 1 -16-16z"/><path d="m144 168h24v176h-24z"/><path d="m264 16-8 32h-80l-8-32z"/><path d="m424 248v64a16 16 0 0 1 -16 16h-176a16 16 0 0 1 -16-16v-64z"/><path d="m424 200v16h-208v-16a16 16 0 0 1 16-16h176a16 16 0 0 1 16 16z"/><path d="m144 168h24v176h-24z"/></g><g fill="#004fac"><path d="m408 176h-56v-140a28.031 28.031 0 0 0 -28-28h-216a28.031 28.031 0 0 0 -28 28v440a28.031 28.031 0 0 0 28 28h216a28.031 28.031 0 0 0 28-28v-140h56a24.032 24.032 0 0 0 24-24v-112a24.032 24.032 0 0 0 -24-24zm-154.25-152-4 16h-67.5l-4-16zm82.25 452a12.01 12.01 0 0 1 -12 12h-216a12.01 12.01 0 0 1 -12-12v-440a12.01 12.01 0 0 1 12-12h53.75l6.49 25.94a8 8 0 0 0 7.76 6.06h80a8 8 0 0 0 7.76-6.06l6.49-25.94h53.75a12.01 12.01 0 0 1 12 12v140h-104a24.032 24.032 0 0 0 -24 24v112a24.032 24.032 0 0 0 24 24h104zm80-164a8.011 8.011 0 0 1 -8 8h-176a8.011 8.011 0 0 1 -8-8v-56h192zm0-72h-192v-16h192zm0-32h-192v-8a8.011 8.011 0 0 1 8-8h176a8.011 8.011 0 0 1 8 8z"/><path d="m248 296h-8a8 8 0 0 0 0 16h8a8 8 0 0 0 0-16z"/><path d="m368 296h-8a8 8 0 0 0 0 16h8a8 8 0 0 0 0-16z"/><path d="m400 296h-8a8 8 0 0 0 0 16h8a8 8 0 0 0 0-16z"/><path d="m144 352h24a8 8 0 0 0 8-8v-176a8 8 0 0 0 -8-8h-24a8 8 0 0 0 -8 8v176a8 8 0 0 0 8 8zm8-176h8v160h-8z"/><path d="m192 128h-72a8 8 0 0 0 -8 8v240a8 8 0 0 0 8 8h72a8 8 0 0 0 8-8v-240a8 8 0 0 0 -8-8zm-8 240h-56v-224h56z"/><path d="m160 464h-40a8 8 0 0 0 0 16h40a8 8 0 0 0 0-16z"/><path d="m192 464h-8a8 8 0 0 0 0 16h8a8 8 0 0 0 0-16z"/></g></g></svg>