<svg height="512" viewBox="0 0 512 512" width="512" xmlns="http://www.w3.org/2000/svg"><g><g fill="#57a4ff"><path d="m296 72v32a16 16 0 0 1 -16 16h-8a16 16 0 0 1 -16-16v-32z"/><path d="m216 72v32a16 16 0 0 1 -16 16h-8a16 16 0 0 1 -16-16v-32z"/><path d="m376 72v32a16 16 0 0 1 -16 16h-8a16 16 0 0 1 -16-16v-32z"/><path d="m376 72h-240l32-56h176z"/><path d="m176 144h32v32h-32z"/><path d="m232 144h48v64h-48z"/><path d="m304 144h32v32h-32z"/><path d="m232 144h48v64h-48z"/><path d="m304 144h32v32h-32z"/><path d="m176 144h32v32h-32z"/><path d="m128 208h256v24h-256z"/><path d="m104 320a88 88 0 1 0 88 88 88 88 0 0 0 -88-88zm0 152a64 64 0 1 1 64-64 64 64 0 0 1 -64 64z"/><path d="m408 320a88 88 0 1 0 88 88 88 88 0 0 0 -88-88zm0 152a64 64 0 1 1 64-64 64 64 0 0 1 -64 64z"/></g><g fill="#004fac"><path d="m304 184h32a8 8 0 0 0 8-8v-32a8 8 0 0 0 -8-8h-32a8 8 0 0 0 -8 8v32a8 8 0 0 0 8 8zm8-32h16v16h-16z"/><path d="m208 136h-32a8 8 0 0 0 -8 8v32a8 8 0 0 0 8 8h32a8 8 0 0 0 8-8v-32a8 8 0 0 0 -8-8zm-8 32h-16v-16h16z"/><path d="m32 408a72 72 0 1 0 72-72 72.083 72.083 0 0 0 -72 72zm128 0a56 56 0 1 1 -56-56 56.062 56.062 0 0 1 56 56z"/><path d="m96 368a24 24 0 0 0 0 48h16a8 8 0 0 1 0 16h-24a8 8 0 0 0 0 16h8a8 8 0 0 0 16 0 24 24 0 0 0 0-48h-16a8 8 0 0 1 0-16h24a8 8 0 0 0 0-16h-8a8 8 0 0 0 -16 0z"/><path d="m416 312.34v-48.34a8 8 0 0 0 -8-8h-144v-16h120a8 8 0 0 0 8-8v-24a8 8 0 0 0 -8-8h-16v-73.38a24.031 24.031 0 0 0 16-22.62v-32a7.982 7.982 0 0 0 -1.06-3.97h.01l-32-56a8.019 8.019 0 0 0 -6.95-4.03h-176a8.019 8.019 0 0 0 -6.95 4.03l-32 56h.01a7.982 7.982 0 0 0 -1.06 3.97v32a24.031 24.031 0 0 0 16 22.62v73.38h-16a8 8 0 0 0 -8 8v24a8 8 0 0 0 8 8h120v16h-144a8 8 0 0 0 -8 8v48.34a96 96 0 1 0 16 0v-40.34h288v40.34a96 96 0 1 0 16 0zm-232 95.66a80 80 0 1 1 -80-80 80.093 80.093 0 0 1 80 80zm184-304a8.011 8.011 0 0 1 -8 8h-8a8.011 8.011 0 0 1 -8-8v-24h24zm-88 32h-48a8 8 0 0 0 -8 8v56h-64v-72a23.9 23.9 0 0 0 16-6.13 23.9 23.9 0 0 0 16 6.13h8a23.9 23.9 0 0 0 16-6.13 23.9 23.9 0 0 0 16 6.13h8a23.9 23.9 0 0 0 16-6.13 23.9 23.9 0 0 0 16 6.13h8a23.9 23.9 0 0 0 16-6.13 23.9 23.9 0 0 0 16 6.13h8a23.9 23.9 0 0 0 16-6.13 23.9 23.9 0 0 0 16 6.13v72h-64v-56a8 8 0 0 0 -8-8zm-8 16v48h-8v-48zm-24 0v48h-8v-48zm-64-48v-24h24v24a8.011 8.011 0 0 1 -8 8h-8a8.011 8.011 0 0 1 -8-8zm40 0v-24h24v24a8.011 8.011 0 0 1 -8 8h-8a8.011 8.011 0 0 1 -8-8zm40 0v-24h24v24a8.011 8.011 0 0 1 -8 8h-8a8.011 8.011 0 0 1 -8-8zm40 0v-24h24v24a8.011 8.011 0 0 1 -8 8h-8a8.011 8.011 0 0 1 -8-8zm-131.36-80h166.72l22.85 40h-212.42zm-28.64 56h24v24a8.011 8.011 0 0 1 -8 8h-8a8.011 8.011 0 0 1 -8-8zm-8 144v-8h240v8zm272 264a80 80 0 1 1 80-80 80.093 80.093 0 0 1 -80 80z"/><path d="m408 336a72 72 0 1 0 72 72 72.083 72.083 0 0 0 -72-72zm0 128a56 56 0 1 1 56-56 56.062 56.062 0 0 1 -56 56z"/><path d="m416 400h-16a8 8 0 0 1 0-16h24a8 8 0 0 0 0-16h-8a8 8 0 0 0 -16 0 24 24 0 0 0 0 48h16a8 8 0 0 1 0 16h-24a8 8 0 0 0 0 16h8a8 8 0 0 0 16 0 24 24 0 0 0 0-48z"/></g></g></svg>