<svg height="512" viewBox="0 0 512 512" width="512" xmlns="http://www.w3.org/2000/svg"><g><g fill="#57a4ff"><path d="m256 16 18.52 45.403 48.905 3.584-37.459 31.644 11.705 47.618-41.671-25.846-41.671 25.846 11.705-47.618-37.459-31.644 48.905-3.584z"/><path d="m96 16 18.52 45.403 48.905 3.584-37.459 31.644 11.705 47.618-41.671-25.846-41.671 25.846 11.705-47.618-37.459-31.644 48.905-3.584z"/><path d="m420 16 18.52 45.403 48.905 3.584-37.459 31.644 11.705 47.618-41.671-25.846-41.671 25.846 11.705-47.618-37.459-31.644 48.905-3.584z"/><g><path d="m176 176h320v200h-320z"/><g><path d="m56 392a15.979 15.979 0 0 1 -16 16h-24v-32h24a16 16 0 0 1 16 16z"/><path d="m136 456h-24a16 16 0 0 0 -32 0h-24a40 40 0 0 1 80 0z"/><path d="m144 272v72h-128l48-72z"/><path d="m464 456h-24a16 16 0 0 0 -32 0h-24a40 40 0 0 1 80 0z"/><path d="m96 416a40 40 0 1 0 40 40 40 40 0 0 0 -40-40zm0 56a16 16 0 1 1 16-16 16 16 0 0 1 -16 16z"/><path d="m424 416a40 40 0 1 0 40 40 40 40 0 0 0 -40-40zm0 56a16 16 0 1 1 16-16 16 16 0 0 1 -16 16z"/><path d="m144 272v72h-128l48-72z"/><path d="m56 392a15.979 15.979 0 0 1 -16 16h-24v-32h24a16 16 0 0 1 16 16z"/></g></g></g><g fill="#004fac"><path d="m183.413 71.1 33.668 28.44-10.52 42.8a8 8 0 0 0 11.985 8.708l37.454-23.231 37.454 23.231a8 8 0 0 0 11.985-8.708l-10.52-42.8 33.668-28.44a8 8 0 0 0 -4.577-14.09l-43.956-3.222-16.647-40.809a8 8 0 0 0 -14.814 0l-16.647 40.808-43.956 3.222a8 8 0 0 0 -4.577 14.09zm54.651-1.717a8 8 0 0 0 6.823-4.957l11.113-27.245 11.113 27.244a8 8 0 0 0 6.823 4.957l29.344 2.15-22.48 18.988a8 8 0 0 0 -2.606 8.02l7.023 28.573-25-15.509a8 8 0 0 0 -8.434 0l-25 15.509 7.017-28.573a8 8 0 0 0 -2.606-8.02l-22.474-18.988z"/><path d="m19.413 71.1 33.668 28.44-10.52 42.8a8 8 0 0 0 11.985 8.708l37.454-23.231 37.454 23.231a8 8 0 0 0 11.985-8.708l-10.52-42.8 33.668-28.44a8 8 0 0 0 -4.577-14.09l-43.956-3.222-16.647-40.809a8 8 0 0 0 -14.814 0l-16.647 40.808-43.956 3.222a8 8 0 0 0 -4.577 14.091zm54.651-1.717a8 8 0 0 0 6.823-4.957l11.113-27.245 11.113 27.244a8 8 0 0 0 6.823 4.957l29.344 2.15-22.48 18.988a8 8 0 0 0 -2.606 8.02l7.023 28.573-25-15.509a8 8 0 0 0 -8.434 0l-25 15.509 7.017-28.573a8 8 0 0 0 -2.6-8.02l-22.48-18.988z"/><path d="m347.413 71.1 33.668 28.44-10.52 42.8a8 8 0 0 0 11.985 8.708l37.454-23.231 37.454 23.231a8 8 0 0 0 11.985-8.708l-10.52-42.8 33.668-28.44a8 8 0 0 0 -4.577-14.09l-43.956-3.222-16.647-40.809a8 8 0 0 0 -14.814 0l-16.647 40.808-43.956 3.222a8 8 0 0 0 -4.577 14.09zm54.651-1.717a8 8 0 0 0 6.823-4.957l11.113-27.245 11.113 27.244a8 8 0 0 0 6.823 4.957l29.344 2.15-22.48 18.988a8 8 0 0 0 -2.606 8.02l7.023 28.573-25-15.509a8 8 0 0 0 -8.434 0l-25 15.509 7.017-28.573a8 8 0 0 0 -2.606-8.02l-22.474-18.988z"/><path d="m96 432a24 24 0 1 0 24 24 24.027 24.027 0 0 0 -24-24zm0 32a8 8 0 1 1 8-8 8.009 8.009 0 0 1 -8 8z"/><path d="m424 432a24 24 0 1 0 24 24 24.027 24.027 0 0 0 -24-24zm0 32a8 8 0 1 1 8-8 8.009 8.009 0 0 1 -8 8z"/><path d="m120 376h24a8 8 0 0 0 0-16h-24a8 8 0 0 0 0 16z"/><path d="m496 168h-320a8 8 0 0 0 -8 8v64h-88a8.033 8.033 0 0 0 -6.66 3.56l-15.96 23.95c-.01.01-.02.02-.02.03l-48.02 72.02a8.066 8.066 0 0 0 -1.34 4.44v112a8 8 0 0 0 8 8h32.68a47.99 47.99 0 0 0 94.64 0h233.36a47.99 47.99 0 0 0 94.64 0h24.68a8 8 0 0 0 8-8v-280a8 8 0 0 0 -8-8zm-427.72 112h67.72v56h-105.05zm-44.28 104h16a8 8 0 0 1 0 16h-16zm72 104a32 32 0 1 1 32-32 32.036 32.036 0 0 1 -32 32zm72-40h-24.68a47.99 47.99 0 0 0 -94.64 0h-24.68v-32h16a24 24 0 0 0 0-48h-16v-16h120a8 8 0 0 0 8-8v-72a8 8 0 0 0 -8-8h-65.05l5.33-8h83.72zm256 40a32 32 0 1 1 32-32 32.036 32.036 0 0 1 -32 32zm64-40h-16.68a47.99 47.99 0 0 0 -94.64 0h-192.68v-64h304zm0-80h-304v-184h304z"/></g></g></svg>