<svg height="512" viewBox="0 0 512 512" width="512" xmlns="http://www.w3.org/2000/svg"><g><g fill="#57a4ff"><path d="m256 16 18.52 45.403 48.905 3.584-37.459 31.644 11.705 47.618-41.671-25.846-41.671 25.846 11.705-46.618-37.459-32.644 48.905-3.584z"/><path d="m92 17 18.52 45.403 48.905 3.584-37.459 31.644 11.705 47.618-41.671-25.846-41.671 25.846 11.705-47.618-37.459-31.644 48.905-3.584z"/><path d="m420 17 18.52 45.403 48.905 3.584-37.459 31.644 11.705 47.618-41.671-25.846-41.671 25.846 11.705-47.618-37.459-31.644 48.905-3.584z"/><path d="m112 304h112v192h-92a19.994 19.994 0 0 1 -20-20z"/><path d="m400 304v172a19.994 19.994 0 0 1 -20 20h-92v-192z"/><path d="m116 248h108v56h-128v-36a19.994 19.994 0 0 1 20-20z"/><path d="m416 268v36h-128v-56h108a19.994 19.994 0 0 1 20 20z"/></g><g fill="#004fac"><path d="m183.413 71.1 33.668 28.44-10.52 42.8a8 8 0 0 0 11.985 8.708l37.454-23.231 37.454 23.231a8 8 0 0 0 11.985-8.708l-10.52-42.8 33.668-28.44a8 8 0 0 0 -4.577-14.09l-43.956-3.222-16.647-40.809a8 8 0 0 0 -14.814 0l-16.647 40.808-43.956 3.222a8 8 0 0 0 -4.577 14.09zm54.651-1.717a8 8 0 0 0 6.823-4.957l11.113-27.245 11.113 27.244a8 8 0 0 0 6.823 4.957l29.344 2.15-22.48 18.988a8 8 0 0 0 -2.606 8.02l7.023 28.573-25-15.509a8 8 0 0 0 -8.434 0l-25 15.509 7.017-28.573a8 8 0 0 0 -2.606-8.02l-22.474-18.988z"/><path d="m129.454 151.048a8 8 0 0 0 11.985-8.708l-10.52-42.8 33.668-28.44a8 8 0 0 0 -4.577-14.09l-43.956-3.222-16.647-40.809a8 8 0 0 0 -14.814 0l-16.647 40.808-43.956 3.222a8 8 0 0 0 -4.577 14.091l33.668 28.44-10.52 42.8a8 8 0 0 0 11.985 8.708l37.454-23.231zm-66.675-23.935 7.021-28.573a8 8 0 0 0 -2.6-8.02l-22.48-18.988 29.344-2.15a8 8 0 0 0 6.823-4.957l11.113-27.244 11.113 27.244a8 8 0 0 0 6.823 4.957l29.344 2.15-22.48 18.988a8 8 0 0 0 -2.606 8.02l7.023 28.573-25-15.509a8 8 0 0 0 -8.434 0z"/><path d="m495.033 62.516a8 8 0 0 0 -7.023-5.507l-43.956-3.222-16.647-40.808a8 8 0 0 0 -14.814 0l-16.647 40.808-43.956 3.222a8 8 0 0 0 -4.577 14.09l33.668 28.441-10.52 42.8a8 8 0 0 0 11.985 8.708l37.454-23.231 37.454 23.231a8 8 0 0 0 11.985-8.708l-10.52-42.8 33.668-28.44a8 8 0 0 0 2.446-8.584zm-50.229 28a8 8 0 0 0 -2.606 8.02l7.023 28.573-25-15.509a8 8 0 0 0 -8.434 0l-25 15.509 7.013-28.569a8 8 0 0 0 -2.606-8.02l-22.474-18.988 29.344-2.15a8 8 0 0 0 6.823-4.957l11.113-27.244 11.113 27.244a8 8 0 0 0 6.823 4.957l29.344 2.15z"/><path d="m396 240h-68.02a39.808 39.808 0 0 0 8.02-24v-8a40.04 40.04 0 0 0 -40-40h-8a39.947 39.947 0 0 0 -32 16.03 39.947 39.947 0 0 0 -32-16.03h-8a40.04 40.04 0 0 0 -40 40v8a39.808 39.808 0 0 0 8.02 24h-68.02a28.031 28.031 0 0 0 -28 28v36a8 8 0 0 0 8 8h8v164a28.031 28.031 0 0 0 28 28h248a28.031 28.031 0 0 0 28-28v-164h8a8 8 0 0 0 8-8v-36a28.031 28.031 0 0 0 -28-28zm-180 248h-84a12.01 12.01 0 0 1 -12-12v-164h96zm0-192h-112v-28a12.01 12.01 0 0 1 12-12h100zm0-56a24.032 24.032 0 0 1 -24-24v-8a24.032 24.032 0 0 1 24-24h8a24.032 24.032 0 0 1 24 24v32zm64 248h-48v-232h48zm-16-248v-32a24.032 24.032 0 0 1 24-24h8a24.032 24.032 0 0 1 24 24v8a24.032 24.032 0 0 1 -24 24zm128 236a12.01 12.01 0 0 1 -12 12h-84v-176h96zm16-180h-112v-40h100a12.01 12.01 0 0 1 12 12z"/></g></g></svg>