<svg height="512" viewBox="0 0 512 512" width="512" xmlns="http://www.w3.org/2000/svg"><g><g fill="#57a4ff"><path d="m175.42 200.99-37.45 31.64 11.7 47.62-41.67-25.85-41.67 25.85 11.7-47.62-37.45-31.64 48.9-3.59 18.52-45.4 18.52 45.4z"/><path d="m323.42 200.99-37.45 31.64 11.7 47.62-41.67-25.85-41.67 25.85 11.7-47.62-37.45-31.64 48.9-3.59 18.52-45.4 18.52 45.4z"/><path d="m433.97 232.63 11.7 47.62-41.67-25.85-41.67 25.85 11.7-47.62-37.45-31.64 48.9-3.59 18.52-45.4 18.52 45.4 48.9 3.59z"/><path d="m285.97 232.63 11.7 47.62-41.67-25.85-41.67 25.85 11.7-47.62-37.45-31.64 48.9-3.59 18.52-45.4 18.52 45.4 48.9 3.59z"/><path d="m137.97 232.63 11.7 47.62-41.67-25.85-41.67 25.85 11.7-47.62-37.45-31.64 48.9-3.59 18.52-45.4 18.52 45.4 48.9 3.59z"/><path d="m433.97 232.63 11.7 47.62-41.67-25.85-41.67 25.85 11.7-47.62-37.45-31.64 48.9-3.59 18.52-45.4 18.52 45.4 48.9 3.59z"/></g><g fill="#004fac"><path d="m476 48h-440a28.031 28.031 0 0 0 -28 28v280a28.031 28.031 0 0 0 28 28h272.69l101.65 101.66a8 8 0 0 0 13.66-5.66v-96h52a28.031 28.031 0 0 0 28-28v-280a28.031 28.031 0 0 0 -28-28zm12 308a12.01 12.01 0 0 1 -12 12h-60a8 8 0 0 0 -8 8v84.69l-90.34-90.35a8.008 8.008 0 0 0 -5.66-2.34h-276a12.01 12.01 0 0 1 -12-12v-280a12.01 12.01 0 0 1 12-12h440a12.01 12.01 0 0 1 12 12z"/><path d="m479.03 198.52a7.989 7.989 0 0 0 -7.02-5.51l-43.96-3.22-16.64-40.81a8 8 0 0 0 -14.82 0l-16.64 40.81-43.96 3.22a7.986 7.986 0 0 0 -5.99 3.43 7.986 7.986 0 0 0 -5.99-3.43l-43.96-3.22-16.64-40.81a8 8 0 0 0 -14.82 0l-16.64 40.81-43.96 3.22a7.986 7.986 0 0 0 -5.99 3.43 7.986 7.986 0 0 0 -5.99-3.43l-43.96-3.22-16.64-40.81a8 8 0 0 0 -14.82 0l-16.64 40.81-43.96 3.22a8 8 0 0 0 -4.58 14.09l33.67 28.44-10.52 42.8a8.005 8.005 0 0 0 11.99 8.71l37.45-23.23 37.45 23.23a8.041 8.041 0 0 0 4.22 1.2 8.007 8.007 0 0 0 7.77-9.91l-10.52-42.8 33.67-28.44a8.407 8.407 0 0 0 1.41-1.58 8.407 8.407 0 0 0 1.41 1.58l33.67 28.44-10.52 42.8a8.005 8.005 0 0 0 11.99 8.71l37.45-23.23 37.45 23.23a8.041 8.041 0 0 0 4.22 1.2 8.007 8.007 0 0 0 7.77-9.91l-10.52-42.8 33.67-28.44a8.407 8.407 0 0 0 1.41-1.58 8.407 8.407 0 0 0 1.41 1.58l33.67 28.44-10.52 42.8a8.005 8.005 0 0 0 11.99 8.71l37.45-23.23 37.45 23.23a8.041 8.041 0 0 0 4.22 1.2 8.007 8.007 0 0 0 7.77-9.91l-10.52-42.8 33.67-28.44a7.992 7.992 0 0 0 2.44-8.58zm-346.23 28a7.99 7.99 0 0 0 -2.6 8.02l7.02 28.57-25-15.51a8.02 8.02 0 0 0 -8.44 0l-25 15.51 7.02-28.57a7.99 7.99 0 0 0 -2.6-8.02l-22.48-18.99 29.34-2.15a7.991 7.991 0 0 0 6.83-4.96l11.11-27.24 11.11 27.24a7.991 7.991 0 0 0 6.83 4.96l29.34 2.15zm148 0a7.99 7.99 0 0 0 -2.6 8.02l7.02 28.57-25-15.51a8.02 8.02 0 0 0 -8.44 0l-25 15.51 7.02-28.57a7.99 7.99 0 0 0 -2.6-8.02l-22.48-18.99 29.34-2.15a7.991 7.991 0 0 0 6.83-4.96l11.11-27.24 11.11 27.24a7.991 7.991 0 0 0 6.83 4.96l29.34 2.15zm148 0a7.99 7.99 0 0 0 -2.6 8.02l7.02 28.57-25-15.51a8.02 8.02 0 0 0 -8.44 0l-25 15.51 7.02-28.57a7.99 7.99 0 0 0 -2.6-8.02l-22.48-18.99 29.34-2.15a7.991 7.991 0 0 0 6.83-4.96l11.11-27.24 11.11 27.24a7.991 7.991 0 0 0 6.83 4.96l29.34 2.15z"/></g></g></svg>