<svg height="512" viewBox="0 0 512 512" width="512" xmlns="http://www.w3.org/2000/svg"><g><g fill="#57a4ff"><path d="m240 216h96v32h-96z"/><path d="m112 112v240h351l33-240zm176 200a80 80 0 1 1 80-80 80 80 0 0 1 -80 80z"/><path d="m240 216h96v32h-96z"/><circle cx="176" cy="432" r="32"/><circle cx="176" cy="432" r="8"/><circle cx="392" cy="432" r="8"/><circle cx="392" cy="432" r="32"/><circle cx="392" cy="432" r="8"/><circle cx="392" cy="432" r="32"/><path d="m240 216h96v32h-96z"/></g><g fill="#004fac"><path d="m502.03 106.74a8.01 8.01 0 0 0 -6.03-2.74h-376v-40a8 8 0 0 0 -8-8h-16v-8a8 8 0 0 0 -8-8h-72a8 8 0 0 0 -8 8v32a8 8 0 0 0 8 8h72a8 8 0 0 0 8-8v-8h8v328a8 8 0 0 0 8 8h32.02a40 40 0 1 0 63.96 0h152.04a40 40 0 1 0 63.96 0h16.02a8 8 0 0 0 0-16h-320v-32h343a8.006 8.006 0 0 0 7.93-6.91l33-240a8.033 8.033 0 0 0 -1.9-6.35zm-422.03-34.74h-56v-16h56zm312 336a24 24 0 1 1 -24 24 24.032 24.032 0 0 1 24-24zm-216 0a24 24 0 1 1 -24 24 24.032 24.032 0 0 1 24-24zm280.02-64h-336.02v-224h366.82z"/><circle cx="176" cy="432" r="8"/><circle cx="392" cy="432" r="8"/><path d="m288 320a88 88 0 1 0 -88-88 88.1 88.1 0 0 0 88 88zm0-160a72 72 0 1 1 -72 72 72.081 72.081 0 0 1 72-72z"/><path d="m336 256a8 8 0 0 0 8-8v-32a8 8 0 0 0 -8-8h-96a8 8 0 0 0 -8 8v32a8 8 0 0 0 8 8zm-88-32h80v16h-80z"/></g></g></svg>