<svg height="512" viewBox="0 0 512 512" width="512" xmlns="http://www.w3.org/2000/svg"><g><g><g fill="#57a4ff"><path d="m80 216h32v24h-32z"/><path d="m80 264h32v24h-32z"/><path d="m80 312h32v24h-32z"/><path d="m136 216h32v24h-32z"/><path d="m136 264h32v24h-32z"/><path d="m136 312h32v24h-32z"/><path d="m80 160h144v32h-144z"/><path d="m192 216h32v24h-32z"/><path d="m192 264h32v24h-32z"/><path d="m192 312h32v24h-32z"/><path d="m368 176a72 72 0 1 0 72 72 72.006 72.006 0 0 0 -72-72zm22.63 94.63a32.012 32.012 0 1 1 9.37-22.63 31.9 31.9 0 0 1 -9.37 22.63z"/><path d="m456 80h-400a40 40 0 0 0 -40 40v256a40 40 0 0 0 40 40h400a40 40 0 0 0 40-40v-256a40 40 0 0 0 -40-40zm8 272a32 32 0 0 1 -32 32h-352a32 32 0 0 1 -32-32v-208a32 32 0 0 1 32-32h352a32 32 0 0 1 32 32z"/><path d="m80 216h32v24h-32z"/><path d="m80 264h32v24h-32z"/><path d="m80 312h32v24h-32z"/><path d="m136 216h32v24h-32z"/><path d="m136 264h32v24h-32z"/><path d="m136 312h32v24h-32z"/><path d="m80 160h144v32h-144z"/><path d="m192 216h32v24h-32z"/><path d="m192 264h32v24h-32z"/><path d="m192 312h32v24h-32z"/><path d="m368 176a72 72 0 1 0 72 72 72.006 72.006 0 0 0 -72-72zm22.63 94.63a32.012 32.012 0 1 1 9.37-22.63 31.9 31.9 0 0 1 -9.37 22.63z"/><path d="m368 176a72 72 0 1 0 72 72 72.006 72.006 0 0 0 -72-72zm22.63 94.63a32.012 32.012 0 1 1 9.37-22.63 31.9 31.9 0 0 1 -9.37 22.63z"/></g><path d="m401.941 214.059-11.314 11.314" fill="none"/><path d="m345.373 270.627-11.314 11.314" fill="none"/><path d="m401.941 281.941-11.314-11.314" fill="none"/><path d="m345.373 225.373-11.314-11.314" fill="none"/><path d="m80 160h144v32h-144z" fill="#57a4ff"/><path d="m80 216h32v24h-32z" fill="#57a4ff"/><path d="m136 216h32v24h-32z" fill="#57a4ff"/><path d="m192 216h32v24h-32z" fill="#57a4ff"/><path d="m80 264h32v24h-32z" fill="#57a4ff"/><path d="m136 264h32v24h-32z" fill="#57a4ff"/><path d="m192 264h32v24h-32z" fill="#57a4ff"/><path d="m80 312h32v24h-32z" fill="#57a4ff"/><path d="m136 312h32v24h-32z" fill="#57a4ff"/><path d="m192 312h32v24h-32z" fill="#57a4ff"/><path d="m64 416h80v24h-80z" fill="#57a4ff"/><path d="m368 416h80v24h-80z" fill="#57a4ff"/></g><g fill="#004fac"><path d="m456 72h-400a48.051 48.051 0 0 0 -48 48v256a48.051 48.051 0 0 0 48 48v16a8 8 0 0 0 8 8h80a8 8 0 0 0 8-8v-16h208v16a8 8 0 0 0 8 8h80a8 8 0 0 0 8-8v-16a48.051 48.051 0 0 0 48-48v-256a48.051 48.051 0 0 0 -48-48zm-320 360h-64v-8h64zm304 0h-64v-8h64zm48-56a32.042 32.042 0 0 1 -32 32h-400a32.042 32.042 0 0 1 -32-32v-256a32.036 32.036 0 0 1 32-32h400a32.036 32.036 0 0 1 32 32z"/><path d="m432 104h-352a40.04 40.04 0 0 0 -40 40v208a40.04 40.04 0 0 0 40 40h352a40.04 40.04 0 0 0 40-40v-208a40.04 40.04 0 0 0 -40-40zm24 248a24.032 24.032 0 0 1 -24 24h-352a24.032 24.032 0 0 1 -24-24v-208a24.032 24.032 0 0 1 24-24h352a24.032 24.032 0 0 1 24 24z"/><path d="m401.356 225.958 6.243-6.242a8 8 0 1 0 -11.315-11.316l-6.242 6.243a39.764 39.764 0 0 0 -14.042-5.838v-8.805a8 8 0 0 0 -16 0v8.805a39.764 39.764 0 0 0 -14.042 5.839l-6.242-6.243a8 8 0 1 0 -11.316 11.315l6.243 6.242a39.764 39.764 0 0 0 -5.838 14.042h-8.805a8 8 0 0 0 0 16h8.805a39.764 39.764 0 0 0 5.839 14.042l-6.243 6.242a8 8 0 0 0 11.315 11.316l6.242-6.243a39.764 39.764 0 0 0 14.042 5.843v8.8a8 8 0 0 0 16 0v-8.8a39.764 39.764 0 0 0 14.042-5.839l6.242 6.243a8 8 0 1 0 11.316-11.32l-6.243-6.242a39.764 39.764 0 0 0 5.843-14.042h8.8a8 8 0 0 0 0-16h-8.8a39.764 39.764 0 0 0 -5.844-14.042zm-33.356 46.042a24 24 0 1 1 24-24 24.028 24.028 0 0 1 -24 24z"/><path d="m368 168a80 80 0 1 0 80 80 80.091 80.091 0 0 0 -80-80zm0 144a64 64 0 1 1 64-64 64.072 64.072 0 0 1 -64 64z"/><path d="m224 152h-144a8 8 0 0 0 -8 8v32a8 8 0 0 0 8 8h144a8 8 0 0 0 8-8v-32a8 8 0 0 0 -8-8zm-8 32h-128v-16h128z"/><path d="m112 208h-32a8 8 0 0 0 -8 8v24a8 8 0 0 0 8 8h32a8 8 0 0 0 8-8v-24a8 8 0 0 0 -8-8zm-8 24h-16v-8h16z"/><path d="m168 208h-32a8 8 0 0 0 -8 8v24a8 8 0 0 0 8 8h32a8 8 0 0 0 8-8v-24a8 8 0 0 0 -8-8zm-8 24h-16v-8h16z"/><path d="m224 208h-32a8 8 0 0 0 -8 8v24a8 8 0 0 0 8 8h32a8 8 0 0 0 8-8v-24a8 8 0 0 0 -8-8zm-8 24h-16v-8h16z"/><path d="m112 256h-32a8 8 0 0 0 -8 8v24a8 8 0 0 0 8 8h32a8 8 0 0 0 8-8v-24a8 8 0 0 0 -8-8zm-8 24h-16v-8h16z"/><path d="m168 256h-32a8 8 0 0 0 -8 8v24a8 8 0 0 0 8 8h32a8 8 0 0 0 8-8v-24a8 8 0 0 0 -8-8zm-8 24h-16v-8h16z"/><path d="m224 256h-32a8 8 0 0 0 -8 8v24a8 8 0 0 0 8 8h32a8 8 0 0 0 8-8v-24a8 8 0 0 0 -8-8zm-8 24h-16v-8h16z"/><path d="m112 304h-32a8 8 0 0 0 -8 8v24a8 8 0 0 0 8 8h32a8 8 0 0 0 8-8v-24a8 8 0 0 0 -8-8zm-8 24h-16v-8h16z"/><path d="m168 304h-32a8 8 0 0 0 -8 8v24a8 8 0 0 0 8 8h32a8 8 0 0 0 8-8v-24a8 8 0 0 0 -8-8zm-8 24h-16v-8h16z"/><path d="m224 304h-32a8 8 0 0 0 -8 8v24a8 8 0 0 0 8 8h32a8 8 0 0 0 8-8v-24a8 8 0 0 0 -8-8zm-8 24h-16v-8h16z"/></g></g></svg>