<svg height="512" viewBox="0 0 512 512" width="512" xmlns="http://www.w3.org/2000/svg"><g><g fill="#57a4ff"><path d="m40 128v368h432v-368zm240 48a24 24 0 1 1 -24 24 24.006 24.006 0 0 1 24-24zm-160 0a24 24 0 1 1 -24 24 24.006 24.006 0 0 1 24-24zm160 209.14v46.86h-46.86l-17.03 16-16.11 15.14-16.11-15.14-17.03-16h-46.86v-46.86l-31.14-33.14 31.14-33.14v-46.86h46.86l33.14-31.14 33.14 31.14h46.86v46.86l31.14 33.14z"/><path d="m376 128h96v368h-96z"/></g><g fill="#004fac"><path d="m472 120h-64v-24a87.951 87.951 0 0 0 -148-64.31 87.951 87.951 0 0 0 -148 64.31v24h-72a8 8 0 0 0 -8 8v368a8 8 0 0 0 8 8h432a8 8 0 0 0 8-8v-368a8 8 0 0 0 -8-8zm-200-24v24h-24v-24a71.611 71.611 0 0 1 12-39.74 71.611 71.611 0 0 1 12 39.74zm8 112a8 8 0 0 0 8-8v-13.83a16 16 0 1 1 -16 0v13.83a8 8 0 0 0 8 8zm-152-112a71.95 71.95 0 0 1 121.33-52.38 87.583 87.583 0 0 0 -17.33 52.38v24h-104zm-8 112a8 8 0 0 0 8-8v-13.83a16 16 0 1 1 -16 0v13.83a8 8 0 0 0 8 8zm248 280h-320v-352h64v33.01a32 32 0 1 0 16 0v-33.01h144v33.01a32 32 0 1 0 16 0v-33.01h80zm-80-368v-24a87.583 87.583 0 0 0 -17.33-52.38 71.95 71.95 0 0 1 121.33 52.38v24zm176 368h-80v-352h80z"/><path d="m424 432a8 8 0 0 0 8-8v-272a8 8 0 0 0 -16 0v272a8 8 0 0 0 8 8z"/><path d="m424 472a8 8 0 0 0 8-8v-16a8 8 0 0 0 -16 0v16a8 8 0 0 0 8 8z"/><path d="m316.967 346.522-28.967-30.828v-43.694a8 8 0 0 0 -8-8h-43.694l-30.828-28.967a8 8 0 0 0 -10.956 0l-30.828 28.967h-43.694a8 8 0 0 0 -8 8v43.694l-28.967 30.828a8 8 0 0 0 0 10.956l28.967 30.828v43.694a8 8 0 0 0 8 8h43.694l30.828 28.967a8 8 0 0 0 10.956 0l30.828-28.967h43.694a8 8 0 0 0 8-8v-43.694l28.967-30.828a8 8 0 0 0 0-10.956zm-42.8 33.137a8 8 0 0 0 -2.17 5.478v38.863h-38.86a8 8 0 0 0 -5.478 2.17l-27.659 25.99-27.659-25.99a8 8 0 0 0 -5.478-2.17h-38.863v-38.863a8 8 0 0 0 -2.17-5.478l-25.99-27.659 25.99-27.659a8 8 0 0 0 2.17-5.478v-38.863h38.863a8 8 0 0 0 5.478-2.17l27.659-25.99 27.659 25.99a8 8 0 0 0 5.478 2.17h38.863v38.863a8 8 0 0 0 2.17 5.478l25.99 27.659z"/><path d="m234.343 322.343-43.363 43.363-18.542-12.362a8 8 0 1 0 -8.876 13.312l24 16a8 8 0 0 0 10.095-1l48-48a8 8 0 1 0 -11.314-11.314z"/></g></g></svg>