<svg height="512" viewBox="0 0 512 512" width="512" xmlns="http://www.w3.org/2000/svg"><g><g><path d="m40 128v368h432v-368zm80 48a24 24 0 1 1 -24 24 24.006 24.006 0 0 1 24-24zm80 288a104 104 0 1 1 104-104 104 104 0 0 1 -104 104zm80-240a24 24 0 1 1 24-24 24.006 24.006 0 0 1 -24 24z" fill="#57a4ff"/><path d="m376 128h96v368h-96z" fill="#57a4ff"/><path d="m148 412 104-104" fill="none"/></g><g fill="#004fac"><path d="m472 120h-64v-24a87.951 87.951 0 0 0 -148-64.31 87.951 87.951 0 0 0 -148 64.31v24h-72a8 8 0 0 0 -8 8v368a8 8 0 0 0 8 8h432a8 8 0 0 0 8-8v-368a8 8 0 0 0 -8-8zm-152-96a72.083 72.083 0 0 1 72 72v24h-104v-24a87.583 87.583 0 0 0 -17.33-52.38 71.737 71.737 0 0 1 49.33-19.62zm-40 184a8 8 0 0 0 8-8v-13.83a16 16 0 1 1 -16 0v13.83a8 8 0 0 0 8 8zm-8-112v24h-24v-24a71.611 71.611 0 0 1 12-39.74 71.611 71.611 0 0 1 12 39.74zm-144 0a71.95 71.95 0 0 1 121.33-52.38 87.583 87.583 0 0 0 -17.33 52.38v24h-104zm-8 112a8 8 0 0 0 8-8v-13.83a16 16 0 1 1 -16 0v13.83a8 8 0 0 0 8 8zm248 280h-320v-352h64v33.01a32 32 0 1 0 16 0v-33.01h144v33.01a32 32 0 1 0 16 0v-33.01h80zm96 0h-80v-352h80z"/><path d="m424 432a8 8 0 0 0 8-8v-272a8 8 0 0 0 -16 0v272a8 8 0 0 0 8 8z"/><path d="m424 472a8 8 0 0 0 8-8v-16a8 8 0 0 0 -16 0v16a8 8 0 0 0 8 8z"/><path d="m200 248a112 112 0 1 0 112 112 112.123 112.123 0 0 0 -112-112zm0 208a96 96 0 1 1 96-96 96.115 96.115 0 0 1 -96 96z"/><path d="m257.66 313.66-104 104a8 8 0 0 1 -11.32-11.32l104-104a8 8 0 0 1 11.32 11.32z"/><path d="m160 344a24 24 0 1 0 -24-24 24.027 24.027 0 0 0 24 24zm0-32a8 8 0 1 1 -8 8 8.009 8.009 0 0 1 8-8z"/><path d="m245.5 368.638a24 24 0 0 0 -11 46.724 24.2 24.2 0 0 0 5.544.647 24.005 24.005 0 0 0 5.454-47.371zm2.288 25.2a8 8 0 1 1 -7.8-9.836 8.026 8.026 0 0 1 1.848.216 7.943 7.943 0 0 1 4.969 3.577 7.944 7.944 0 0 1 .982 6.038z"/></g></g></svg>