<svg height="512" viewBox="0 0 512 512" width="512" xmlns="http://www.w3.org/2000/svg"><g><g fill="#57a4ff"><path d="m64 96h32v32h-32z"/><path d="m64 192h32v32h-32z"/><path d="m88 160h-8v-8z"/><path d="m272 216a8 8 0 0 1 -8-8c0-4.42 4.58-8 9-8s7 3.58 7 8a8 8 0 0 1 -8 8z"/><path d="m256 302.86 31.14 33.14-31.14 33.14v46.86h-46.86l-33.14 31.14-33.14-31.14h-46.86v-46.86l-31.14-33.14 31.14-33.14v-46.86h46.86l33.14-31.14 33.14 31.14h46.86z"/><circle cx="320" cy="208" r="8"/><path d="m264 136h71l-8 48h-63z"/><path d="m368.28 456-8.28 16v-16z"/><path d="m360 456h120v40h-120z"/><path d="m464 36v28h-448v-28a19.994 19.994 0 0 1 20-20h408a19.994 19.994 0 0 1 20 20z"/><g><path d="m64 96h32v32h-32z"/><path d="m64 192h32v32h-32z"/><path d="m88 160h-8v-8z"/><path d="m88 160h-8v-8z"/></g><g><path d="m335 136-8 48h-63v-48z"/><circle cx="320" cy="208" r="8"/><path d="m280 208a8 8 0 0 1 -16 0c0-4.42 4.58-8 9-8s7 3.58 7 8z"/></g><path d="m287.14 336-31.14 33.14v46.86h-46.86l-33.14 31.14-33.14-31.14h-46.86v-46.86l-31.14-33.14 31.14-33.14v-46.86h46.86l33.14-31.14 33.14 31.14h46.86v46.86z"/></g><g fill="#004fac"><path d="m496.97 287.01a24.045 24.045 0 0 0 -24.97-5.64v-9.37c0-.23-.01-.45-.02-.68.01-.1.02-.21.02-.32v-235a28.031 28.031 0 0 0 -28-28h-408a28.031 28.031 0 0 0 -28 28v416a28.031 28.031 0 0 0 28 28h316v16a8 8 0 0 0 8 8h120a8 8 0 0 0 8-8v-40a8 8 0 0 0 -8-8v-23.08l23.12-45.28a7.977 7.977 0 0 0 .88-3.64v-72a23.924 23.924 0 0 0 -7.03-16.99zm-472.97-251.01a12.01 12.01 0 0 1 12-12h408a12.01 12.01 0 0 1 12 12v20h-432zm336 412a8 8 0 0 0 -8 8v8h-316a12.01 12.01 0 0 1 -12-12v-380h432v177.36a24.123 24.123 0 0 0 -16.83.32 23.995 23.995 0 0 0 -23.17-17.68 23.836 23.836 0 0 0 -8 1.37v-17.37a24 24 0 0 0 -48 0v65.36a24.03 24.03 0 0 0 -32 22.64v72a7.945 7.945 0 0 0 1.39 4.5l30.61 44.96zm112 40h-104v-24h104zm16-113.92-23.12 45.28a7.977 7.977 0 0 0 -.88 3.64v25h-88v-25a7.945 7.945 0 0 0 -1.39-4.5l-30.61-44.96v-69.54a8 8 0 1 1 16 0v40a8 8 0 0 0 16 0v-128a8 8 0 1 1 16 0v96a8 8 0 0 0 16 0v-56a8 8 0 1 1 16 0v56a8 8 0 0 0 16 0v-40a8 8 0 1 1 16 0v40a8 8 0 0 0 16 0v-8a8 8 0 1 1 16 0z"/><path d="m40 48h8a8 8 0 0 0 0-16h-8a8 8 0 0 0 0 16z"/><path d="m72 48h8a8 8 0 0 0 0-16h-8a8 8 0 0 0 0 16z"/><path d="m104 48h8a8 8 0 0 0 0-16h-8a8 8 0 0 0 0 16z"/><path d="m104 128.02v-32.02a8 8 0 0 0 -8-8h-32a8 8 0 0 0 -8 8v32.02a39.96 39.96 0 0 0 0 63.96v32.02a8 8 0 0 0 8 8h32a8 8 0 0 0 8-8v-32.02a39.96 39.96 0 0 0 0-63.96zm-32-24.02h16v16h-16zm16 112h-16v-16h16zm-8-32a24 24 0 1 1 24-24 24.032 24.032 0 0 1 -24 24z"/><path d="m80 168h8a8 8 0 0 0 0-16 8 8 0 0 0 -16 0v8a8 8 0 0 0 8 8z"/><path d="m144 168h68.686l-10.343 10.343a8 8 0 0 0 11.314 11.314l24-24a8 8 0 0 0 0-11.314l-24-24a8 8 0 0 0 -11.314 11.314l10.343 10.343h-68.686a8 8 0 0 0 0 16z"/><circle cx="320" cy="208" r="8"/><path d="m264 208a8 8 0 0 0 16 0c0-4.418-2.582-8-7-8s-9 3.582-9 8z"/><path d="m341.1 130.83a8.009 8.009 0 0 0 -6.1-2.83h-63v-8a8 8 0 0 0 -8-8h-16a8 8 0 0 0 0 16h8v56a8 8 0 0 0 8 8h63a8 8 0 0 0 7.89-6.68l8-48a7.994 7.994 0 0 0 -1.79-6.49zm-20.88 45.17h-48.22v-32h53.56z"/><path d="m264 299.694v-43.694a8 8 0 0 0 -8-8h-43.694l-30.828-28.967a8 8 0 0 0 -10.956 0l-30.828 28.967h-43.694a8 8 0 0 0 -8 8v43.694l-28.967 30.827a8 8 0 0 0 0 10.958l28.967 30.827v43.694a8 8 0 0 0 8 8h43.694l30.828 28.967a8 8 0 0 0 10.956 0l30.828-28.967h43.694a8 8 0 0 0 8-8v-43.694l28.967-30.827a8 8 0 0 0 0-10.958zm-13.83 63.964a8 8 0 0 0 -2.17 5.479v38.863h-38.863a8 8 0 0 0 -5.478 2.17l-27.659 25.989-27.659-25.989a8 8 0 0 0 -5.478-2.17h-38.863v-38.863a8 8 0 0 0 -2.17-5.479l-25.99-27.658 25.99-27.658a8 8 0 0 0 2.17-5.479v-38.863h38.863a8 8 0 0 0 5.478-2.17l27.659-25.989 27.659 25.989a8 8 0 0 0 5.478 2.17h38.863v38.863a8 8 0 0 0 2.17 5.479l25.99 27.658z"/><path d="m210.343 306.343-43.363 43.363-18.542-12.362a8 8 0 1 0 -8.876 13.312l24 16a8 8 0 0 0 10.095-1l48-48a8 8 0 1 0 -11.314-11.314z"/></g></g></svg>