<svg height="512" viewBox="0 0 512 512" width="512" xmlns="http://www.w3.org/2000/svg"><g><g fill="#57a4ff"><path d="m496 160v40h-64v-16h-32v16h-288v-16h-32v16h-64v-40z"/><path d="m80 224h32v8h-32z"/><path d="m400 224h32v8h-32z"/><path d="m80 224h32v8h-32z"/><circle cx="200" cy="296" r="24"/><circle cx="312" cy="416" r="24"/><path d="m339.2 276.8a16.018 16.018 0 0 1 0 22.63l-135.77 135.77a16 16 0 0 1 -22.63-22.63l135.77-135.77a16.018 16.018 0 0 1 22.63 0z"/><path d="m400 224h32v8h-32z"/><path d="m343.88 288.12a15.97 15.97 0 0 1 -4.68 11.31l-135.77 135.77a16 16 0 0 1 -22.63-22.63l135.77-135.77a16 16 0 0 1 27.31 11.32z"/><circle cx="200" cy="296" r="24"/><circle cx="312" cy="416" r="24"/></g><g fill="#004fac"><path d="m496 152h-208v-24a8 8 0 0 0 -8-8h-16v-16.67a48 48 0 1 0 -56-47.33 8 8 0 0 0 16 0 32 32 0 1 1 32 32 8 8 0 0 0 -8 8v24h-16a8 8 0 0 0 -8 8v24h-208a8 8 0 0 0 -8 8v40a8 8 0 0 0 8 8h56v8h-24a8 8 0 0 0 -8 8v272a8 8 0 0 0 8 8h416a8 8 0 0 0 8-8v-272a8 8 0 0 0 -8-8h-24v-8h56a8 8 0 0 0 8-8v-40a8 8 0 0 0 -8-8zm-256-16h32v16h-32zm216 96v256h-400v-256h16a8 8 0 0 0 8 8h32a8 8 0 0 0 8-8h272a8 8 0 0 0 8 8h32a8 8 0 0 0 8-8zm-368-8v-32h16v32zm32-8v-8h272v8zm288 8v-32h16v32zm80-32h-48v-8a8 8 0 0 0 -8-8h-32a8 8 0 0 0 -8 8v8h-272v-8a8 8 0 0 0 -8-8h-32a8 8 0 0 0 -8 8v8h-48v-24h464z"/><path d="m310.911 271.146-135.765 135.766a24.03 24.03 0 0 0 0 33.941 24.034 24.034 0 0 0 33.942 0l135.766-135.765a24 24 0 0 0 -33.943-33.942zm22.628 22.628-135.764 135.765a8 8 0 1 1 -11.314-11.313l135.764-135.765a8 8 0 1 1 11.314 11.313z"/><path d="m200 328a32 32 0 1 0 -32-32 32.036 32.036 0 0 0 32 32zm0-48a16 16 0 1 1 -16 16 16.019 16.019 0 0 1 16-16z"/><path d="m312 384a32 32 0 1 0 32 32 32.036 32.036 0 0 0 -32-32zm0 48a16 16 0 1 1 16-16 16.019 16.019 0 0 1 -16 16z"/></g></g></svg>