<svg height="512" viewBox="0 0 512 512" width="512" xmlns="http://www.w3.org/2000/svg"><g><g fill="#57a4ff"><path d="m347.31 188.69a15.988 15.988 0 0 1 0 22.62l-104 104a15.982 15.982 0 0 1 -22.62 0l-40-40a15.995 15.995 0 1 1 22.62-22.62l28.69 28.68 92.69-92.68a15.982 15.982 0 0 1 22.62 0z"/><path d="m423.41 74.23-167.41-58.23-167.41 58.23a23.991 23.991 0 0 0 -16.1 23.33l7.18 258.64a24.013 24.013 0 0 0 9.88 18.74l166.45 121.06 166.45-121.06a24.013 24.013 0 0 0 9.88-18.74l7.18-258.64a23.991 23.991 0 0 0 -16.1-23.33zm-22.63 265.35a24.013 24.013 0 0 1 -9.88 18.74l-134.9 98.11-134.9-98.11a24.013 24.013 0 0 1 -9.88-18.74l-6.09-219.49a23.982 23.982 0 0 1 16.1-23.33l134.77-46.88 134.77 46.88a23.982 23.982 0 0 1 16.1 23.33z"/><path d="m347.31 211.31-104 104a15.982 15.982 0 0 1 -22.62 0l-40-40a15.995 15.995 0 1 1 22.62-22.62l28.69 28.68 92.69-92.68a15.995 15.995 0 0 1 22.62 22.62z"/><path d="m347.31 211.31-104 104a15.982 15.982 0 0 1 -22.62 0l-40-40a15.995 15.995 0 1 1 22.62-22.62l28.69 28.68 92.69-92.68a15.995 15.995 0 0 1 22.62 22.62z"/></g><g fill="#004fac"><path d="m426.03 66.67-167.4-58.23a8.037 8.037 0 0 0 -5.26 0l-167.41 58.23a31.891 31.891 0 0 0 -21.47 31.11l7.18 258.64a32.217 32.217 0 0 0 13.17 24.99l166.45 121.06a8.015 8.015 0 0 0 9.42 0l166.45-121.06a32.217 32.217 0 0 0 13.17-24.99l7.18-258.63a31.891 31.891 0 0 0 -21.48-31.12zm-1.7 289.31a16.109 16.109 0 0 1 -6.58 12.49l-161.75 117.64-161.75-117.64a16.109 16.109 0 0 1 -6.58-12.49l-7.18-258.64a15.952 15.952 0 0 1 10.73-15.56l164.78-57.31 164.78 57.31a15.952 15.952 0 0 1 10.73 15.56z"/><path d="m393.4 89.2-134.77-46.88a8.037 8.037 0 0 0 -5.26 0l-134.77 46.88a31.882 31.882 0 0 0 -21.47 31.11l6.1 219.49a32.189 32.189 0 0 0 13.16 24.99l134.9 98.11a8.015 8.015 0 0 0 9.42 0l134.9-98.11a32.193 32.193 0 0 0 13.16-24.99l6.1-219.49a31.882 31.882 0 0 0 -21.47-31.11zm-.62 250.16a16.124 16.124 0 0 1 -6.58 12.49l-130.2 94.69-130.2-94.69a16.124 16.124 0 0 1 -6.58-12.49l-6.1-219.49a15.952 15.952 0 0 1 10.74-15.56l132.14-45.96 132.14 45.96a15.952 15.952 0 0 1 10.74 15.56z"/><path d="m352.97 183.03a24 24 0 0 0 -33.94 0l-87.03 87.03-23.03-23.03a24 24 0 1 0 -33.94 33.94l40 40a24 24 0 0 0 33.94 0l104-104a24 24 0 0 0 0-33.94zm-11.31 22.63-104 104a8.015 8.015 0 0 1 -11.32 0l-40-40a8 8 0 0 1 11.32-11.32l28.68 28.69a8.015 8.015 0 0 0 11.32 0l92.68-92.69a8 8 0 0 1 11.32 11.32z"/></g></g></svg>