<svg height="512" viewBox="0 0 512 512" width="512" xmlns="http://www.w3.org/2000/svg"><g><g fill="#57a4ff"><path d="m331.31 195.31-50.69 52.69 50.69 52.69a15.995 15.995 0 1 1 -22.62 22.62l-52.69-50.69-52.69 50.69a15.995 15.995 0 0 1 -22.62-22.62l50.69-52.69-50.69-52.69a15.995 15.995 0 1 1 22.62-22.62l52.69 50.69 52.69-50.69a15.995 15.995 0 0 1 22.62 22.62z"/><path d="m423.41 74.23-167.41-58.23-167.41 58.23a23.991 23.991 0 0 0 -16.1 23.33l7.18 258.64a24.013 24.013 0 0 0 9.88 18.74l166.45 121.06 166.45-121.06a24.013 24.013 0 0 0 9.88-18.74l7.18-258.64a23.991 23.991 0 0 0 -16.1-23.33zm-22.63 265.35a24.013 24.013 0 0 1 -9.88 18.74l-134.9 98.11-134.9-98.11a24.013 24.013 0 0 1 -9.88-18.74l-6.09-219.49a23.982 23.982 0 0 1 16.1-23.33l134.77-46.88 134.77 46.88a23.982 23.982 0 0 1 16.1 23.33z"/><path d="m331.31 300.69a15.995 15.995 0 1 1 -22.62 22.62l-52.69-50.69-52.69 50.69a15.995 15.995 0 0 1 -22.62-22.62l50.69-52.69-50.69-52.69a15.995 15.995 0 1 1 22.62-22.62l52.69 50.69 52.69-50.69a15.995 15.995 0 0 1 22.62 22.62l-50.69 52.69z"/><path d="m331.31 300.69a15.995 15.995 0 1 1 -22.62 22.62l-52.69-50.69-52.69 50.69a15.995 15.995 0 0 1 -22.62-22.62l50.69-52.69-50.69-52.69a15.995 15.995 0 1 1 22.62-22.62l52.69 50.69 52.69-50.69a15.995 15.995 0 0 1 22.62 22.62l-50.69 52.69z"/></g><g fill="#004fac"><path d="m426.03 66.67-167.4-58.23a8.037 8.037 0 0 0 -5.26 0l-167.41 58.23a31.891 31.891 0 0 0 -21.47 31.11l7.18 258.64a32.217 32.217 0 0 0 13.17 24.99l166.45 121.06a8.015 8.015 0 0 0 9.42 0l166.45-121.06a32.217 32.217 0 0 0 13.17-24.99l7.18-258.63a31.891 31.891 0 0 0 -21.48-31.12zm-1.7 289.31a16.109 16.109 0 0 1 -6.58 12.49l-161.75 117.64-161.75-117.64a16.109 16.109 0 0 1 -6.58-12.49l-7.18-258.64a15.952 15.952 0 0 1 10.73-15.56l164.78-57.31 164.78 57.31a15.952 15.952 0 0 1 10.73 15.56z"/><path d="m393.4 89.2-134.77-46.88a8.037 8.037 0 0 0 -5.26 0l-134.77 46.88a31.882 31.882 0 0 0 -21.47 31.11l6.1 219.49a32.189 32.189 0 0 0 13.16 24.99l134.9 98.11a8.015 8.015 0 0 0 9.42 0l134.9-98.11a32.193 32.193 0 0 0 13.16-24.99l6.1-219.49a31.882 31.882 0 0 0 -21.47-31.11zm-.62 250.16a16.124 16.124 0 0 1 -6.58 12.49l-130.2 94.69-130.2-94.69a16.124 16.124 0 0 1 -6.58-12.49l-6.1-219.49a15.952 15.952 0 0 1 10.74-15.56l132.14-45.96 132.14 45.96a15.952 15.952 0 0 1 10.74 15.56z"/><path d="m344 184a23.994 23.994 0 0 0 -40.908-17.024l-47.092 45.303-47.09-45.3a24 24 0 0 0 -33.936 33.932l45.304 47.089-45.3 47.092a24 24 0 0 0 33.936 33.932l47.09-45.3 47.09 45.3a24 24 0 0 0 33.936-33.932l-45.308-47.092 45.3-47.092a23.823 23.823 0 0 0 6.978-16.908zm-18.34 5.648-.113.116-50.691 52.69a8 8 0 0 0 0 11.092l50.691 52.69.113.115a8 8 0 0 1 -11.3 11.31l-.118-.116-52.689-50.69a8 8 0 0 0 -11.094 0l-52.689 50.69-.118.116a8 8 0 0 1 -11.3-11.31l.113-.115 50.691-52.69a8 8 0 0 0 0-11.092l-50.691-52.69-.113-.116a7.995 7.995 0 0 1 11.3-11.309l.118.116 52.689 50.69a8 8 0 0 0 11.094 0l52.689-50.69.118-.116a7.995 7.995 0 0 1 11.3 11.309z"/></g></g></svg>