<svg height="512" viewBox="0 0 512 512" width="512" xmlns="http://www.w3.org/2000/svg"><g><g fill="#57a4ff"><path d="m40 128v368h432v-368zm80 344h-56v-48h56zm0-248a24 24 0 1 1 24-24 24.006 24.006 0 0 1 -24 24zm160 0a24 24 0 1 1 24-24 24.006 24.006 0 0 1 -24 24z"/><path d="m376 128h96v368h-96z"/></g><g fill="#004fac"><path d="m472 120h-64v-24a87.951 87.951 0 0 0 -148-64.31 87.951 87.951 0 0 0 -148 64.31v24h-72a8 8 0 0 0 -8 8v368a8 8 0 0 0 8 8h432a8 8 0 0 0 8-8v-368a8 8 0 0 0 -8-8zm-200-24v24h-24v-24a71.611 71.611 0 0 1 12-39.74 71.611 71.611 0 0 1 12 39.74zm8 112a8 8 0 0 0 8-8v-13.83a16 16 0 1 1 -16 0v13.83a8 8 0 0 0 8 8zm-152-112a71.95 71.95 0 0 1 121.33-52.38 87.583 87.583 0 0 0 -17.33 52.38v24h-104zm-8 112a8 8 0 0 0 8-8v-13.83a16 16 0 1 1 -16 0v13.83a8 8 0 0 0 8 8zm248 280h-320v-352h64v33.01a32 32 0 1 0 16 0v-33.01h144v33.01a32 32 0 1 0 16 0v-33.01h80zm-80-368v-24a87.583 87.583 0 0 0 -17.33-52.38 71.95 71.95 0 0 1 121.33 52.38v24zm176 368h-80v-352h80z"/><path d="m424 432a8 8 0 0 0 8-8v-272a8 8 0 0 0 -16 0v272a8 8 0 0 0 8 8z"/><path d="m424 472a8 8 0 0 0 8-8v-16a8 8 0 0 0 -16 0v16a8 8 0 0 0 8 8z"/><path d="m120 416h-56a8 8 0 0 0 -8 8v48a8 8 0 0 0 8 8h56a8 8 0 0 0 8-8v-48a8 8 0 0 0 -8-8zm-8 48h-40v-32h40z"/><path d="m224 416h-80a8 8 0 0 0 0 16h80a8 8 0 0 0 0-16z"/><path d="m224 440h-80a8 8 0 0 0 0 16h80a8 8 0 0 0 0-16z"/><path d="m184 464h-40a8 8 0 0 0 0 16h40a8 8 0 0 0 0-16z"/><path d="m216 464h-8a8 8 0 0 0 0 16h8a8 8 0 0 0 0-16z"/></g></g></svg>