<svg height="512" viewBox="0 0 512 512" width="512" xmlns="http://www.w3.org/2000/svg"><g><g><path d="m423 216-48-64" fill="none"/><path d="m246 216 49-64" fill="none"/><path d="m280 248 8 56" fill="none"/><path d="m384 304 8-56" fill="none"/><g fill="#57a4ff"><path d="m112 88h48v48h-48z"/><path d="m112 168h48v48h-48z"/><path d="m112 248h48v48h-48z"/><path d="m112 328h48v48h-48z"/><path d="m168 48-8-32h96l-8 32z"/><path d="m304 424a15.979 15.979 0 0 1 -16 16h-160a16 16 0 1 1 0-32h160a16 16 0 0 1 16 16z"/><path d="m336 216v120h-74.99a16 16 0 0 1 -15.86-13.89l-20.73-88a15.993 15.993 0 0 1 15.85-18.11z"/><path d="m256 16-8 32h-80l-8-32z"/><path d="m112 88h48v48h-48z"/><path d="m112 168h48v48h-48z"/><path d="m112 248h48v48h-48z"/><path d="m112 328h48v48h-48z"/><path d="m304 424a15.979 15.979 0 0 1 -16 16h-160a16 16 0 1 1 0-32h160a16 16 0 0 1 16 16z"/><path d="m444.58 234.11-19.73 88a16 16 0 0 1 -15.86 13.89h-147.98a16 16 0 0 1 -15.86-13.89l-20.73-88a15.993 15.993 0 0 1 15.85-18.11h188.46a15.993 15.993 0 0 1 15.85 18.11z"/></g></g><g fill="#004fac"><path d="m446.78 216.19a24 24 0 0 0 -18.05-8.19h-1.73l-45.6-60.8a8 8 0 0 0 -12.8 9.6l38.4 51.2h-63v-172a28.031 28.031 0 0 0 -28-28h-216a28.031 28.031 0 0 0 -28 28v440a28.031 28.031 0 0 0 28 28h216a28.031 28.031 0 0 0 28-28v-132h64.99a24.081 24.081 0 0 0 23.74-20.44l19.66-87.69c.05-.23.09-.47.12-.7a23.967 23.967 0 0 0 -5.73-18.98zm-201.03-192.19-4 16h-67.5l-4-16zm82.25 452a12.01 12.01 0 0 1 -12 12h-216a12.01 12.01 0 0 1 -12-12v-440a12.01 12.01 0 0 1 12-12h53.75l6.49 25.94a8 8 0 0 0 7.76 6.06h80a8 8 0 0 0 7.76-6.06l6.49-25.94h53.75a12.01 12.01 0 0 1 12 12v172h-65.8l39.15-51.14a8 8 0 0 0 -12.7-9.72l-46.6 60.86h-10.05a7.989 7.989 0 0 0 -7.78 6.17 23.9 23.9 0 0 0 -7.73 21 7.1 7.1 0 0 0 .14.78l20.65 87.65a24.076 24.076 0 0 0 23.73 20.4h66.99zm108.69-243.24-19.64 87.6a5.4 5.4 0 0 0 -.13.7 8.034 8.034 0 0 1 -7.93 6.94h-147.98a8.034 8.034 0 0 1 -7.93-6.94c-.04-.26-.08-.52-.14-.78l-20.63-87.55a8 8 0 0 1 7.96-8.73h188.46a8.008 8.008 0 0 1 7.96 8.76z"/><path d="m336 240a8 8 0 0 0 -8 8v55a8 8 0 0 0 16 0v-55a8 8 0 0 0 -8-8z"/><path d="m287.919 246.868a8 8 0 1 0 -15.838 2.264l8 56a8 8 0 1 0 15.838-2.264z"/><path d="m393.131 240.08a8 8 0 0 0 -9.05 6.788l-8 56a8 8 0 1 0 15.838 2.264l8-56a8 8 0 0 0 -6.788-9.052z"/><path d="m152 464h-40a8 8 0 0 0 0 16h40a8 8 0 0 0 0-16z"/><path d="m184 464h-8a8 8 0 0 0 0 16h8a8 8 0 0 0 0-16z"/><path d="m112 144h48a8 8 0 0 0 8-8v-48a8 8 0 0 0 -8-8h-48a8 8 0 0 0 -8 8v48a8 8 0 0 0 8 8zm8-48h32v32h-32z"/><path d="m184 96h72a8 8 0 0 0 0-16h-72a8 8 0 0 0 0 16z"/><path d="m184 120h72a8 8 0 0 0 0-16h-72a8 8 0 0 0 0 16z"/><path d="m184 144h24a8 8 0 0 0 0-16h-24a8 8 0 0 0 0 16z"/><path d="m240 128h-8a8 8 0 0 0 0 16h8a8 8 0 0 0 0-16z"/><path d="m112 224h48a8 8 0 0 0 8-8v-48a8 8 0 0 0 -8-8h-48a8 8 0 0 0 -8 8v48a8 8 0 0 0 8 8zm8-48h32v32h-32z"/><path d="m184 176h24a8 8 0 0 0 0-16h-24a8 8 0 0 0 0 16z"/><path d="m184 200h24a8 8 0 0 0 0-16h-24a8 8 0 0 0 0 16z"/><path d="m184 224h16a8 8 0 0 0 0-16h-16a8 8 0 0 0 0 16z"/><path d="m112 304h48a8 8 0 0 0 8-8v-48a8 8 0 0 0 -8-8h-48a8 8 0 0 0 -8 8v48a8 8 0 0 0 8 8zm8-48h32v32h-32z"/><path d="m184 256h16a8 8 0 0 0 0-16h-16a8 8 0 0 0 0 16z"/><path d="m184 280h16a8 8 0 0 0 0-16h-16a8 8 0 0 0 0 16z"/><path d="m184 304h16a8 8 0 0 0 0-16h-16a8 8 0 0 0 0 16z"/><path d="m112 384h48a8 8 0 0 0 8-8v-48a8 8 0 0 0 -8-8h-48a8 8 0 0 0 -8 8v48a8 8 0 0 0 8 8zm8-48h32v32h-32z"/><path d="m184 336h16a8 8 0 0 0 0-16h-16a8 8 0 0 0 0 16z"/><path d="m184 360h40a8 8 0 0 0 0-16h-40a8 8 0 0 0 0 16z"/><path d="m184 384h40a8 8 0 0 0 0-16h-40a8 8 0 0 0 0 16z"/><path d="m104 424a24.028 24.028 0 0 0 24 24h160a24 24 0 0 0 0-48h-160a24.028 24.028 0 0 0 -24 24zm192 0a8.009 8.009 0 0 1 -8 8h-160a8 8 0 0 1 0-16h160a8.009 8.009 0 0 1 8 8z"/></g></g></svg>