<svg height="512" viewBox="0 0 512 512" width="512" xmlns="http://www.w3.org/2000/svg"><g><g fill="#57a4ff"><path d="m272 88v80h-24v40l-40-40h-152v-80h72v24h63l4-24z"/><path d="m48 240h200v112h-200z"/><circle cx="336" cy="160" r="24"/><circle cx="416" cy="160" r="24"/><path d="m296 216h160v32h-160z"/><path d="m56 16v152h152l40 40v-40h24v-152zm135 96h-63v-48h71z"/><path d="m496 384v20a19.994 19.994 0 0 1 -20 20h-440a19.994 19.994 0 0 1 -20-20v-20z"/><path d="m160 472h192v24h-192z"/><g><circle cx="184" cy="136" r="8"/><path d="m144 136a8 8 0 0 1 -16 0c0-4.418 4.582-8 9-8s7 3.582 7 8z"/><path d="m104 48h24v16z"/></g><circle cx="336" cy="160" r="24"/><circle cx="416" cy="160" r="24"/><path d="m296 216h160v32h-160z"/><path d="m48 240h200v112h-200z"/></g><g fill="#004fac"><path d="m476 80h-196v-64a8 8 0 0 0 -8-8h-216a8 8 0 0 0 -8 8v64h-12a28.031 28.031 0 0 0 -28 28v296a28.031 28.031 0 0 0 28 28h160.9l-10.67 32h-26.23a8 8 0 0 0 -8 8v24a8 8 0 0 0 8 8h192a8 8 0 0 0 8-8v-24a8 8 0 0 0 -8-8h-26.23l-10.67-32h160.9a28.031 28.031 0 0 0 28-28v-296a28.031 28.031 0 0 0 -28-28zm-412-56h200v136h-16a8 8 0 0 0 -8 8v20.69l-26.34-26.35a8.008 8.008 0 0 0 -5.66-2.34h-144zm280 456v8h-176v-8zm-140.9-16 10.67-32h84.46l10.67 32zm284.9-60a12.01 12.01 0 0 1 -12 12h-440a12.01 12.01 0 0 1 -12-12v-12h464zm0-28h-464v-268a12.01 12.01 0 0 1 12-12h12v72a8 8 0 0 0 8 8h148.69l37.65 37.66a8 8 0 0 0 13.66-5.66v-32h16a8 8 0 0 0 8-8v-72h196a12.01 12.01 0 0 1 12 12z"/><circle cx="184" cy="136" r="8"/><path d="m137 128c-4.418 0-9 3.582-9 8a8 8 0 0 0 16 0c0-4.418-2.582-8-7-8z"/><path d="m205.1 58.83a8.009 8.009 0 0 0 -6.1-2.83h-63v-8a8 8 0 0 0 -8-8h-24a8 8 0 0 0 0 16h16v56a8 8 0 0 0 8 8h63a8 8 0 0 0 7.89-6.68l8-48a7.994 7.994 0 0 0 -1.79-6.49zm-20.88 45.17h-48.22v-32h53.56z"/><path d="m336 192a32.057 32.057 0 0 0 30.987-24h18.026a32 32 0 1 0 0-16h-18.026a32 32 0 1 0 -30.987 40zm80-48a16 16 0 1 1 -16 16 16.019 16.019 0 0 1 16-16zm-80 0a16 16 0 1 1 -16 16 16.019 16.019 0 0 1 16-16z"/><path d="m456 208h-160a8 8 0 0 0 -8 8v32a8 8 0 0 0 8 8h160a8 8 0 0 0 8-8v-32a8 8 0 0 0 -8-8zm-8 32h-144v-16h144z"/><path d="m456 264h-160a8 8 0 0 0 0 16h160a8 8 0 0 0 0-16z"/><path d="m456 288h-160a8 8 0 0 0 0 16h160a8 8 0 0 0 0-16z"/><path d="m456 312h-160a8 8 0 0 0 0 16h160a8 8 0 0 0 0-16z"/><path d="m392 336h-96a8 8 0 0 0 0 16h96a8 8 0 0 0 0-16z"/><path d="m424 336h-8a8 8 0 0 0 0 16h8a8 8 0 0 0 0-16z"/><path d="m248 232h-200a8 8 0 0 0 -8 8v112a8 8 0 0 0 8 8h200a8 8 0 0 0 8-8v-112a8 8 0 0 0 -8-8zm-8 112h-184v-96h184z"/></g></g></svg>