<svg height="512" viewBox="0 0 512 512" width="512" xmlns="http://www.w3.org/2000/svg"><g><g><g fill="#57a4ff"><path d="m496 344v44a19.994 19.994 0 0 1 -20 20h-440a19.994 19.994 0 0 1 -20-20v-44z"/><path d="m48 56h48v48h-48z"/><path d="m365.58 186.11-19.73 88a16 16 0 0 1 -15.86 13.89h-147.98a16 16 0 0 1 -15.86-13.89l-20.73-88a15.993 15.993 0 0 1 15.85-18.11h188.46a15.993 15.993 0 0 1 15.85 18.11z"/><path d="m432 176h32v56h-32z"/><path d="m432 256h32v56h-32z"/><path d="m368 496h-224l8-40h208z"/><path d="m48 56h48v48h-48z"/><path d="m432 256h32v56h-32z"/><path d="m432 176h32v56h-32z"/><path d="m365.58 186.11-19.73 88a16 16 0 0 1 -15.86 13.89h-147.98a16 16 0 0 1 -15.86-13.89l-20.73-88a15.993 15.993 0 0 1 15.85-18.11h188.46a15.993 15.993 0 0 1 15.85 18.11z"/></g><path d="m200 200 8 56" fill="none"/><path d="m304 256 8-56" fill="none"/></g><g fill="#004fac"><path d="m476 16h-440a28.031 28.031 0 0 0 -28 28v344a28.031 28.031 0 0 0 28 28h160.9l-10.67 32h-34.23a7.99 7.99 0 0 0 -7.84 6.43l-6.72 33.57h-73.44a8 8 0 0 0 0 16h352a8 8 0 0 0 0-16h-41.44l-6.72-33.57a7.99 7.99 0 0 0 -7.84-6.43h-34.23l-10.67-32h160.9a28.031 28.031 0 0 0 28-28v-344a28.031 28.031 0 0 0 -28-28zm-122.56 448 4.8 24h-204.48l4.8-24zm-150.34-16 10.67-32h84.46l10.67 32zm284.9-60a12.01 12.01 0 0 1 -12 12h-440a12.01 12.01 0 0 1 -12-12v-36h464zm0-52h-464v-292a12.01 12.01 0 0 1 12-12h440a12.01 12.01 0 0 1 12 12z"/><path d="m96 48h-48a8 8 0 0 0 -8 8v48a8 8 0 0 0 8 8h48a8 8 0 0 0 8-8v-48a8 8 0 0 0 -8-8zm-8 48h-32v-32h32z"/><path d="m464 248h-32a8 8 0 0 0 -8 8v56a8 8 0 0 0 8 8h32a8 8 0 0 0 8-8v-56a8 8 0 0 0 -8-8zm-8 56h-16v-40h16z"/><path d="m464 168h-32a8 8 0 0 0 -8 8v56a8 8 0 0 0 8 8h32a8 8 0 0 0 8-8v-56a8 8 0 0 0 -8-8zm-8 56h-16v-40h16z"/><path d="m162.343 101.657a8 8 0 1 0 11.314-11.314l-16-16a8 8 0 0 0 -5.657-2.343h-32a8 8 0 0 0 0 16h28.687z"/><path d="m448 488h-8a8 8 0 0 0 0 16h8a8 8 0 0 0 0-16z"/><path d="m349.725 160h-1.725l-45.6-60.8a8 8 0 1 0 -12.8 9.6l38.4 51.2h-144.8l39.152-51.137a8 8 0 0 0 -12.706-9.726l-46.597 60.863h-1.774a24 24 0 0 0 -23.79 27.171 7.883 7.883 0 0 0 .143.778l20.652 87.651a24.077 24.077 0 0 0 23.728 20.4h147.984a24.078 24.078 0 0 0 23.736-20.444l19.663-87.691c.051-.229.092-.461.124-.694a24 24 0 0 0 -23.79-27.171zm7.963 24.765-19.643 87.6q-.076.344-.123.694a8.024 8.024 0 0 1 -7.93 6.942h-147.984a8.024 8.024 0 0 1 -7.93-6.942q-.052-.393-.142-.779l-20.628-87.55a8 8 0 0 1 7.967-8.73h188.45a8 8 0 0 1 7.963 8.765z"/><path d="m256 192a8 8 0 0 0 -8 8v55a8 8 0 0 0 16 0v-55a8 8 0 0 0 -8-8z"/><path d="m207.92 198.868a8 8 0 0 0 -15.84 2.264l8 56a8 8 0 1 0 15.84-2.264z"/><path d="m313.132 192.08a7.992 7.992 0 0 0 -9.052 6.788l-8 56a8 8 0 1 0 15.84 2.264l8-56a8 8 0 0 0 -6.788-9.052z"/></g></g></svg>