<svg height="512" viewBox="0 0 512 512" width="512" xmlns="http://www.w3.org/2000/svg"><g><g fill="#57a4ff"><path d="m80 64h96v96h-96z"/><path d="m208 64h96v96h-96z"/><path d="m16 320h320v24h-320z"/><path d="m336 64h96v96h-96z"/><path d="m360 440h120v48h-120z"/><path d="m336 320v40h-300a20 20 0 0 1 -19.6-16 20.248 20.248 0 0 1 -.4-4v-20z"/><path d="m176 408h160v24h-160z"/><path d="m208 64h96v96h-96z"/><path d="m336 64h96v96h-96z"/><path d="m80 64h96v96h-96z"/></g><g fill="#004fac"><path d="m476 16h-440a28.031 28.031 0 0 0 -28 28v296a28.031 28.031 0 0 0 28 28h168.9l-10.67 32h-18.23a8 8 0 0 0 -8 8v24a8 8 0 0 0 8 8h160a8 8 0 0 0 8-8v-24a8 8 0 0 0 -8-8h-18.23l-10.67-32h24.67l28.23 41.46v22.54a8 8 0 0 0 -8 8v48a8 8 0 0 0 8 8h120a8 8 0 0 0 8-8v-48a8 8 0 0 0 -8-8v-23.08l23.12-45.28a7.977 7.977 0 0 0 .88-3.64v-316a28.031 28.031 0 0 0 -28-28zm-148 400v8h-144v-8zm-116.9-16 10.67-32h68.46l10.67 32zm116.9-48h-292a12.01 12.01 0 0 1 -12-12v-12h304zm144 128h-104v-32h104zm16-121.92-23.12 45.28a7.977 7.977 0 0 0 -.88 3.64v25h-88v-25a7.945 7.945 0 0 0 -1.39-4.5l-30.61-44.96v-69.54a8.011 8.011 0 0 1 8-8 7.989 7.989 0 0 1 8 8v40a8 8 0 0 0 16 0v-128a8.011 8.011 0 0 1 8-8 7.989 7.989 0 0 1 8 8v96a8 8 0 0 0 16 0v-56a8.011 8.011 0 0 1 8-8 7.989 7.989 0 0 1 8 8v56a8 8 0 0 0 16 0v-40a8.011 8.011 0 0 1 8-8 7.989 7.989 0 0 1 8 8v40a8 8 0 0 0 16 0v-8a8.011 8.011 0 0 1 8-8 7.989 7.989 0 0 1 8 8zm0-92.72a24.134 24.134 0 0 0 -8-1.36 23.836 23.836 0 0 0 -8 1.37v-9.37a24.007 24.007 0 0 0 -32.83-22.32 23.995 23.995 0 0 0 -23.17-17.68 23.836 23.836 0 0 0 -8 1.37v-17.37a24 24 0 0 0 -48 0v65.36a24.03 24.03 0 0 0 -32 22.64v24h-304v-268a12.01 12.01 0 0 1 12-12h440a12.01 12.01 0 0 1 12 12z"/><path d="m304 56h-96a8 8 0 0 0 -8 8v96a8 8 0 0 0 8 8h96a8 8 0 0 0 8-8v-96a8 8 0 0 0 -8-8zm-8 96h-80v-80h80z"/><path d="m336 168h96a8 8 0 0 0 8-8v-96a8 8 0 0 0 -8-8h-96a8 8 0 0 0 -8 8v96a8 8 0 0 0 8 8zm8-96h80v80h-80z"/><path d="m176 56h-96a8 8 0 0 0 -8 8v96a8 8 0 0 0 8 8h96a8 8 0 0 0 8-8v-96a8 8 0 0 0 -8-8zm-8 96h-80v-80h80z"/><path d="m176 184h-96a8 8 0 0 0 0 16h96a8 8 0 0 0 0-16z"/><path d="m176 208h-96a8 8 0 0 0 0 16h96a8 8 0 0 0 0-16z"/><path d="m176 232h-96a8 8 0 0 0 0 16h96a8 8 0 0 0 0-16z"/><path d="m112 256h-32a8 8 0 0 0 0 16h32a8 8 0 0 0 0-16z"/><path d="m144 256h-8a8 8 0 0 0 0 16h8a8 8 0 0 0 0-16z"/><path d="m304 184h-96a8 8 0 0 0 0 16h96a8 8 0 0 0 0-16z"/><path d="m304 208h-96a8 8 0 0 0 0 16h96a8 8 0 0 0 0-16z"/><path d="m304 232h-96a8 8 0 0 0 0 16h96a8 8 0 0 0 0-16z"/><path d="m240 256h-32a8 8 0 0 0 0 16h32a8 8 0 0 0 0-16z"/><path d="m272 256h-8a8 8 0 0 0 0 16h8a8 8 0 0 0 0-16z"/></g></g></svg>