<svg height="512" viewBox="0 0 512 512" width="512" xmlns="http://www.w3.org/2000/svg"><g><g fill="#57a4ff"><path d="m256 16a88 88 0 1 0 88 88 88 88 0 0 0 -88-88zm0 152a64 64 0 1 1 64-64 64 64 0 0 1 -64 64z"/><path d="m96 360v16a16 16 0 0 1 -16 16h-8a16 16 0 0 1 -16-16v-16z"/><path d="m176 360v16a16 16 0 0 1 -16 16h-8a16 16 0 0 1 -16-16v-16z"/><path d="m176 360h-160l32-40h96z"/><path d="m72 416h48v56h-48z"/><path d="m72 416h48v56h-48z"/><g><path d="m456 280-8 24h-48l-8-24z"/><path d="m456 280-8 24h-48l-8-24z"/></g><path d="m16 472h160v24h-160z"/></g><g fill="#004fac"><path d="m256 32a72 72 0 1 0 72 72 72.083 72.083 0 0 0 -72-72zm0 128a56 56 0 1 1 56-56 56.062 56.062 0 0 1 -56 56z"/><path d="m480 272h-48v-40a8 8 0 0 0 -8-8h-160v-24.34a96 96 0 1 0 -16 0v24.34h-160a8 8 0 0 0 -8 8v80h-32a8 8 0 0 0 -6.25 3l-32 40 .01.01a7.935 7.935 0 0 0 -1.76 4.99v16a24.022 24.022 0 0 0 16 22.62v65.38h-8a8 8 0 0 0 -8 8v24a8 8 0 0 0 8 8h160a8 8 0 0 0 8-8v-24a8 8 0 0 0 -8-8h-8v-65.38a24.022 24.022 0 0 0 16-22.62v-16a7.935 7.935 0 0 0 -1.76-4.99l.01-.01-32-40a8 8 0 0 0 -6.25-3h-48v-72h320v32h-48a24.032 24.032 0 0 0 -24 24v184a24.032 24.032 0 0 0 24 24h112a24.032 24.032 0 0 0 24-24v-184a24.032 24.032 0 0 0 -24-24zm-456 96h24v8a8.011 8.011 0 0 1 -8 8h-8a8.011 8.011 0 0 1 -8-8zm48 32h8a23.9 23.9 0 0 0 16-6.13 23.9 23.9 0 0 0 16 6.13h8a23.9 23.9 0 0 0 16-6.13 23.9 23.9 0 0 0 16 6.13v64h-24v-48a8 8 0 0 0 -8-8h-48a8 8 0 0 0 -8 8v48h-24v-64a23.9 23.9 0 0 0 16-6.13 23.9 23.9 0 0 0 16 6.13zm-8-24v-8h24v8a8.011 8.011 0 0 1 -8 8h-8a8.011 8.011 0 0 1 -8-8zm40 0v-8h24v8a8.011 8.011 0 0 1 -8 8h-8a8.011 8.011 0 0 1 -8-8zm8 48v40h-8v-40zm-24 0v40h-8v-40zm80 64h-144v-8h144zm0-112a8.011 8.011 0 0 1 -8 8h-8a8.011 8.011 0 0 1 -8-8v-8h24zm-27.84-48 19.2 24h-126.72l19.2-24zm35.84-224a80 80 0 1 1 80 80 80.093 80.093 0 0 1 -80-80zm268.9 184-2.67 8h-36.46l-2.67-8zm43.1 192a8.011 8.011 0 0 1 -8 8h-112a8.011 8.011 0 0 1 -8-8v-184a8.011 8.011 0 0 1 8-8h18.23l6.18 18.53a8 8 0 0 0 7.59 5.47h48a8 8 0 0 0 7.59-5.47l6.18-18.53h18.23a8.011 8.011 0 0 1 8 8z"/><path d="m288 120a24.032 24.032 0 0 1 -24 24 8 8 0 0 1 -16 0h-8a8 8 0 0 1 0-16h24a8 8 0 0 0 0-16h-16a24 24 0 0 1 0-48 8 8 0 0 1 16 0h8a8 8 0 0 1 0 16h-24a8 8 0 0 0 0 16h16a24.032 24.032 0 0 1 24 24z"/><path d="m408 464h-32a8 8 0 0 0 0 16h32a8 8 0 0 0 0-16z"/><path d="m440 464h-8a8 8 0 0 0 0 16h8a8 8 0 0 0 0-16z"/></g></g></svg>