<svg height="512" viewBox="0 0 512 512" width="512" xmlns="http://www.w3.org/2000/svg"><g><g fill="#57a4ff"><g><path d="m376 192v32a16 16 0 0 1 -16 16h-8a16 16 0 0 1 -16-16v-32h-40v32a16 16 0 0 1 -16 16h-8a16 16 0 0 1 -16-16v-32h-40v32a16 16 0 0 1 -16 16h-8l-16-16v-32h-40l32-64h176z"/><path d="m176 264h32v32h-32z"/><path d="m304 264h32v32h-32z"/><path d="m392 328v24h-272v-24h112v-64h48v64z"/><path d="m416 36v28h-320v-28a19.994 19.994 0 0 1 20-20h280a19.994 19.994 0 0 1 20 20z"/><path d="m96 416v60a19.994 19.994 0 0 0 20 20h280a19.994 19.994 0 0 0 20-20v-60zm160 56a16 16 0 1 1 16-16 16 16 0 0 1 -16 16z"/><path d="m376 192v32a16 16 0 0 1 -16 16h-8a16 16 0 0 1 -16-16v-32h-40v32a16 16 0 0 1 -16 16h-8a16 16 0 0 1 -16-16v-32h-40v32a16 16 0 0 1 -16 16h-8l-16-16v-32h-40l32-64h176z"/><path d="m176 264h32v32h-32z"/><path d="m304 264h32v32h-32z"/><path d="m392 328v24h-272v-24h112v-64h48v64z"/></g><path d="m296 192v32a16 16 0 0 1 -16 16h-8a16 16 0 0 1 -16-16v-32z"/><path d="m192 240h8a16 16 0 0 0 16-16v-32h-40v32z"/><path d="m376 192v32a16 16 0 0 1 -16 16h-8a16 16 0 0 1 -16-16v-32z"/><path d="m376 192h-240l32-64h176z"/><path d="m176 264h32v32h-32z"/><path d="m232 264h48v64h-48z"/><path d="m304 264h32v32h-32z"/><path d="m232 264h48v64h-48z"/><path d="m304 264h32v32h-32z"/><path d="m176 264h32v32h-32z"/><path d="m120 328h272v24h-272z"/></g><g fill="#004fac"><path d="m396 8h-280a28.031 28.031 0 0 0 -28 28v440a28.031 28.031 0 0 0 28 28h280a28.031 28.031 0 0 0 28-28v-440a28.031 28.031 0 0 0 -28-28zm12 468a12.01 12.01 0 0 1 -12 12h-280a12.01 12.01 0 0 1 -12-12v-52h304zm0-68h-304v-336h304zm0-352h-304v-20a12.01 12.01 0 0 1 12-12h280a12.01 12.01 0 0 1 12 12z"/><path d="m224 48h64a8 8 0 0 0 0-16h-64a8 8 0 0 0 0 16z"/><path d="m256 432a24 24 0 1 0 24 24 24.027 24.027 0 0 0 -24-24zm0 32a8 8 0 1 1 8-8 8.009 8.009 0 0 1 -8 8z"/><path d="m304 304h32a8 8 0 0 0 8-8v-32a8 8 0 0 0 -8-8h-32a8 8 0 0 0 -8 8v32a8 8 0 0 0 8 8zm8-32h16v16h-16z"/><path d="m208 256h-32a8 8 0 0 0 -8 8v32a8 8 0 0 0 8 8h32a8 8 0 0 0 8-8v-32a8 8 0 0 0 -8-8zm-8 32h-16v-16h16z"/><path d="m392 320h-24v-73.38a24.031 24.031 0 0 0 16-22.62v-32a7.9 7.9 0 0 0 -.85-3.57l.01-.01-32-64a8.011 8.011 0 0 0 -7.16-4.42h-176a8.011 8.011 0 0 0 -7.16 4.42l-32 64 .01.01a7.9 7.9 0 0 0 -.85 3.57v32a24.031 24.031 0 0 0 16 22.62v73.38h-24a8 8 0 0 0 -8 8v24a8 8 0 0 0 8 8h272a8 8 0 0 0 8-8v-24a8 8 0 0 0 -8-8zm-24-96a8.011 8.011 0 0 1 -8 8h-8a8.011 8.011 0 0 1 -8-8v-24h24zm-88 32h-48a8 8 0 0 0 -8 8v56h-64v-72a23.9 23.9 0 0 0 16-6.13 23.9 23.9 0 0 0 16 6.13h8a23.9 23.9 0 0 0 16-6.13 23.9 23.9 0 0 0 16 6.13h8a23.9 23.9 0 0 0 16-6.13 23.9 23.9 0 0 0 16 6.13h8a23.9 23.9 0 0 0 16-6.13 23.9 23.9 0 0 0 16 6.13h8a23.9 23.9 0 0 0 16-6.13 23.9 23.9 0 0 0 16 6.13v72h-64v-56a8 8 0 0 0 -8-8zm-8 16v48h-8v-48zm-24 0v48h-8v-48zm-64-48v-24h24v24a8.011 8.011 0 0 1 -8 8h-8a8.011 8.011 0 0 1 -8-8zm40 0v-24h24v24a8.011 8.011 0 0 1 -8 8h-8a8.011 8.011 0 0 1 -8-8zm40 0v-24h24v24a8.011 8.011 0 0 1 -8 8h-8a8.011 8.011 0 0 1 -8-8zm40 0v-24h24v24a8.011 8.011 0 0 1 -8 8h-8a8.011 8.011 0 0 1 -8-8zm-131.06-88h166.12l24 48h-214.12zm-28.94 64h24v24a8.011 8.011 0 0 1 -8 8h-8a8.011 8.011 0 0 1 -8-8zm240 144h-256v-8h256z"/></g></g></svg>