<svg height="512" viewBox="0 0 512 512" width="512" xmlns="http://www.w3.org/2000/svg"><g><g fill="#57a4ff"><path d="m216 48-8-32h96l-8 32z"/><path d="m384 142.86v.14h-256v-.14l24-30.86h208z"/><path d="m256 184v32a16 16 0 0 1 -16 16h-8a16 16 0 0 1 -16-16v-32z"/><path d="m176 184v32a16 16 0 0 1 -16 16h-8a16 16 0 0 1 -16-16v-32z"/><path d="m336 184v32a16 16 0 0 1 -16 16h-8a16 16 0 0 1 -16-16v-32z"/><path d="m416 184v32a16 16 0 0 1 -16 16h-8a16 16 0 0 1 -16-16v-32z"/><path d="m416 184h-320l32-41.14 24-30.86h208l24 30.86z"/><path d="m160 256h32v48h-32z"/><path d="m224 256h64v88h-64z"/><path d="m320 256h32v48h-32z"/><path d="m224 256h64v88h-64z"/><path d="m320 256h32v48h-32z"/><path d="m160 256h32v48h-32z"/><path d="m96 368h320v24h-320z"/><path d="m304 16-8 32h-80l-8-32z"/></g><g fill="#004fac"><path d="m400 240a24.032 24.032 0 0 0 24-24v-32a7.952 7.952 0 0 0 -1.69-4.91l-30.31-38.98v-104.11a28.031 28.031 0 0 0 -28-28h-216a28.031 28.031 0 0 0 -28 28v104.11l-30.31 38.98a7.952 7.952 0 0 0 -1.69 4.91v32a24.032 24.032 0 0 0 24 24h8v96h-8a8 8 0 0 0 -8 8v16h-8a8 8 0 0 0 -8 8v24a8 8 0 0 0 8 8h24v76a28.031 28.031 0 0 0 28 28h216a28.031 28.031 0 0 0 28-28v-76h24a8 8 0 0 0 8-8v-24a8 8 0 0 0 -8-8h-8v-16a8 8 0 0 0 -8-8h-8v-96zm-106.25-216-4 16h-67.5l-4-16zm-157.75 12a12.01 12.01 0 0 1 12-12h53.75l6.49 25.94a8 8 0 0 0 7.76 6.06h80a8 8 0 0 0 7.76-6.06l6.49-25.94h53.75a12.01 12.01 0 0 1 12 12v83.54l-9.69-12.45a7.978 7.978 0 0 0 -6.31-3.09h-208a7.978 7.978 0 0 0 -6.31 3.09l-9.69 12.45zm19.91 84h200.18l43.55 56h-287.28zm132.09 128h-64a8 8 0 0 0 -8 8v80h-80v-102.13a23.9 23.9 0 0 0 16 6.13h8a23.9 23.9 0 0 0 16-6.13 23.9 23.9 0 0 0 16 6.13h8a23.9 23.9 0 0 0 16-6.13 23.9 23.9 0 0 0 16 6.13h8a23.9 23.9 0 0 0 16-6.13 23.9 23.9 0 0 0 16 6.13h8a23.9 23.9 0 0 0 16-6.13 23.9 23.9 0 0 0 16 6.13h8a23.9 23.9 0 0 0 16-6.13 23.9 23.9 0 0 0 16 6.13h8a23.9 23.9 0 0 0 16-6.13v102.13h-80v-80a8 8 0 0 0 -8-8zm-8 16v72h-16v-72zm-32 0v72h-16v-72zm-104-48v-24h24v24a8.011 8.011 0 0 1 -8 8h-8a8.011 8.011 0 0 1 -8-8zm40 0v-24h24v24a8.011 8.011 0 0 1 -8 8h-8a8.011 8.011 0 0 1 -8-8zm40 0v-24h24v24a8.011 8.011 0 0 1 -8 8h-8a8.011 8.011 0 0 1 -8-8zm40 0v-24h24v24a8.011 8.011 0 0 1 -8 8h-8a8.011 8.011 0 0 1 -8-8zm40 0v-24h24v24a8.011 8.011 0 0 1 -8 8h-8a8.011 8.011 0 0 1 -8-8zm40 0v-24h24v24a8.011 8.011 0 0 1 -8 8h-8a8.011 8.011 0 0 1 -8-8zm-232 8a8.011 8.011 0 0 1 -8-8v-24h24v24a8.011 8.011 0 0 1 -8 8zm8 128h272v8h-272zm256 124a12.01 12.01 0 0 1 -12 12h-216a12.01 12.01 0 0 1 -12-12v-76h240zm32-100v8h-304v-8zm-24-160v-24h24v24a8.011 8.011 0 0 1 -8 8h-8a8.011 8.011 0 0 1 -8-8z"/><path d="m352 248h-32a8 8 0 0 0 -8 8v48a8 8 0 0 0 8 8h32a8 8 0 0 0 8-8v-48a8 8 0 0 0 -8-8zm-8 48h-16v-32h16z"/><path d="m192 248h-32a8 8 0 0 0 -8 8v48a8 8 0 0 0 8 8h32a8 8 0 0 0 8-8v-48a8 8 0 0 0 -8-8zm-8 48h-16v-32h16z"/><path d="m160 472h64a8 8 0 0 0 0-16h-64a8 8 0 0 0 0 16z"/><path d="m248 472h8a8 8 0 0 0 0-16h-8a8 8 0 0 0 0 16z"/></g></g></svg>