<svg height="512" viewBox="0 0 512 512" width="512" xmlns="http://www.w3.org/2000/svg"><g><g><g fill="#57a4ff"><path d="m342.89 27.45c-6.7 34.32-43.05 60.55-86.89 60.55s-80.19-26.23-86.89-60.55l22.89-11.45a36.691 36.691 0 0 0 1.83 11.45c6.85 20.98 32.08 36.55 62.17 36.55s55.32-15.57 62.17-36.55a36.691 36.691 0 0 0 1.83-11.45z"/><circle cx="256" cy="240" r="104"/><circle cx="256" cy="240" r="104"/></g><path d="m204 292 104-104" fill="none"/></g><g fill="#004fac"><path d="m256 128a112 112 0 1 0 112 112 112.123 112.123 0 0 0 -112-112zm0 208a96 96 0 1 1 96-96 96.115 96.115 0 0 1 -96 96z"/><path d="m487.89 270.68-32-192a8.01 8.01 0 0 0 -4.31-5.84l-128-64a8.008 8.008 0 0 0 -11.58 7.16c0 22.06-25.12 40-56 40s-56-17.94-56-40a8.008 8.008 0 0 0 -11.58-7.16l-128 64a8.01 8.01 0 0 0 -4.31 5.84l-32 192a8.007 8.007 0 0 0 7.89 9.32h80v216a8 8 0 0 0 8 8h272a8 8 0 0 0 8-8v-216h80a8.007 8.007 0 0 0 7.89-9.32zm-302.23-242.56c2.98 10.7 9.93 20.46 20.28 28.22 13.47 10.1 31.24 15.66 50.06 15.66s36.59-5.56 50.06-15.66c10.35-7.76 17.3-17.52 20.28-28.22l7.2 3.6c-3.95 12.42-12.57 23.74-24.77 32.33-14.61 10.29-33.35 15.95-52.77 15.95s-38.16-5.66-52.77-15.95c-12.2-8.59-20.82-19.91-24.77-32.33zm214.34 235.88v-72a8 8 0 0 0 -16 0v296h-256v-296a8 8 0 0 0 -16 0v72h-70.56l29.78-178.67 92.79-46.39c5.3 14.8 15.69 28.11 30.01 38.2 17.28 12.16 39.29 18.86 61.98 18.86s44.7-6.7 61.98-18.86c14.32-10.09 24.71-23.4 30.01-38.2l92.79 46.39 29.78 178.67z"/><path d="m313.657 182.343a8 8 0 0 0 -11.314 0l-104 104a8 8 0 0 0 11.314 11.314l104-104a8 8 0 0 0 0-11.314z"/><path d="m216 224a24 24 0 1 0 -24-24 24.027 24.027 0 0 0 24 24zm0-32a8 8 0 1 1 -8 8 8.009 8.009 0 0 1 8-8z"/><path d="m301.5 248.639a24 24 0 1 0 -11 46.722 24.144 24.144 0 0 0 5.543.648 24 24 0 0 0 5.455-47.37zm-1.29 30.164a8 8 0 1 1 -4.224-14.803 8 8 0 0 1 4.223 14.806z"/><path d="m224 456h-72a8 8 0 0 0 0 16h72a8 8 0 0 0 0-16z"/><path d="m256 456h-8a8 8 0 0 0 0 16h8a8 8 0 0 0 0-16z"/></g></g></svg>